<svg width="408" height="444" viewBox="0 0 408 444" fill="none" xmlns="http://www.w3.org/2000/svg">
<path d="M102.533 311.636C97.409 305.196 88.3675 302.818 81.2492 306.949L35.6624 333.403C28.4218 337.605 25.9128 346.917 30.6342 353.83C43.0365 371.989 58.2791 388.078 75.806 401.465C97.3546 417.925 121.934 429.979 148.141 436.939C174.348 443.899 201.669 445.629 228.545 442.03C255.421 438.432 281.324 429.575 304.777 415.965C328.23 402.356 348.772 384.26 365.232 362.711C381.691 341.163 393.745 316.583 400.705 290.376C407.665 264.169 409.395 236.848 405.797 209.972C402.87 188.112 396.464 166.896 386.851 147.118C383.192 139.589 373.862 137.146 366.621 141.348L315.981 170.734C308.863 174.865 306.441 183.895 309.49 191.539C313.166 200.756 315.702 210.41 317.025 220.289C319.132 236.03 318.119 252.031 314.043 267.38C309.966 282.729 302.906 297.125 293.267 309.745C283.627 322.366 271.595 332.964 257.86 340.935C244.124 348.905 228.953 354.093 213.212 356.2C197.472 358.308 181.47 357.295 166.122 353.218C150.773 349.142 136.377 342.082 123.757 332.442C115.836 326.392 108.712 319.4 102.533 311.636Z" fill="#ADA1FF"/>
<path d="M46.7614 119.113C51.9078 115.789 58.7744 117.266 62.0984 122.412L134.664 234.762C137.988 239.908 136.511 246.775 131.364 250.099L19.0152 322.664C13.8689 325.988 7.00227 324.511 3.67826 319.365L-68.8875 207.015C-72.2115 201.869 -70.7342 195.002 -65.5878 191.678L46.7614 119.113Z" fill="#A2E053"/>
<path d="M216.077 15.3582C215.379 4.76283 226.412 -2.61554 235.937 2.07714L381.937 74.0056C391.462 78.6983 392.335 91.9425 383.509 97.8452L248.217 188.321C239.391 194.223 227.484 188.357 226.785 177.762L216.077 15.3582Z" fill="#F7E64F"/>
</svg>
