<svg width="483" height="475" viewBox="0 0 483 475" fill="none" xmlns="http://www.w3.org/2000/svg">
<path d="M199.573 323.505C193.702 316.126 183.343 313.402 175.186 318.135L122.955 348.445C114.658 353.259 111.784 363.93 117.193 371.85C131.404 392.656 148.868 411.09 168.95 426.429C193.64 445.288 221.802 459.099 251.829 467.073C281.857 475.048 313.16 477.03 343.954 472.907C374.747 468.784 404.427 458.636 431.298 443.042C458.17 427.449 481.707 406.716 500.565 382.026C519.424 357.336 533.235 329.174 541.21 299.146C549.184 269.119 551.167 237.815 547.043 207.022C543.69 181.976 536.35 157.666 525.337 135.005C521.144 126.378 510.453 123.58 502.157 128.394L444.136 162.064C435.98 166.797 433.205 177.143 436.698 185.902C440.91 196.462 443.815 207.524 445.331 218.843C447.746 236.878 446.585 255.212 441.914 272.798C437.244 290.384 429.155 306.878 418.11 321.339C407.065 335.799 393.28 347.942 377.542 357.075C361.804 366.207 344.421 372.151 326.386 374.566C308.351 376.981 290.017 375.82 272.431 371.149C254.845 366.478 238.351 358.39 223.89 347.345C214.815 340.413 206.652 332.401 199.573 323.505Z" fill="#ADA1FF"/>
<path d="M128.759 111.947C134.402 108.303 141.931 109.923 145.576 115.566L225.145 238.759C228.79 244.402 227.17 251.931 221.527 255.576L98.3344 335.145C92.6913 338.79 85.1619 337.17 81.5171 331.527L1.94746 208.334C-1.69738 202.691 -0.0774837 195.162 5.5656 191.517L128.759 111.947Z" fill="#A2E053"/>
<path d="M332.032 15.03C331.319 4.21328 342.583 -3.31919 352.307 1.47151L501.356 74.9023C511.08 79.693 511.972 93.2138 502.961 99.2398L364.843 191.605C355.832 197.631 343.677 191.642 342.964 180.826L332.032 15.03Z" fill="#F7E64F"/>
</svg>
