<svg width="40" height="41" viewBox="0 0 40 41" fill="none" xmlns="http://www.w3.org/2000/svg">
<path fill-rule="evenodd" clip-rule="evenodd" d="M12.9827 0.459058C13.0364 0.429279 13.0909 0.41419 13.1494 0.413591C13.2746 0.41239 13.3933 0.474944 13.4601 0.595461L15.2258 3.77819C16.6701 3.13751 18.2902 2.7779 19.9999 2.7779C21.7095 2.7779 23.3296 3.13751 24.7739 3.77819L26.5396 0.595461C26.6064 0.474944 26.7251 0.412383 26.8503 0.413591C26.9088 0.414149 26.9633 0.429279 27.017 0.459058C27.1934 0.556855 27.2514 0.759593 27.1534 0.936468L25.4105 4.08509C28.7638 5.82991 31.0288 9.14575 31.0333 12.9513H8.96641C8.97095 9.14575 11.2359 5.82991 14.5892 4.08509L12.8463 0.936468C12.7483 0.759593 12.8063 0.556855 12.9827 0.459058ZM13.9868 7.99151C13.9868 7.48776 14.4037 7.07079 14.9075 7.07079C15.4112 7.07079 15.8282 7.48776 15.8282 7.99151C15.8282 8.49525 15.4112 8.91222 14.9075 8.91222C14.4037 8.91222 13.9868 8.49525 13.9868 7.99151ZM24.1715 7.99151C24.1715 7.48776 24.5884 7.07079 25.0922 7.07079C25.5959 7.07079 26.0129 7.48776 26.0129 7.99151C26.0129 8.49525 25.5959 8.91222 25.0922 8.91222C24.5884 8.91222 24.1715 8.49525 24.1715 7.99151Z" fill="#A4C639"/>
<path d="M13.4033 37.9394V32.4833H11.6338C10.1561 32.4833 8.96641 31.2937 8.96641 29.8159V13.8227H31.0333V29.8159C31.0333 31.2937 29.8436 32.4833 28.3659 32.4833H26.5964V37.9394C26.5964 39.3172 25.5001 40.4136 24.1222 40.4136C22.7444 40.4136 21.6481 39.3172 21.6481 37.9394V32.4833H18.3517V37.9394C18.3517 39.3172 17.2553 40.4136 15.8775 40.4136C14.4996 40.4136 13.4033 39.3172 13.4033 37.9394Z" fill="#A4C639"/>
<path d="M3.09741 15.8725C3.09741 14.4947 4.19377 13.3983 5.5716 13.3983C6.94943 13.3983 8.04579 14.4947 8.04579 15.8725V26.1785C8.04579 27.5563 6.94943 28.6527 5.5716 28.6527C4.19377 28.6527 3.09741 27.5563 3.09741 26.1785V15.8725Z" fill="#A4C639"/>
<path d="M31.9541 15.8725C31.9541 14.4947 33.0505 13.3983 34.4283 13.3983C35.8061 13.3983 36.9025 14.4947 36.9025 15.8725V26.1785C36.9025 27.5563 35.8061 28.6527 34.4283 28.6527C33.0505 28.6527 31.9541 27.5563 31.9541 26.1785V15.8725Z" fill="#A4C639"/>
</svg>
