<svg width="56" height="56" viewBox="0 0 56 56" fill="none" xmlns="http://www.w3.org/2000/svg">
<path opacity="0.35" d="M44.3334 9.33333C44.3334 5.467 41.1998 2.33333 37.3334 2.33333H18.6667C14.8004 2.33333 11.6667 5.467 11.6667 9.33333V46.6667C11.6667 50.533 14.8004 53.6667 18.6667 53.6667H37.3334C41.1998 53.6667 44.3334 50.533 44.3334 46.6667V9.33333Z" fill="#A2E053"/>
<path d="M17.4999 37.3333C16.5153 37.3333 15.5329 36.918 14.8423 36.1107L7.84228 27.944C6.71761 26.6327 6.71761 24.6983 7.84228 23.3893L14.8423 15.2227C16.1023 13.7527 18.3119 13.587 19.7773 14.8423C21.2449 16.1 21.4153 18.3097 20.1576 19.7773L15.1106 25.6667L20.1576 31.556C21.4176 33.0237 21.2449 35.2333 19.7773 36.491C19.1169 37.0557 18.3073 37.3333 17.4999 37.3333Z" fill="#A2E053"/>
<path d="M38.4999 37.3333C37.6926 37.3333 36.8829 37.0557 36.2226 36.491C34.7549 35.2333 34.5846 33.0237 35.8422 31.556L40.8892 25.6667L35.8422 19.7773C34.5822 18.3097 34.7549 16.1 36.2226 14.8423C37.6879 13.5847 39.8999 13.7527 41.1576 15.2227L48.1576 23.3893C49.2822 24.7007 49.2822 26.635 48.1576 27.944L41.1576 36.1107C40.4646 36.918 39.4846 37.3333 38.4999 37.3333Z" fill="#A2E053"/>
<path d="M28 49C29.933 49 31.5 47.433 31.5 45.5C31.5 43.567 29.933 42 28 42C26.067 42 24.5 43.567 24.5 45.5C24.5 47.433 26.067 49 28 49Z" fill="#A2E053"/>
</svg>
