<svg width="714" height="669" viewBox="0 0 714 669" fill="none" xmlns="http://www.w3.org/2000/svg">
<path d="M129 540C129 540 473.5 508.5 473.5 407C473.5 305.5 65.43 314.793 74.4998 207C87.4996 52.4998 412.5 45.9998 526.5 64.5C576.666 75.8333 656.142 82.2687 688 54C723.5 22.5 719.5 1 719.5 1" stroke="#333333"/>
<circle cx="75.5" cy="593" r="75.5" fill="#2B2B2B"/>
<circle cx="520.5" cy="465" r="75.5" fill="#2B2B2B"/>
<circle cx="130.5" cy="258" r="75.5" fill="#2B2B2B"/>
<circle cx="584.5" cy="113" r="75.5" fill="#2B2B2B"/>
<circle cx="526.5" cy="65" r="6.5" fill="#A2E053"/>
<circle cx="75.5" cy="207" r="6.5" fill="#ADA1FF"/>
<circle cx="473.5" cy="407" r="6.5" fill="#F7E64F"/>
<circle cx="128.5" cy="540" r="6.5" fill="#F7AA4F"/>
<path opacity="0.35" d="M89.2463 583.641L85.3333 581.706V569.377C85.3333 566.393 84.1479 563.53 82.0363 561.42L79.1616 558.543C77.4163 556.798 74.5859 556.798 72.8406 558.543L69.9636 561.42C67.8519 563.532 66.6666 566.393 66.6666 569.377V581.706L62.7536 583.641C60.8076 584.602 59.4169 586.415 58.9899 588.543L58.3133 591.936C57.8069 594.47 59.7436 596.833 62.3266 596.833H89.6733C92.2563 596.833 94.1952 594.47 93.6889 591.936L93.0099 588.543C92.5829 586.415 91.1922 584.602 89.2463 583.641Z" fill="#F7AA4F"/>
<path d="M75.9999 575.833C78.5772 575.833 80.6666 573.744 80.6666 571.167C80.6666 568.589 78.5772 566.5 75.9999 566.5C73.4226 566.5 71.3333 568.589 71.3333 571.167C71.3333 573.744 73.4226 575.833 75.9999 575.833Z" fill="#F7AA4F"/>
<path d="M69 596.833C69 599.127 70.6893 601.981 72.409 604.293C74.208 606.715 77.792 606.715 79.5933 604.293C81.3107 601.981 83 599.127 83 596.833H69Z" fill="#F7AA4F"/>
<path d="M53.12 629.5V619.42H54.149V628.513H58.937V629.5H53.12ZM62.2934 629.71C61.7241 629.71 61.2457 629.607 60.8584 629.402C60.4757 629.197 60.1887 628.924 59.9974 628.583C59.8061 628.242 59.7104 627.871 59.7104 627.47C59.7104 627.059 59.7921 626.709 59.9554 626.42C60.1234 626.126 60.3497 625.886 60.6344 625.699C60.9237 625.512 61.2574 625.37 61.6354 625.272C62.0181 625.179 62.4404 625.097 62.9024 625.027C63.3691 624.952 63.8241 624.889 64.2674 624.838C64.7154 624.782 65.1074 624.728 65.4434 624.677L65.0794 624.901C65.0934 624.154 64.9487 623.601 64.6454 623.242C64.3421 622.883 63.8147 622.703 63.0634 622.703C62.5454 622.703 62.1067 622.82 61.7474 623.053C61.3927 623.286 61.1431 623.655 60.9984 624.159L59.9974 623.865C60.1701 623.188 60.5177 622.663 61.0404 622.29C61.5631 621.917 62.2421 621.73 63.0774 621.73C63.7681 621.73 64.3537 621.861 64.8344 622.122C65.3197 622.379 65.6627 622.752 65.8634 623.242C65.9567 623.461 66.0174 623.706 66.0454 623.977C66.0734 624.248 66.0874 624.523 66.0874 624.803V629.5H65.1704V627.603L65.4364 627.715C65.1797 628.364 64.7807 628.858 64.2394 629.199C63.6981 629.54 63.0494 629.71 62.2934 629.71ZM62.4124 628.821C62.8931 628.821 63.3131 628.735 63.6724 628.562C64.0317 628.389 64.3211 628.154 64.5404 627.855C64.7597 627.552 64.9021 627.211 64.9674 626.833C65.0234 626.59 65.0537 626.324 65.0584 626.035C65.0631 625.741 65.0654 625.522 65.0654 625.377L65.4574 625.58C65.1074 625.627 64.7271 625.673 64.3164 625.72C63.9104 625.767 63.5091 625.82 63.1124 625.881C62.7204 625.942 62.3657 626.014 62.0484 626.098C61.8337 626.159 61.6261 626.245 61.4254 626.357C61.2247 626.464 61.0591 626.609 60.9284 626.791C60.8024 626.973 60.7394 627.199 60.7394 627.47C60.7394 627.689 60.7931 627.902 60.9004 628.107C61.0124 628.312 61.1897 628.483 61.4324 628.618C61.6797 628.753 62.0064 628.821 62.4124 628.821ZM70.8007 629.689C70.348 629.689 69.9514 629.619 69.6107 629.479C69.2747 629.339 68.9877 629.15 68.7497 628.912C68.5164 628.674 68.3274 628.403 68.1827 628.1C68.038 627.792 67.933 627.468 67.8677 627.127C67.8024 626.782 67.7697 626.439 67.7697 626.098V621.94H68.8057V625.797C68.8057 626.212 68.8454 626.597 68.9247 626.952C69.004 627.307 69.13 627.617 69.3027 627.883C69.48 628.144 69.7064 628.347 69.9817 628.492C70.2617 628.637 70.6 628.709 70.9967 628.709C71.3607 628.709 71.6804 628.646 71.9557 628.52C72.2357 628.394 72.469 628.214 72.6557 627.981C72.847 627.743 72.9917 627.456 73.0897 627.12C73.1877 626.779 73.2367 626.397 73.2367 625.972L73.9647 626.133C73.9647 626.908 73.8294 627.559 73.5587 628.086C73.288 628.613 72.9147 629.012 72.4387 629.283C71.9627 629.554 71.4167 629.689 70.8007 629.689ZM73.3417 629.5V627.638H73.2367V621.94H74.2657V629.5H73.3417ZM81.6822 629.5V625.643C81.6822 625.223 81.6425 624.838 81.5632 624.488C81.4839 624.133 81.3555 623.825 81.1782 623.564C81.0055 623.298 80.7792 623.093 80.4992 622.948C80.2239 622.803 79.8879 622.731 79.4912 622.731C79.1272 622.731 78.8052 622.794 78.5252 622.92C78.2499 623.046 78.0165 623.228 77.8252 623.466C77.6385 623.699 77.4962 623.984 77.3982 624.32C77.3002 624.656 77.2512 625.039 77.2512 625.468L76.5232 625.307C76.5232 624.532 76.6585 623.881 76.9292 623.354C77.1999 622.827 77.5732 622.428 78.0492 622.157C78.5252 621.886 79.0712 621.751 79.6872 621.751C80.1399 621.751 80.5342 621.821 80.8702 621.961C81.2109 622.101 81.4979 622.29 81.7312 622.528C81.9692 622.766 82.1605 623.039 82.3052 623.347C82.4499 623.65 82.5549 623.975 82.6202 624.32C82.6855 624.661 82.7182 625.001 82.7182 625.342V629.5H81.6822ZM76.2152 629.5V621.94H77.1462V623.802H77.2512V629.5H76.2152ZM87.6297 629.71C86.869 629.71 86.225 629.54 85.6977 629.199C85.1703 628.858 84.769 628.389 84.4937 627.792C84.223 627.19 84.083 626.499 84.0737 625.72C84.083 624.927 84.2277 624.231 84.5077 623.634C84.7877 623.032 85.1913 622.565 85.7187 622.234C86.246 621.898 86.8853 621.73 87.6367 621.73C88.402 621.73 89.067 621.917 89.6317 622.29C90.201 622.663 90.5907 623.174 90.8007 623.823L89.7927 624.145C89.6153 623.692 89.333 623.342 88.9457 623.095C88.563 622.843 88.1243 622.717 87.6297 622.717C87.0743 622.717 86.6147 622.845 86.2507 623.102C85.8867 623.354 85.616 623.706 85.4387 624.159C85.2613 624.612 85.1703 625.132 85.1657 625.72C85.175 626.625 85.385 627.353 85.7957 627.904C86.2063 628.45 86.8177 628.723 87.6297 628.723C88.143 628.723 88.5793 628.606 88.9387 628.373C89.3027 628.135 89.578 627.79 89.7647 627.337L90.8007 627.645C90.5207 628.317 90.11 628.83 89.5687 629.185C89.0273 629.535 88.381 629.71 87.6297 629.71ZM97.7056 629.5V625.643C97.7056 625.223 97.666 624.838 97.5866 624.488C97.5073 624.133 97.379 623.825 97.2016 623.564C97.029 623.298 96.8026 623.093 96.5226 622.948C96.2473 622.803 95.9113 622.731 95.5146 622.731C95.1506 622.731 94.8286 622.794 94.5486 622.92C94.2733 623.046 94.04 623.228 93.8486 623.466C93.662 623.699 93.5196 623.984 93.4216 624.32C93.3236 624.656 93.2746 625.039 93.2746 625.468L92.5466 625.307C92.5466 624.532 92.682 623.881 92.9526 623.354C93.2233 622.827 93.5966 622.428 94.0726 622.157C94.5486 621.886 95.0946 621.751 95.7106 621.751C96.1633 621.751 96.5576 621.821 96.8936 621.961C97.2343 622.101 97.5213 622.29 97.7546 622.528C97.9926 622.766 98.184 623.039 98.3286 623.347C98.4733 623.65 98.5783 623.975 98.6436 624.32C98.709 624.661 98.7416 625.001 98.7416 625.342V629.5H97.7056ZM92.2386 629.5V619.42H93.1696V625.111H93.2746V629.5H92.2386Z" fill="#E6E6E6"/>
<path opacity="0.35" d="M579.167 77.1667C569.502 77.1667 561.667 85.002 561.667 94.6667C561.667 97.4527 562.334 100.075 563.491 102.413L561.732 109.446C561.331 111.049 562.782 112.5 564.385 112.099L571.418 110.34C573.758 111.499 576.381 112.167 579.167 112.167C588.831 112.167 596.667 104.331 596.667 94.6667C596.667 85.002 588.831 77.1667 579.167 77.1667Z" fill="#A2E053"/>
<path d="M605.65 110.65L608.266 121.113C608.667 122.716 607.216 124.167 605.613 123.766L595.15 121.15L605.65 110.65Z" fill="#A2E053"/>
<path d="M595.913 89.587C596.398 91.197 596.667 92.9003 596.667 94.6666C596.667 104.331 588.831 112.167 579.167 112.167C577.4 112.167 575.697 111.898 574.087 111.413C576.264 118.6 582.935 123.833 590.833 123.833C600.498 123.833 608.333 115.998 608.333 106.333C608.333 98.435 603.1 91.764 595.913 89.587Z" fill="#A2E053"/>
<path d="M587.333 93.5H573.333C572.043 93.5 571 92.4546 571 91.1666C571 89.8786 572.043 88.8333 573.333 88.8333H587.333C588.624 88.8333 589.667 89.8786 589.667 91.1666C589.667 92.4546 588.624 93.5 587.333 93.5Z" fill="#A2E053"/>
<path d="M582.667 102.833H573.333C572.043 102.833 571 101.788 571 100.5C571 99.212 572.043 98.1667 573.333 98.1667H582.667C583.957 98.1667 585 99.212 585 100.5C585 101.788 583.957 102.833 582.667 102.833Z" fill="#A2E053"/>
<path d="M560.48 149.5V139.42H563.539C563.646 139.42 563.828 139.422 564.085 139.427C564.346 139.432 564.596 139.45 564.834 139.483C565.599 139.59 566.239 139.875 566.752 140.337C567.265 140.799 567.65 141.387 567.907 142.101C568.164 142.815 568.292 143.601 568.292 144.46C568.292 145.319 568.164 146.105 567.907 146.819C567.65 147.533 567.265 148.121 566.752 148.583C566.239 149.045 565.599 149.33 564.834 149.437C564.601 149.465 564.351 149.484 564.085 149.493C563.819 149.498 563.637 149.5 563.539 149.5H560.48ZM561.544 148.513H563.539C563.73 148.513 563.936 148.508 564.155 148.499C564.379 148.485 564.57 148.462 564.729 148.429C565.317 148.326 565.791 148.088 566.15 147.715C566.514 147.342 566.78 146.875 566.948 146.315C567.116 145.75 567.2 145.132 567.2 144.46C567.2 143.783 567.116 143.163 566.948 142.598C566.78 142.033 566.514 141.567 566.15 141.198C565.786 140.829 565.312 140.594 564.729 140.491C564.57 140.458 564.377 140.437 564.148 140.428C563.924 140.414 563.721 140.407 563.539 140.407H561.544V148.513ZM570.026 140.505V139.35H571.055V140.505H570.026ZM570.026 149.5V141.94H571.055V149.5H570.026ZM575.975 149.703C575.088 149.703 574.358 149.512 573.784 149.129C573.214 148.746 572.864 148.214 572.734 147.533L573.784 147.358C573.896 147.787 574.15 148.13 574.547 148.387C574.948 148.639 575.443 148.765 576.031 148.765C576.605 148.765 577.057 148.646 577.389 148.408C577.72 148.165 577.886 147.836 577.886 147.421C577.886 147.188 577.832 146.999 577.725 146.854C577.622 146.705 577.41 146.567 577.088 146.441C576.766 146.315 576.285 146.166 575.646 145.993C574.96 145.806 574.423 145.62 574.036 145.433C573.648 145.246 573.373 145.032 573.21 144.789C573.046 144.542 572.965 144.241 572.965 143.886C572.965 143.457 573.086 143.081 573.329 142.759C573.571 142.432 573.907 142.18 574.337 142.003C574.766 141.821 575.265 141.73 575.835 141.73C576.404 141.73 576.913 141.823 577.361 142.01C577.813 142.192 578.177 142.449 578.453 142.78C578.728 143.111 578.891 143.496 578.943 143.935L577.893 144.124C577.823 143.681 577.601 143.331 577.228 143.074C576.859 142.813 576.39 142.677 575.821 142.668C575.284 142.654 574.848 142.757 574.512 142.976C574.176 143.191 574.008 143.478 574.008 143.837C574.008 144.038 574.068 144.21 574.19 144.355C574.311 144.495 574.53 144.628 574.848 144.754C575.17 144.88 575.627 145.018 576.22 145.167C576.915 145.344 577.461 145.531 577.858 145.727C578.254 145.923 578.537 146.154 578.705 146.42C578.873 146.686 578.957 147.015 578.957 147.407C578.957 148.121 578.691 148.683 578.159 149.094C577.631 149.5 576.903 149.703 575.975 149.703ZM583.645 149.71C582.885 149.71 582.241 149.54 581.713 149.199C581.186 148.858 580.785 148.389 580.509 147.792C580.239 147.19 580.099 146.499 580.089 145.72C580.099 144.927 580.243 144.231 580.523 143.634C580.803 143.032 581.207 142.565 581.734 142.234C582.262 141.898 582.901 141.73 583.652 141.73C584.418 141.73 585.083 141.917 585.647 142.29C586.217 142.663 586.606 143.174 586.816 143.823L585.808 144.145C585.631 143.692 585.349 143.342 584.961 143.095C584.579 142.843 584.14 142.717 583.645 142.717C583.09 142.717 582.63 142.845 582.266 143.102C581.902 143.354 581.632 143.706 581.454 144.159C581.277 144.612 581.186 145.132 581.181 145.72C581.191 146.625 581.401 147.353 581.811 147.904C582.222 148.45 582.833 148.723 583.645 148.723C584.159 148.723 584.595 148.606 584.954 148.373C585.318 148.135 585.594 147.79 585.78 147.337L586.816 147.645C586.536 148.317 586.126 148.83 585.584 149.185C585.043 149.535 584.397 149.71 583.645 149.71ZM591.152 149.689C590.7 149.689 590.303 149.619 589.962 149.479C589.626 149.339 589.339 149.15 589.101 148.912C588.868 148.674 588.679 148.403 588.534 148.1C588.39 147.792 588.285 147.468 588.219 147.127C588.154 146.782 588.121 146.439 588.121 146.098V141.94H589.157V145.797C589.157 146.212 589.197 146.597 589.276 146.952C589.356 147.307 589.482 147.617 589.654 147.883C589.832 148.144 590.058 148.347 590.333 148.492C590.613 148.637 590.952 148.709 591.348 148.709C591.712 148.709 592.032 148.646 592.307 148.52C592.587 148.394 592.821 148.214 593.007 147.981C593.199 147.743 593.343 147.456 593.441 147.12C593.539 146.779 593.588 146.397 593.588 145.972L594.316 146.133C594.316 146.908 594.181 147.559 593.91 148.086C593.64 148.613 593.266 149.012 592.79 149.283C592.314 149.554 591.768 149.689 591.152 149.689ZM593.693 149.5V147.638H593.588V141.94H594.617V149.5H593.693ZM599.395 149.703C598.508 149.703 597.778 149.512 597.204 149.129C596.634 148.746 596.284 148.214 596.154 147.533L597.204 147.358C597.316 147.787 597.57 148.13 597.967 148.387C598.368 148.639 598.863 148.765 599.451 148.765C600.025 148.765 600.477 148.646 600.809 148.408C601.14 148.165 601.306 147.836 601.306 147.421C601.306 147.188 601.252 146.999 601.145 146.854C601.042 146.705 600.83 146.567 600.508 146.441C600.186 146.315 599.705 146.166 599.066 145.993C598.38 145.806 597.843 145.62 597.456 145.433C597.068 145.246 596.793 145.032 596.63 144.789C596.466 144.542 596.385 144.241 596.385 143.886C596.385 143.457 596.506 143.081 596.749 142.759C596.991 142.432 597.327 142.18 597.757 142.003C598.186 141.821 598.685 141.73 599.255 141.73C599.824 141.73 600.333 141.823 600.781 142.01C601.233 142.192 601.597 142.449 601.873 142.78C602.148 143.111 602.311 143.496 602.363 143.935L601.313 144.124C601.243 143.681 601.021 143.331 600.648 143.074C600.279 142.813 599.81 142.677 599.241 142.668C598.704 142.654 598.268 142.757 597.932 142.976C597.596 143.191 597.428 143.478 597.428 143.837C597.428 144.038 597.488 144.21 597.61 144.355C597.731 144.495 597.95 144.628 598.268 144.754C598.59 144.88 599.047 145.018 599.64 145.167C600.335 145.344 600.881 145.531 601.278 145.727C601.674 145.923 601.957 146.154 602.125 146.42C602.293 146.686 602.377 147.015 602.377 147.407C602.377 148.121 602.111 148.683 601.579 149.094C601.051 149.5 600.323 149.703 599.395 149.703ZM606.75 149.703C605.864 149.703 605.133 149.512 604.559 149.129C603.99 148.746 603.64 148.214 603.509 147.533L604.559 147.358C604.671 147.787 604.926 148.13 605.322 148.387C605.724 148.639 606.218 148.765 606.806 148.765C607.38 148.765 607.833 148.646 608.164 148.408C608.496 148.165 608.661 147.836 608.661 147.421C608.661 147.188 608.608 146.999 608.5 146.854C608.398 146.705 608.185 146.567 607.863 146.441C607.541 146.315 607.061 146.166 606.421 145.993C605.735 145.806 605.199 145.62 604.811 145.433C604.424 145.246 604.149 145.032 603.985 144.789C603.822 144.542 603.74 144.241 603.74 143.886C603.74 143.457 603.862 143.081 604.104 142.759C604.347 142.432 604.683 142.18 605.112 142.003C605.542 141.821 606.041 141.73 606.61 141.73C607.18 141.73 607.688 141.823 608.136 142.01C608.589 142.192 608.953 142.449 609.228 142.78C609.504 143.111 609.667 143.496 609.718 143.935L608.668 144.124C608.598 143.681 608.377 143.331 608.003 143.074C607.635 142.813 607.166 142.677 606.596 142.668C606.06 142.654 605.623 142.757 605.287 142.976C604.951 143.191 604.783 143.478 604.783 143.837C604.783 144.038 604.844 144.21 604.965 144.355C605.087 144.495 605.306 144.628 605.623 144.754C605.945 144.88 606.403 145.018 606.995 145.167C607.691 145.344 608.237 145.531 608.633 145.727C609.03 145.923 609.312 146.154 609.48 146.42C609.648 146.686 609.732 147.015 609.732 147.407C609.732 148.121 609.466 148.683 608.934 149.094C608.407 149.5 607.679 149.703 606.75 149.703Z" fill="#E6E6E6"/>
<path opacity="0.35" d="M131 222.167C118.113 222.167 107.667 232.613 107.667 245.5C107.667 248.078 109.755 250.167 112.333 250.167H121.667C124.245 250.167 126.333 252.255 126.333 254.833V264.167C126.333 266.745 128.422 268.833 131 268.833C143.887 268.833 154.333 258.387 154.333 245.5C154.333 232.613 143.887 222.167 131 222.167ZM135.667 261.833C133.088 261.833 131 259.745 131 257.167C131 254.588 133.088 252.5 135.667 252.5C138.245 252.5 140.333 254.588 140.333 257.167C140.333 259.745 138.245 261.833 135.667 261.833Z" fill="#ADA1FF"/>
<path d="M118.167 245.5C120.1 245.5 121.667 243.933 121.667 242C121.667 240.067 120.1 238.5 118.167 238.5C116.234 238.5 114.667 240.067 114.667 242C114.667 243.933 116.234 245.5 118.167 245.5Z" fill="#ADA1FF"/>
<path d="M125.167 236.167C127.1 236.167 128.667 234.6 128.667 232.667C128.667 230.734 127.1 229.167 125.167 229.167C123.234 229.167 121.667 230.734 121.667 232.667C121.667 234.6 123.234 236.167 125.167 236.167Z" fill="#ADA1FF"/>
<path d="M136.833 236.167C138.766 236.167 140.333 234.6 140.333 232.667C140.333 230.734 138.766 229.167 136.833 229.167C134.9 229.167 133.333 230.734 133.333 232.667C133.333 234.6 134.9 236.167 136.833 236.167Z" fill="#ADA1FF"/>
<path d="M143.833 247.833C145.766 247.833 147.333 246.266 147.333 244.333C147.333 242.4 145.766 240.833 143.833 240.833C141.9 240.833 140.333 242.4 140.333 244.333C140.333 246.266 141.9 247.833 143.833 247.833Z" fill="#ADA1FF"/>
<path d="M109.48 294.5V284.42H112.539C112.646 284.42 112.828 284.422 113.085 284.427C113.346 284.432 113.596 284.45 113.834 284.483C114.599 284.59 115.239 284.875 115.752 285.337C116.265 285.799 116.65 286.387 116.907 287.101C117.164 287.815 117.292 288.601 117.292 289.46C117.292 290.319 117.164 291.105 116.907 291.819C116.65 292.533 116.265 293.121 115.752 293.583C115.239 294.045 114.599 294.33 113.834 294.437C113.601 294.465 113.351 294.484 113.085 294.493C112.819 294.498 112.637 294.5 112.539 294.5H109.48ZM110.544 293.513H112.539C112.73 293.513 112.936 293.508 113.155 293.499C113.379 293.485 113.57 293.462 113.729 293.429C114.317 293.326 114.791 293.088 115.15 292.715C115.514 292.342 115.78 291.875 115.948 291.315C116.116 290.75 116.2 290.132 116.2 289.46C116.2 288.783 116.116 288.163 115.948 287.598C115.78 287.033 115.514 286.567 115.15 286.198C114.786 285.829 114.312 285.594 113.729 285.491C113.57 285.458 113.377 285.437 113.148 285.428C112.924 285.414 112.721 285.407 112.539 285.407H110.544V293.513ZM122.085 294.71C121.348 294.71 120.709 294.547 120.167 294.22C119.631 293.893 119.213 293.434 118.914 292.841C118.616 292.248 118.466 291.553 118.466 290.755C118.466 289.929 118.613 289.215 118.907 288.613C119.201 288.011 119.614 287.547 120.146 287.22C120.683 286.893 121.315 286.73 122.043 286.73C122.79 286.73 123.427 286.903 123.954 287.248C124.482 287.589 124.881 288.079 125.151 288.718C125.422 289.357 125.546 290.12 125.522 291.007H124.472V290.643C124.454 289.663 124.241 288.923 123.835 288.424C123.434 287.925 122.846 287.675 122.071 287.675C121.259 287.675 120.636 287.939 120.202 288.466C119.773 288.993 119.558 289.745 119.558 290.72C119.558 291.672 119.773 292.412 120.202 292.939C120.636 293.462 121.25 293.723 122.043 293.723C122.585 293.723 123.056 293.599 123.457 293.352C123.863 293.1 124.183 292.738 124.416 292.267L125.375 292.638C125.077 293.296 124.636 293.807 124.052 294.171C123.474 294.53 122.818 294.71 122.085 294.71ZM119.194 291.007V290.146H124.969V291.007H119.194ZM129.897 294.703C129.01 294.703 128.28 294.512 127.706 294.129C127.136 293.746 126.786 293.214 126.656 292.533L127.706 292.358C127.818 292.787 128.072 293.13 128.469 293.387C128.87 293.639 129.365 293.765 129.953 293.765C130.527 293.765 130.979 293.646 131.311 293.408C131.642 293.165 131.808 292.836 131.808 292.421C131.808 292.188 131.754 291.999 131.647 291.854C131.544 291.705 131.332 291.567 131.01 291.441C130.688 291.315 130.207 291.166 129.568 290.993C128.882 290.806 128.345 290.62 127.958 290.433C127.57 290.246 127.295 290.032 127.132 289.789C126.968 289.542 126.887 289.241 126.887 288.886C126.887 288.457 127.008 288.081 127.251 287.759C127.493 287.432 127.829 287.18 128.259 287.003C128.688 286.821 129.187 286.73 129.757 286.73C130.326 286.73 130.835 286.823 131.283 287.01C131.735 287.192 132.099 287.449 132.375 287.78C132.65 288.111 132.813 288.496 132.865 288.935L131.815 289.124C131.745 288.681 131.523 288.331 131.15 288.074C130.781 287.813 130.312 287.677 129.743 287.668C129.206 287.654 128.77 287.757 128.434 287.976C128.098 288.191 127.93 288.478 127.93 288.837C127.93 289.038 127.99 289.21 128.112 289.355C128.233 289.495 128.452 289.628 128.77 289.754C129.092 289.88 129.549 290.018 130.142 290.167C130.837 290.344 131.383 290.531 131.78 290.727C132.176 290.923 132.459 291.154 132.627 291.42C132.795 291.686 132.879 292.015 132.879 292.407C132.879 293.121 132.613 293.683 132.081 294.094C131.553 294.5 130.825 294.703 129.897 294.703ZM134.571 285.505V284.35H135.6V285.505H134.571ZM134.571 294.5V286.94H135.6V294.5H134.571ZM140.702 298.07C140.314 298.07 139.932 298.012 139.554 297.895C139.18 297.783 138.835 297.603 138.518 297.356C138.2 297.113 137.934 296.796 137.72 296.404L138.651 295.886C138.861 296.306 139.155 296.607 139.533 296.789C139.915 296.976 140.305 297.069 140.702 297.069C141.248 297.069 141.689 296.966 142.025 296.761C142.365 296.56 142.613 296.262 142.767 295.865C142.921 295.468 142.995 294.974 142.991 294.381V292.365H143.11V286.94H144.027V294.395C144.027 294.61 144.02 294.815 144.006 295.011C143.996 295.212 143.975 295.408 143.943 295.599C143.854 296.164 143.67 296.628 143.39 296.992C143.114 297.356 142.75 297.627 142.298 297.804C141.85 297.981 141.318 298.07 140.702 298.07ZM140.632 294.71C139.927 294.71 139.325 294.535 138.826 294.185C138.326 293.83 137.944 293.352 137.678 292.75C137.412 292.148 137.279 291.469 137.279 290.713C137.279 289.962 137.409 289.285 137.671 288.683C137.937 288.081 138.317 287.605 138.812 287.255C139.306 286.905 139.899 286.73 140.59 286.73C141.299 286.73 141.896 286.903 142.382 287.248C142.867 287.593 143.233 288.067 143.481 288.669C143.733 289.266 143.859 289.948 143.859 290.713C143.859 291.464 143.735 292.143 143.488 292.75C143.24 293.352 142.876 293.83 142.396 294.185C141.915 294.535 141.327 294.71 140.632 294.71ZM140.737 293.751C141.273 293.751 141.717 293.62 142.067 293.359C142.417 293.098 142.678 292.738 142.851 292.281C143.023 291.819 143.11 291.296 143.11 290.713C143.11 290.12 143.023 289.598 142.851 289.145C142.678 288.688 142.417 288.331 142.067 288.074C141.721 287.817 141.285 287.689 140.758 287.689C140.216 287.689 139.768 287.822 139.414 288.088C139.059 288.354 138.795 288.716 138.623 289.173C138.455 289.63 138.371 290.144 138.371 290.713C138.371 291.287 138.457 291.805 138.63 292.267C138.807 292.724 139.071 293.086 139.421 293.352C139.771 293.618 140.209 293.751 140.737 293.751ZM151.444 294.5V290.643C151.444 290.223 151.404 289.838 151.325 289.488C151.246 289.133 151.117 288.825 150.94 288.564C150.767 288.298 150.541 288.093 150.261 287.948C149.986 287.803 149.65 287.731 149.253 287.731C148.889 287.731 148.567 287.794 148.287 287.92C148.012 288.046 147.778 288.228 147.587 288.466C147.4 288.699 147.258 288.984 147.16 289.32C147.062 289.656 147.013 290.039 147.013 290.468L146.285 290.307C146.285 289.532 146.42 288.881 146.691 288.354C146.962 287.827 147.335 287.428 147.811 287.157C148.287 286.886 148.833 286.751 149.449 286.751C149.902 286.751 150.296 286.821 150.632 286.961C150.973 287.101 151.26 287.29 151.493 287.528C151.731 287.766 151.922 288.039 152.067 288.347C152.212 288.65 152.317 288.975 152.382 289.32C152.447 289.661 152.48 290.001 152.48 290.342V294.5H151.444ZM145.977 294.5V286.94H146.908V288.802H147.013V294.5H145.977Z" fill="#E6E6E6"/>
<path opacity="0.35" d="M535 473.5H507C503.134 473.5 500 470.366 500 466.5V440.833H542V466.5C542 470.366 538.866 473.5 535 473.5Z" fill="#F7E64F"/>
<path d="M542 440.833H500V438.5C500 434.634 503.134 431.5 507 431.5H535C538.866 431.5 542 434.634 542 438.5V440.833Z" fill="#F7E64F"/>
<path d="M518.669 468.833C518.48 468.833 518.291 468.812 518.1 468.763C516.849 468.451 516.091 467.184 516.401 465.933L521.068 447.266C521.38 446.016 522.652 445.26 523.898 445.568C525.149 445.88 525.907 447.147 525.597 448.398L520.93 467.065C520.664 468.126 519.714 468.833 518.669 468.833Z" fill="#F7E64F"/>
<path d="M530.333 464.167C529.736 464.167 529.139 463.938 528.684 463.483C527.771 462.571 527.771 461.096 528.684 460.184L531.701 457.167L528.684 454.15C527.771 453.237 527.771 451.763 528.684 450.85C529.596 449.938 531.071 449.938 531.983 450.85L536.65 455.517C537.562 456.429 537.562 457.904 536.65 458.816L531.983 463.483C531.528 463.938 530.931 464.167 530.333 464.167Z" fill="#F7E64F"/>
<path d="M511.667 464.167C511.069 464.167 510.472 463.938 510.017 463.483L505.35 458.816C504.438 457.904 504.438 456.429 505.35 455.517L510.017 450.85C510.929 449.938 512.404 449.938 513.316 450.85C514.229 451.763 514.229 453.237 513.316 454.15L510.299 457.167L513.316 460.184C514.229 461.096 514.229 462.571 513.316 463.483C512.861 463.938 512.264 464.167 511.667 464.167Z" fill="#F7E64F"/>
<path d="M495.48 501.5V491.42H498.539C498.646 491.42 498.828 491.422 499.085 491.427C499.346 491.432 499.596 491.45 499.834 491.483C500.599 491.59 501.239 491.875 501.752 492.337C502.265 492.799 502.65 493.387 502.907 494.101C503.164 494.815 503.292 495.601 503.292 496.46C503.292 497.319 503.164 498.105 502.907 498.819C502.65 499.533 502.265 500.121 501.752 500.583C501.239 501.045 500.599 501.33 499.834 501.437C499.601 501.465 499.351 501.484 499.085 501.493C498.819 501.498 498.637 501.5 498.539 501.5H495.48ZM496.544 500.513H498.539C498.73 500.513 498.936 500.508 499.155 500.499C499.379 500.485 499.57 500.462 499.729 500.429C500.317 500.326 500.791 500.088 501.15 499.715C501.514 499.342 501.78 498.875 501.948 498.315C502.116 497.75 502.2 497.132 502.2 496.46C502.2 495.783 502.116 495.163 501.948 494.598C501.78 494.033 501.514 493.567 501.15 493.198C500.786 492.829 500.312 492.594 499.729 492.491C499.57 492.458 499.377 492.437 499.148 492.428C498.924 492.414 498.721 492.407 498.539 492.407H496.544V500.513ZM508.085 501.71C507.348 501.71 506.709 501.547 506.167 501.22C505.631 500.893 505.213 500.434 504.914 499.841C504.616 499.248 504.466 498.553 504.466 497.755C504.466 496.929 504.613 496.215 504.907 495.613C505.201 495.011 505.614 494.547 506.146 494.22C506.683 493.893 507.315 493.73 508.043 493.73C508.79 493.73 509.427 493.903 509.954 494.248C510.482 494.589 510.881 495.079 511.151 495.718C511.422 496.357 511.546 497.12 511.522 498.007H510.472V497.643C510.454 496.663 510.241 495.923 509.835 495.424C509.434 494.925 508.846 494.675 508.071 494.675C507.259 494.675 506.636 494.939 506.202 495.466C505.773 495.993 505.558 496.745 505.558 497.72C505.558 498.672 505.773 499.412 506.202 499.939C506.636 500.462 507.25 500.723 508.043 500.723C508.585 500.723 509.056 500.599 509.457 500.352C509.863 500.1 510.183 499.738 510.416 499.267L511.375 499.638C511.077 500.296 510.636 500.807 510.052 501.171C509.474 501.53 508.818 501.71 508.085 501.71ZM505.194 498.007V497.146H510.969V498.007H505.194ZM514.846 501.5L512.102 493.94H513.145L515.378 500.156L517.597 493.94H518.654L515.91 501.5H514.846ZM522.837 501.71C522.1 501.71 521.461 501.547 520.919 501.22C520.383 500.893 519.965 500.434 519.666 499.841C519.368 499.248 519.218 498.553 519.218 497.755C519.218 496.929 519.365 496.215 519.659 495.613C519.953 495.011 520.366 494.547 520.898 494.22C521.435 493.893 522.067 493.73 522.795 493.73C523.542 493.73 524.179 493.903 524.706 494.248C525.234 494.589 525.633 495.079 525.903 495.718C526.174 496.357 526.298 497.12 526.274 498.007H525.224V497.643C525.206 496.663 524.993 495.923 524.587 495.424C524.186 494.925 523.598 494.675 522.823 494.675C522.011 494.675 521.388 494.939 520.954 495.466C520.525 495.993 520.31 496.745 520.31 497.72C520.31 498.672 520.525 499.412 520.954 499.939C521.388 500.462 522.002 500.723 522.795 500.723C523.337 500.723 523.808 500.599 524.209 500.352C524.615 500.1 524.935 499.738 525.168 499.267L526.127 499.638C525.829 500.296 525.388 500.807 524.804 501.171C524.226 501.53 523.57 501.71 522.837 501.71ZM519.946 498.007V497.146H525.721V498.007H519.946ZM527.968 501.5V491.21H528.997V501.5H527.968ZM534.252 501.71C533.501 501.71 532.859 501.54 532.327 501.199C531.795 500.858 531.387 500.387 531.102 499.785C530.818 499.183 530.675 498.492 530.675 497.713C530.675 496.92 530.82 496.224 531.109 495.627C531.399 495.03 531.809 494.565 532.341 494.234C532.878 493.898 533.515 493.73 534.252 493.73C535.008 493.73 535.652 493.9 536.184 494.241C536.721 494.577 537.129 495.046 537.409 495.648C537.694 496.245 537.836 496.934 537.836 497.713C537.836 498.506 537.694 499.204 537.409 499.806C537.125 500.403 536.714 500.87 536.177 501.206C535.641 501.542 534.999 501.71 534.252 501.71ZM534.252 500.723C535.092 500.723 535.718 500.445 536.128 499.89C536.539 499.33 536.744 498.604 536.744 497.713C536.744 496.798 536.537 496.07 536.121 495.529C535.711 494.988 535.088 494.717 534.252 494.717C533.688 494.717 533.221 494.845 532.852 495.102C532.488 495.354 532.215 495.706 532.033 496.159C531.856 496.607 531.767 497.125 531.767 497.713C531.767 498.623 531.977 499.353 532.397 499.904C532.817 500.45 533.436 500.723 534.252 500.723ZM542.775 501.71C542.08 501.71 541.492 501.535 541.011 501.185C540.531 500.83 540.167 500.352 539.919 499.75C539.672 499.143 539.548 498.464 539.548 497.713C539.548 496.948 539.672 496.266 539.919 495.669C540.171 495.067 540.54 494.593 541.025 494.248C541.511 493.903 542.108 493.73 542.817 493.73C543.508 493.73 544.101 493.905 544.595 494.255C545.09 494.605 545.468 495.081 545.729 495.683C545.995 496.285 546.128 496.962 546.128 497.713C546.128 498.469 545.995 499.148 545.729 499.75C545.463 500.352 545.081 500.83 544.581 501.185C544.082 501.535 543.48 501.71 542.775 501.71ZM539.373 504.86V493.94H540.297V499.631H540.409V504.86H539.373ZM542.67 500.751C543.198 500.751 543.636 500.618 543.986 500.352C544.336 500.086 544.598 499.724 544.77 499.267C544.948 498.805 545.036 498.287 545.036 497.713C545.036 497.144 544.95 496.63 544.777 496.173C544.605 495.716 544.341 495.354 543.986 495.088C543.636 494.822 543.191 494.689 542.649 494.689C542.122 494.689 541.683 494.817 541.333 495.074C540.988 495.331 540.729 495.688 540.556 496.145C540.384 496.598 540.297 497.12 540.297 497.713C540.297 498.296 540.384 498.819 540.556 499.281C540.729 499.738 540.99 500.098 541.34 500.359C541.69 500.62 542.134 500.751 542.67 500.751Z" fill="#E6E6E6"/>
</svg>
