<svg width="721" height="668" viewBox="0 0 721 668" fill="none" xmlns="http://www.w3.org/2000/svg">
<path d="M129 539C129 539 473.5 507.5 473.5 406C473.5 304.5 65.43 313.793 74.4998 206C87.4996 51.4998 412.5 44.9998 526.5 63.5C576.666 74.8333 658.591 83.8092 688 53C719.5 20 720 0 720 0" stroke="#333333"/>
<circle cx="75.5" cy="592" r="75.5" fill="#2B2B2B"/>
<circle cx="520.5" cy="464" r="75.5" fill="#2B2B2B"/>
<circle cx="130.5" cy="257" r="75.5" fill="#2B2B2B"/>
<circle cx="584.5" cy="112" r="75.5" fill="#2B2B2B"/>
<circle cx="526.5" cy="64" r="6.5" fill="#53E0CF"/>
<circle cx="75.5" cy="206" r="6.5" fill="#F7E64F"/>
<circle cx="473.5" cy="406" r="6.5" fill="#A2E053"/>
<circle cx="128.5" cy="539" r="6.5" fill="#F7AA4F"/>
<path opacity="0.35" d="M89.2463 582.641L85.3333 580.706V568.377C85.3333 565.393 84.1479 562.53 82.0363 560.42L79.1616 557.543C77.4163 555.798 74.5859 555.798 72.8406 557.543L69.9636 560.42C67.8519 562.532 66.6666 565.393 66.6666 568.377V580.706L62.7536 582.641C60.8076 583.602 59.4169 585.415 58.9899 587.543L58.3133 590.936C57.8069 593.47 59.7436 595.833 62.3266 595.833H89.6733C92.2563 595.833 94.1952 593.47 93.6889 590.936L93.0099 587.543C92.5829 585.415 91.1922 583.602 89.2463 582.641Z" fill="#F7AA4F"/>
<path d="M75.9999 574.833C78.5772 574.833 80.6666 572.744 80.6666 570.167C80.6666 567.589 78.5772 565.5 75.9999 565.5C73.4226 565.5 71.3333 567.589 71.3333 570.167C71.3333 572.744 73.4226 574.833 75.9999 574.833Z" fill="#F7AA4F"/>
<path d="M69 595.833C69 598.127 70.6893 600.981 72.409 603.293C74.208 605.715 77.792 605.715 79.5933 603.293C81.3107 600.981 83 598.127 83 595.833H69Z" fill="#F7AA4F"/>
<path d="M53.12 628.5V618.42H54.149V627.513H58.937V628.5H53.12ZM62.2934 628.71C61.7241 628.71 61.2457 628.607 60.8584 628.402C60.4757 628.197 60.1887 627.924 59.9974 627.583C59.8061 627.242 59.7104 626.871 59.7104 626.47C59.7104 626.059 59.7921 625.709 59.9554 625.42C60.1234 625.126 60.3497 624.886 60.6344 624.699C60.9237 624.512 61.2574 624.37 61.6354 624.272C62.0181 624.179 62.4404 624.097 62.9024 624.027C63.3691 623.952 63.8241 623.889 64.2674 623.838C64.7154 623.782 65.1074 623.728 65.4434 623.677L65.0794 623.901C65.0934 623.154 64.9487 622.601 64.6454 622.242C64.3421 621.883 63.8147 621.703 63.0634 621.703C62.5454 621.703 62.1067 621.82 61.7474 622.053C61.3927 622.286 61.1431 622.655 60.9984 623.159L59.9974 622.865C60.1701 622.188 60.5177 621.663 61.0404 621.29C61.5631 620.917 62.2421 620.73 63.0774 620.73C63.7681 620.73 64.3537 620.861 64.8344 621.122C65.3197 621.379 65.6627 621.752 65.8634 622.242C65.9567 622.461 66.0174 622.706 66.0454 622.977C66.0734 623.248 66.0874 623.523 66.0874 623.803V628.5H65.1704V626.603L65.4364 626.715C65.1797 627.364 64.7807 627.858 64.2394 628.199C63.6981 628.54 63.0494 628.71 62.2934 628.71ZM62.4124 627.821C62.8931 627.821 63.3131 627.735 63.6724 627.562C64.0317 627.389 64.3211 627.154 64.5404 626.855C64.7597 626.552 64.9021 626.211 64.9674 625.833C65.0234 625.59 65.0537 625.324 65.0584 625.035C65.0631 624.741 65.0654 624.522 65.0654 624.377L65.4574 624.58C65.1074 624.627 64.7271 624.673 64.3164 624.72C63.9104 624.767 63.5091 624.82 63.1124 624.881C62.7204 624.942 62.3657 625.014 62.0484 625.098C61.8337 625.159 61.6261 625.245 61.4254 625.357C61.2247 625.464 61.0591 625.609 60.9284 625.791C60.8024 625.973 60.7394 626.199 60.7394 626.47C60.7394 626.689 60.7931 626.902 60.9004 627.107C61.0124 627.312 61.1897 627.483 61.4324 627.618C61.6797 627.753 62.0064 627.821 62.4124 627.821ZM70.8007 628.689C70.348 628.689 69.9514 628.619 69.6107 628.479C69.2747 628.339 68.9877 628.15 68.7497 627.912C68.5164 627.674 68.3274 627.403 68.1827 627.1C68.038 626.792 67.933 626.468 67.8677 626.127C67.8024 625.782 67.7697 625.439 67.7697 625.098V620.94H68.8057V624.797C68.8057 625.212 68.8454 625.597 68.9247 625.952C69.004 626.307 69.13 626.617 69.3027 626.883C69.48 627.144 69.7064 627.347 69.9817 627.492C70.2617 627.637 70.6 627.709 70.9967 627.709C71.3607 627.709 71.6804 627.646 71.9557 627.52C72.2357 627.394 72.469 627.214 72.6557 626.981C72.847 626.743 72.9917 626.456 73.0897 626.12C73.1877 625.779 73.2367 625.397 73.2367 624.972L73.9647 625.133C73.9647 625.908 73.8294 626.559 73.5587 627.086C73.288 627.613 72.9147 628.012 72.4387 628.283C71.9627 628.554 71.4167 628.689 70.8007 628.689ZM73.3417 628.5V626.638H73.2367V620.94H74.2657V628.5H73.3417ZM81.6822 628.5V624.643C81.6822 624.223 81.6425 623.838 81.5632 623.488C81.4839 623.133 81.3555 622.825 81.1782 622.564C81.0055 622.298 80.7792 622.093 80.4992 621.948C80.2239 621.803 79.8879 621.731 79.4912 621.731C79.1272 621.731 78.8052 621.794 78.5252 621.92C78.2499 622.046 78.0165 622.228 77.8252 622.466C77.6385 622.699 77.4962 622.984 77.3982 623.32C77.3002 623.656 77.2512 624.039 77.2512 624.468L76.5232 624.307C76.5232 623.532 76.6585 622.881 76.9292 622.354C77.1999 621.827 77.5732 621.428 78.0492 621.157C78.5252 620.886 79.0712 620.751 79.6872 620.751C80.1399 620.751 80.5342 620.821 80.8702 620.961C81.2109 621.101 81.4979 621.29 81.7312 621.528C81.9692 621.766 82.1605 622.039 82.3052 622.347C82.4499 622.65 82.5549 622.975 82.6202 623.32C82.6855 623.661 82.7182 624.001 82.7182 624.342V628.5H81.6822ZM76.2152 628.5V620.94H77.1462V622.802H77.2512V628.5H76.2152ZM87.6297 628.71C86.869 628.71 86.225 628.54 85.6977 628.199C85.1703 627.858 84.769 627.389 84.4937 626.792C84.223 626.19 84.083 625.499 84.0737 624.72C84.083 623.927 84.2277 623.231 84.5077 622.634C84.7877 622.032 85.1913 621.565 85.7187 621.234C86.246 620.898 86.8853 620.73 87.6367 620.73C88.402 620.73 89.067 620.917 89.6317 621.29C90.201 621.663 90.5907 622.174 90.8007 622.823L89.7927 623.145C89.6153 622.692 89.333 622.342 88.9457 622.095C88.563 621.843 88.1243 621.717 87.6297 621.717C87.0743 621.717 86.6147 621.845 86.2507 622.102C85.8867 622.354 85.616 622.706 85.4387 623.159C85.2613 623.612 85.1703 624.132 85.1657 624.72C85.175 625.625 85.385 626.353 85.7957 626.904C86.2063 627.45 86.8177 627.723 87.6297 627.723C88.143 627.723 88.5793 627.606 88.9387 627.373C89.3027 627.135 89.578 626.79 89.7647 626.337L90.8007 626.645C90.5207 627.317 90.11 627.83 89.5687 628.185C89.0273 628.535 88.381 628.71 87.6297 628.71ZM97.7056 628.5V624.643C97.7056 624.223 97.666 623.838 97.5866 623.488C97.5073 623.133 97.379 622.825 97.2016 622.564C97.029 622.298 96.8026 622.093 96.5226 621.948C96.2473 621.803 95.9113 621.731 95.5146 621.731C95.1506 621.731 94.8286 621.794 94.5486 621.92C94.2733 622.046 94.04 622.228 93.8486 622.466C93.662 622.699 93.5196 622.984 93.4216 623.32C93.3236 623.656 93.2746 624.039 93.2746 624.468L92.5466 624.307C92.5466 623.532 92.682 622.881 92.9526 622.354C93.2233 621.827 93.5966 621.428 94.0726 621.157C94.5486 620.886 95.0946 620.751 95.7106 620.751C96.1633 620.751 96.5576 620.821 96.8936 620.961C97.2343 621.101 97.5213 621.29 97.7546 621.528C97.9926 621.766 98.184 622.039 98.3286 622.347C98.4733 622.65 98.5783 622.975 98.6436 623.32C98.709 623.661 98.7416 624.001 98.7416 624.342V628.5H97.7056ZM92.2386 628.5V618.42H93.1696V624.111H93.2746V628.5H92.2386Z" fill="#E6E6E6"/>
<path opacity="0.35" d="M585 76.1667C572.113 76.1667 561.667 86.613 561.667 99.5C561.667 103.215 562.558 106.712 564.1 109.83L561.755 119.207C561.221 121.342 563.155 123.279 565.293 122.745L574.67 120.4C577.788 121.942 581.285 122.833 585 122.833C597.887 122.833 608.333 112.387 608.333 99.5C608.333 86.613 597.887 76.1667 585 76.1667Z" fill="#53E0CF"/>
<path fill-rule="evenodd" clip-rule="evenodd" d="M583.56 89.2683C583.843 88.7363 584.396 88.4027 585 88.4027C585.604 88.4027 586.157 88.7363 586.44 89.2683L589.172 94.4227C589.202 94.4833 589.249 94.5347 589.303 94.5743C589.356 94.614 589.419 94.6397 589.487 94.6513L595.234 95.657C595.829 95.762 596.317 96.1843 596.503 96.7583C596.69 97.3323 596.543 97.9623 596.125 98.3963L592.068 102.589C592.021 102.638 591.986 102.697 591.965 102.76C591.944 102.825 591.937 102.893 591.949 102.958L592.768 108.735C592.852 109.333 592.6 109.928 592.112 110.282C591.624 110.637 590.98 110.693 590.437 110.427L585.196 107.863C585.135 107.832 585.068 107.818 585 107.818C584.932 107.818 584.867 107.835 584.804 107.863L579.563 110.427C579.022 110.693 578.378 110.637 577.888 110.282C577.4 109.928 577.148 109.333 577.232 108.735L578.051 102.958C578.061 102.89 578.056 102.823 578.035 102.76C578.014 102.694 577.979 102.636 577.932 102.589L573.875 98.3963C573.455 97.9623 573.31 97.3323 573.497 96.7583C573.683 96.1843 574.171 95.7597 574.766 95.657L580.513 94.6513C580.581 94.6397 580.644 94.614 580.697 94.5743C580.751 94.5347 580.798 94.4833 580.828 94.4227L583.56 89.2683Z" fill="#53E0CF"/>
<path d="M562.98 148.5V138.42H566.872C566.97 138.42 567.08 138.425 567.201 138.434C567.327 138.439 567.453 138.453 567.579 138.476C568.106 138.555 568.552 138.74 568.916 139.029C569.285 139.314 569.562 139.673 569.749 140.107C569.94 140.541 570.036 141.022 570.036 141.549C570.036 142.31 569.835 142.97 569.434 143.53C569.033 144.09 568.459 144.442 567.712 144.587L567.355 144.671H564.009V148.5H562.98ZM569.084 148.5L567.096 144.398L568.083 144.02L570.267 148.5H569.084ZM564.009 143.691H566.844C566.928 143.691 567.026 143.686 567.138 143.677C567.25 143.668 567.36 143.651 567.467 143.628C567.812 143.553 568.095 143.411 568.314 143.201C568.538 142.991 568.704 142.741 568.811 142.452C568.923 142.163 568.979 141.862 568.979 141.549C568.979 141.236 568.923 140.935 568.811 140.646C568.704 140.352 568.538 140.1 568.314 139.89C568.095 139.68 567.812 139.538 567.467 139.463C567.36 139.44 567.25 139.426 567.138 139.421C567.026 139.412 566.928 139.407 566.844 139.407H564.009V143.691ZM575.011 148.71C574.274 148.71 573.634 148.547 573.093 148.22C572.556 147.893 572.139 147.434 571.84 146.841C571.541 146.248 571.392 145.553 571.392 144.755C571.392 143.929 571.539 143.215 571.833 142.613C572.127 142.011 572.54 141.547 573.072 141.22C573.609 140.893 574.241 140.73 574.969 140.73C575.716 140.73 576.353 140.903 576.88 141.248C577.407 141.589 577.806 142.079 578.077 142.718C578.348 143.357 578.471 144.12 578.448 145.007H577.398V144.643C577.379 143.663 577.167 142.923 576.761 142.424C576.36 141.925 575.772 141.675 574.997 141.675C574.185 141.675 573.562 141.939 573.128 142.466C572.699 142.993 572.484 143.745 572.484 144.72C572.484 145.672 572.699 146.412 573.128 146.939C573.562 147.462 574.176 147.723 574.969 147.723C575.51 147.723 575.982 147.599 576.383 147.352C576.789 147.1 577.109 146.738 577.342 146.267L578.301 146.638C578.002 147.296 577.561 147.807 576.978 148.171C576.399 148.53 575.744 148.71 575.011 148.71ZM572.12 145.007V144.146H577.895V145.007H572.12ZM581.772 148.5L579.028 140.94H580.071L582.304 147.156L584.523 140.94H585.58L582.836 148.5H581.772ZM586.977 139.505V138.35H588.006V139.505H586.977ZM586.977 148.5V140.94H588.006V148.5H586.977ZM593.304 148.71C592.567 148.71 591.927 148.547 591.386 148.22C590.849 147.893 590.432 147.434 590.133 146.841C589.834 146.248 589.685 145.553 589.685 144.755C589.685 143.929 589.832 143.215 590.126 142.613C590.42 142.011 590.833 141.547 591.365 141.22C591.902 140.893 592.534 140.73 593.262 140.73C594.009 140.73 594.646 140.903 595.173 141.248C595.7 141.589 596.099 142.079 596.37 142.718C596.641 143.357 596.764 144.12 596.741 145.007H595.691V144.643C595.672 143.663 595.46 142.923 595.054 142.424C594.653 141.925 594.065 141.675 593.29 141.675C592.478 141.675 591.855 141.939 591.421 142.466C590.992 142.993 590.777 143.745 590.777 144.72C590.777 145.672 590.992 146.412 591.421 146.939C591.855 147.462 592.469 147.723 593.262 147.723C593.803 147.723 594.275 147.599 594.676 147.352C595.082 147.1 595.402 146.738 595.635 146.267L596.594 146.638C596.295 147.296 595.854 147.807 595.271 148.171C594.692 148.53 594.037 148.71 593.304 148.71ZM590.413 145.007V144.146H596.188V145.007H590.413ZM599.631 148.5L597.321 140.933L598.35 140.94L600.142 146.813L601.941 140.94H602.879L604.678 146.813L606.484 140.94H607.506L605.196 148.5H604.3L602.41 142.48L600.527 148.5H599.631Z" fill="#E6E6E6"/>
<path opacity="0.35" d="M145 265.5H117C113.134 265.5 110 262.366 110 258.5V232.833H152V258.5C152 262.366 148.866 265.5 145 265.5Z" fill="#F7E64F"/>
<path d="M152 232.833H110V230.5C110 226.634 113.134 223.5 117 223.5H145C148.866 223.5 152 226.634 152 230.5V232.833Z" fill="#F7E64F"/>
<path d="M128.669 260.833C128.48 260.833 128.291 260.812 128.1 260.763C126.849 260.451 126.091 259.184 126.401 257.933L131.068 239.266C131.38 238.016 132.652 237.26 133.898 237.568C135.149 237.88 135.907 239.147 135.597 240.398L130.93 259.065C130.664 260.126 129.714 260.833 128.669 260.833Z" fill="#F7E64F"/>
<path d="M140.333 256.167C139.736 256.167 139.139 255.938 138.684 255.483C137.771 254.571 137.771 253.096 138.684 252.184L141.701 249.167L138.684 246.15C137.771 245.237 137.771 243.763 138.684 242.85C139.596 241.938 141.071 241.938 141.983 242.85L146.65 247.517C147.562 248.429 147.562 249.904 146.65 250.816L141.983 255.483C141.528 255.938 140.931 256.167 140.333 256.167Z" fill="#F7E64F"/>
<path d="M121.667 256.167C121.069 256.167 120.472 255.938 120.017 255.483L115.35 250.816C114.438 249.904 114.438 248.429 115.35 247.517L120.017 242.85C120.929 241.938 122.404 241.938 123.316 242.85C124.229 243.763 124.229 245.237 123.316 246.15L120.299 249.167L123.316 252.184C124.229 253.096 124.229 254.571 123.316 255.483C122.861 255.938 122.264 256.167 121.667 256.167Z" fill="#F7E64F"/>
<path d="M105.48 293.5V283.42H108.539C108.646 283.42 108.828 283.422 109.085 283.427C109.346 283.432 109.596 283.45 109.834 283.483C110.599 283.59 111.239 283.875 111.752 284.337C112.265 284.799 112.65 285.387 112.907 286.101C113.164 286.815 113.292 287.601 113.292 288.46C113.292 289.319 113.164 290.105 112.907 290.819C112.65 291.533 112.265 292.121 111.752 292.583C111.239 293.045 110.599 293.33 109.834 293.437C109.601 293.465 109.351 293.484 109.085 293.493C108.819 293.498 108.637 293.5 108.539 293.5H105.48ZM106.544 292.513H108.539C108.73 292.513 108.936 292.508 109.155 292.499C109.379 292.485 109.57 292.462 109.729 292.429C110.317 292.326 110.791 292.088 111.15 291.715C111.514 291.342 111.78 290.875 111.948 290.315C112.116 289.75 112.2 289.132 112.2 288.46C112.2 287.783 112.116 287.163 111.948 286.598C111.78 286.033 111.514 285.567 111.15 285.198C110.786 284.829 110.312 284.594 109.729 284.491C109.57 284.458 109.377 284.437 109.148 284.428C108.924 284.414 108.721 284.407 108.539 284.407H106.544V292.513ZM118.085 293.71C117.348 293.71 116.709 293.547 116.167 293.22C115.631 292.893 115.213 292.434 114.914 291.841C114.616 291.248 114.466 290.553 114.466 289.755C114.466 288.929 114.613 288.215 114.907 287.613C115.201 287.011 115.614 286.547 116.146 286.22C116.683 285.893 117.315 285.73 118.043 285.73C118.79 285.73 119.427 285.903 119.954 286.248C120.482 286.589 120.881 287.079 121.151 287.718C121.422 288.357 121.546 289.12 121.522 290.007H120.472V289.643C120.454 288.663 120.241 287.923 119.835 287.424C119.434 286.925 118.846 286.675 118.071 286.675C117.259 286.675 116.636 286.939 116.202 287.466C115.773 287.993 115.558 288.745 115.558 289.72C115.558 290.672 115.773 291.412 116.202 291.939C116.636 292.462 117.25 292.723 118.043 292.723C118.585 292.723 119.056 292.599 119.457 292.352C119.863 292.1 120.183 291.738 120.416 291.267L121.375 291.638C121.077 292.296 120.636 292.807 120.052 293.171C119.474 293.53 118.818 293.71 118.085 293.71ZM115.194 290.007V289.146H120.969V290.007H115.194ZM124.846 293.5L122.102 285.94H123.145L125.378 292.156L127.597 285.94H128.654L125.91 293.5H124.846ZM132.837 293.71C132.1 293.71 131.461 293.547 130.919 293.22C130.383 292.893 129.965 292.434 129.666 291.841C129.368 291.248 129.218 290.553 129.218 289.755C129.218 288.929 129.365 288.215 129.659 287.613C129.953 287.011 130.366 286.547 130.898 286.22C131.435 285.893 132.067 285.73 132.795 285.73C133.542 285.73 134.179 285.903 134.706 286.248C135.234 286.589 135.633 287.079 135.903 287.718C136.174 288.357 136.298 289.12 136.274 290.007H135.224V289.643C135.206 288.663 134.993 287.923 134.587 287.424C134.186 286.925 133.598 286.675 132.823 286.675C132.011 286.675 131.388 286.939 130.954 287.466C130.525 287.993 130.31 288.745 130.31 289.72C130.31 290.672 130.525 291.412 130.954 291.939C131.388 292.462 132.002 292.723 132.795 292.723C133.337 292.723 133.808 292.599 134.209 292.352C134.615 292.1 134.935 291.738 135.168 291.267L136.127 291.638C135.829 292.296 135.388 292.807 134.804 293.171C134.226 293.53 133.57 293.71 132.837 293.71ZM129.946 290.007V289.146H135.721V290.007H129.946ZM137.968 293.5V283.21H138.997V293.5H137.968ZM144.252 293.71C143.501 293.71 142.859 293.54 142.327 293.199C141.795 292.858 141.387 292.387 141.102 291.785C140.818 291.183 140.675 290.492 140.675 289.713C140.675 288.92 140.82 288.224 141.109 287.627C141.399 287.03 141.809 286.565 142.341 286.234C142.878 285.898 143.515 285.73 144.252 285.73C145.008 285.73 145.652 285.9 146.184 286.241C146.721 286.577 147.129 287.046 147.409 287.648C147.694 288.245 147.836 288.934 147.836 289.713C147.836 290.506 147.694 291.204 147.409 291.806C147.125 292.403 146.714 292.87 146.177 293.206C145.641 293.542 144.999 293.71 144.252 293.71ZM144.252 292.723C145.092 292.723 145.718 292.445 146.128 291.89C146.539 291.33 146.744 290.604 146.744 289.713C146.744 288.798 146.537 288.07 146.121 287.529C145.711 286.988 145.088 286.717 144.252 286.717C143.688 286.717 143.221 286.845 142.852 287.102C142.488 287.354 142.215 287.706 142.033 288.159C141.856 288.607 141.767 289.125 141.767 289.713C141.767 290.623 141.977 291.353 142.397 291.904C142.817 292.45 143.436 292.723 144.252 292.723ZM152.775 293.71C152.08 293.71 151.492 293.535 151.011 293.185C150.531 292.83 150.167 292.352 149.919 291.75C149.672 291.143 149.548 290.464 149.548 289.713C149.548 288.948 149.672 288.266 149.919 287.669C150.171 287.067 150.54 286.593 151.025 286.248C151.511 285.903 152.108 285.73 152.817 285.73C153.508 285.73 154.101 285.905 154.595 286.255C155.09 286.605 155.468 287.081 155.729 287.683C155.995 288.285 156.128 288.962 156.128 289.713C156.128 290.469 155.995 291.148 155.729 291.75C155.463 292.352 155.081 292.83 154.581 293.185C154.082 293.535 153.48 293.71 152.775 293.71ZM149.373 296.86V285.94H150.297V291.631H150.409V296.86H149.373ZM152.67 292.751C153.198 292.751 153.636 292.618 153.986 292.352C154.336 292.086 154.598 291.724 154.77 291.267C154.948 290.805 155.036 290.287 155.036 289.713C155.036 289.144 154.95 288.63 154.777 288.173C154.605 287.716 154.341 287.354 153.986 287.088C153.636 286.822 153.191 286.689 152.649 286.689C152.122 286.689 151.683 286.817 151.333 287.074C150.988 287.331 150.729 287.688 150.556 288.145C150.384 288.598 150.297 289.12 150.297 289.713C150.297 290.296 150.384 290.819 150.556 291.281C150.729 291.738 150.99 292.098 151.34 292.359C151.69 292.62 152.134 292.751 152.67 292.751Z" fill="#E6E6E6"/>
<path opacity="0.35" d="M535 472.5H507C503.134 472.5 500 469.366 500 465.5V439.833H542V465.5C542 469.366 538.866 472.5 535 472.5Z" fill="#A2E053"/>
<path d="M535 430.5H507C503.134 430.5 500 433.634 500 437.5V439.833H542V437.5C542 433.634 538.866 430.5 535 430.5Z" fill="#A2E053"/>
<path d="M528 453.833C527.403 453.833 526.805 453.605 526.35 453.15L524.017 450.816C523.105 449.904 523.105 448.429 524.017 447.517C524.929 446.605 526.404 446.605 527.316 447.517L528 448.201L531.017 445.184C531.929 444.271 533.404 444.271 534.316 445.184C535.229 446.096 535.229 447.571 534.316 448.483L529.65 453.15C529.195 453.605 528.597 453.833 528 453.833Z" fill="#A2E053"/>
<path d="M516.333 446.833C515.899 446.833 509.767 446.833 509.333 446.833C508.045 446.833 507 447.879 507 449.167C507 450.455 508.045 451.5 509.333 451.5C509.767 451.5 515.899 451.5 516.333 451.5C517.621 451.5 518.667 450.455 518.667 449.167C518.667 447.879 517.621 446.833 516.333 446.833Z" fill="#A2E053"/>
<path d="M528 465.5C527.403 465.5 526.805 465.271 526.35 464.816L524.017 462.483C523.105 461.571 523.105 460.096 524.017 459.184C524.929 458.271 526.404 458.271 527.316 459.184L528 459.867L531.017 456.85C531.929 455.938 533.404 455.938 534.316 456.85C535.229 457.763 535.229 459.237 534.316 460.15L529.65 464.816C529.195 465.271 528.597 465.5 528 465.5Z" fill="#A2E053"/>
<path d="M516.333 458.5C515.899 458.5 509.767 458.5 509.333 458.5C508.045 458.5 507 459.545 507 460.833C507 462.121 508.045 463.167 509.333 463.167C509.767 463.167 515.899 463.167 516.333 463.167C517.621 463.167 518.667 462.121 518.667 460.833C518.667 459.545 517.621 458.5 516.333 458.5Z" fill="#A2E053"/>
<path d="M510.161 500.5V491.407H506.64V490.42H514.711V491.407H511.19V500.5H510.161ZM517.911 500.71C517.174 500.71 516.535 500.547 515.993 500.22C515.457 499.893 515.039 499.434 514.74 498.841C514.442 498.248 514.292 497.553 514.292 496.755C514.292 495.929 514.439 495.215 514.733 494.613C515.027 494.011 515.44 493.547 515.972 493.22C516.509 492.893 517.141 492.73 517.869 492.73C518.616 492.73 519.253 492.903 519.78 493.248C520.308 493.589 520.707 494.079 520.977 494.718C521.248 495.357 521.372 496.12 521.348 497.007H520.298V496.643C520.28 495.663 520.067 494.923 519.661 494.424C519.26 493.925 518.672 493.675 517.897 493.675C517.085 493.675 516.462 493.939 516.028 494.466C515.599 494.993 515.384 495.745 515.384 496.72C515.384 497.672 515.599 498.412 516.028 498.939C516.462 499.462 517.076 499.723 517.869 499.723C518.411 499.723 518.882 499.599 519.283 499.352C519.689 499.1 520.009 498.738 520.242 498.267L521.201 498.638C520.903 499.296 520.462 499.807 519.878 500.171C519.3 500.53 518.644 500.71 517.911 500.71ZM515.02 497.007V496.146H520.795V497.007H515.02ZM525.723 500.703C524.836 500.703 524.106 500.512 523.532 500.129C522.963 499.746 522.613 499.214 522.482 498.533L523.532 498.358C523.644 498.787 523.898 499.13 524.295 499.387C524.696 499.639 525.191 499.765 525.779 499.765C526.353 499.765 526.806 499.646 527.137 499.408C527.468 499.165 527.634 498.836 527.634 498.421C527.634 498.188 527.58 497.999 527.473 497.854C527.37 497.705 527.158 497.567 526.836 497.441C526.514 497.315 526.033 497.166 525.394 496.993C524.708 496.806 524.171 496.62 523.784 496.433C523.397 496.246 523.121 496.032 522.958 495.789C522.795 495.542 522.713 495.241 522.713 494.886C522.713 494.457 522.834 494.081 523.077 493.759C523.32 493.432 523.656 493.18 524.085 493.003C524.514 492.821 525.014 492.73 525.583 492.73C526.152 492.73 526.661 492.823 527.109 493.01C527.562 493.192 527.926 493.449 528.201 493.78C528.476 494.111 528.64 494.496 528.691 494.935L527.641 495.124C527.571 494.681 527.349 494.331 526.976 494.074C526.607 493.813 526.138 493.677 525.569 493.668C525.032 493.654 524.596 493.757 524.26 493.976C523.924 494.191 523.756 494.478 523.756 494.837C523.756 495.038 523.817 495.21 523.938 495.355C524.059 495.495 524.279 495.628 524.596 495.754C524.918 495.88 525.375 496.018 525.968 496.167C526.663 496.344 527.209 496.531 527.606 496.727C528.003 496.923 528.285 497.154 528.453 497.42C528.621 497.686 528.705 498.015 528.705 498.407C528.705 499.121 528.439 499.683 527.907 500.094C527.38 500.5 526.652 500.703 525.723 500.703ZM534.373 500.5C533.949 500.589 533.529 500.624 533.113 500.605C532.703 500.586 532.334 500.498 532.007 500.339C531.685 500.18 531.44 499.933 531.272 499.597C531.137 499.317 531.062 499.035 531.048 498.75C531.039 498.461 531.034 498.132 531.034 497.763V490.84H532.056V497.721C532.056 498.038 532.059 498.304 532.063 498.519C532.073 498.729 532.122 498.916 532.21 499.079C532.378 499.392 532.644 499.578 533.008 499.639C533.377 499.7 533.832 499.686 534.373 499.597V500.5ZM529.417 493.822V492.94H534.373V493.822H529.417Z" fill="#E6E6E6"/>
</svg>
