<svg width="714" height="669" viewBox="0 0 714 669" fill="none" xmlns="http://www.w3.org/2000/svg">
<path d="M129 540C129 540 473.5 508.5 473.5 407C473.5 305.5 65.43 314.793 74.4998 207C87.4996 52.4998 412.5 45.9998 526.5 64.5C576.666 75.8333 656.142 82.2687 688 54C723.5 22.5 719.5 1 719.5 1" stroke="#333333"/>
<circle cx="75.5" cy="593" r="75.5" fill="#2B2B2B"/>
<circle cx="520.5" cy="465" r="75.5" fill="#2B2B2B"/>
<circle cx="130.5" cy="258.5" r="75.5" fill="#2B2B2B"/>
<circle cx="584.5" cy="113" r="75.5" fill="#2B2B2B"/>
<circle cx="526.5" cy="65" r="6.5" fill="#A2E053"/>
<circle cx="75.5" cy="207" r="6.5" fill="#ADA1FF"/>
<circle cx="473.5" cy="407" r="6.5" fill="#F7E64F"/>
<circle cx="128.5" cy="540" r="6.5" fill="#F7AA4F"/>
<path opacity="0.35" d="M76.0001 557.167C63.1131 557.167 52.6667 567.613 52.6667 580.5C52.6667 583.078 54.7551 585.167 57.3334 585.167H66.6667C69.2451 585.167 71.3334 587.255 71.3334 589.833V599.167C71.3334 601.745 73.4217 603.833 76.0001 603.833C88.8871 603.833 99.3334 593.387 99.3334 580.5C99.3334 567.613 88.8871 557.167 76.0001 557.167ZM80.6667 596.833C78.0884 596.833 76.0001 594.745 76.0001 592.167C76.0001 589.588 78.0884 587.5 80.6667 587.5C83.2451 587.5 85.3334 589.588 85.3334 592.167C85.3334 594.745 83.2451 596.833 80.6667 596.833Z" fill="#F7AA4F"/>
<path d="M63.1667 580.5C65.0997 580.5 66.6667 578.933 66.6667 577C66.6667 575.067 65.0997 573.5 63.1667 573.5C61.2338 573.5 59.6667 575.067 59.6667 577C59.6667 578.933 61.2338 580.5 63.1667 580.5Z" fill="#F7AA4F"/>
<path d="M70.1667 571.167C72.0997 571.167 73.6667 569.6 73.6667 567.667C73.6667 565.734 72.0997 564.167 70.1667 564.167C68.2338 564.167 66.6667 565.734 66.6667 567.667C66.6667 569.6 68.2338 571.167 70.1667 571.167Z" fill="#F7AA4F"/>
<path d="M81.8333 571.167C83.7663 571.167 85.3333 569.6 85.3333 567.667C85.3333 565.734 83.7663 564.167 81.8333 564.167C79.9003 564.167 78.3333 565.734 78.3333 567.667C78.3333 569.6 79.9003 571.167 81.8333 571.167Z" fill="#F7AA4F"/>
<path d="M88.8333 582.833C90.7662 582.833 92.3333 581.266 92.3333 579.333C92.3333 577.4 90.7662 575.833 88.8333 575.833C86.9003 575.833 85.3333 577.4 85.3333 579.333C85.3333 581.266 86.9003 582.833 88.8333 582.833Z" fill="#F7AA4F"/>
<path d="M54.48 629.5V619.42H57.539C57.6463 619.42 57.8283 619.422 58.085 619.427C58.3463 619.432 58.596 619.45 58.834 619.483C59.5993 619.59 60.2387 619.875 60.752 620.337C61.2653 620.799 61.6503 621.387 61.907 622.101C62.1637 622.815 62.292 623.601 62.292 624.46C62.292 625.319 62.1637 626.105 61.907 626.819C61.6503 627.533 61.2653 628.121 60.752 628.583C60.2387 629.045 59.5993 629.33 58.834 629.437C58.6007 629.465 58.351 629.484 58.085 629.493C57.819 629.498 57.637 629.5 57.539 629.5H54.48ZM55.544 628.513H57.539C57.7303 628.513 57.9357 628.508 58.155 628.499C58.379 628.485 58.5703 628.462 58.729 628.429C59.317 628.326 59.7907 628.088 60.15 627.715C60.514 627.342 60.78 626.875 60.948 626.315C61.116 625.75 61.2 625.132 61.2 624.46C61.2 623.783 61.116 623.163 60.948 622.598C60.78 622.033 60.514 621.567 60.15 621.198C59.786 620.829 59.3123 620.594 58.729 620.491C58.5703 620.458 58.3767 620.437 58.148 620.428C57.924 620.414 57.721 620.407 57.539 620.407H55.544V628.513ZM67.0853 629.71C66.3479 629.71 65.7086 629.547 65.1673 629.22C64.6306 628.893 64.2129 628.434 63.9143 627.841C63.6156 627.248 63.4663 626.553 63.4663 625.755C63.4663 624.929 63.6133 624.215 63.9073 623.613C64.2013 623.011 64.6143 622.547 65.1463 622.22C65.6829 621.893 66.3153 621.73 67.0433 621.73C67.7899 621.73 68.4269 621.903 68.9543 622.248C69.4816 622.589 69.8806 623.079 70.1513 623.718C70.4219 624.357 70.5456 625.12 70.5223 626.007H69.4723V625.643C69.4536 624.663 69.2413 623.923 68.8353 623.424C68.4339 622.925 67.8459 622.675 67.0713 622.675C66.2593 622.675 65.6363 622.939 65.2023 623.466C64.7729 623.993 64.5583 624.745 64.5583 625.72C64.5583 626.672 64.7729 627.412 65.2023 627.939C65.6363 628.462 66.2499 628.723 67.0433 628.723C67.5846 628.723 68.0559 628.599 68.4573 628.352C68.8633 628.1 69.1829 627.738 69.4163 627.267L70.3753 627.638C70.0766 628.296 69.6356 628.807 69.0523 629.171C68.4736 629.53 67.8179 629.71 67.0853 629.71ZM64.1943 626.007V625.146H69.9693V626.007H64.1943ZM74.8967 629.703C74.01 629.703 73.2797 629.512 72.7057 629.129C72.1364 628.746 71.7864 628.214 71.6557 627.533L72.7057 627.358C72.8177 627.787 73.072 628.13 73.4687 628.387C73.87 628.639 74.3647 628.765 74.9527 628.765C75.5267 628.765 75.9794 628.646 76.3107 628.408C76.642 628.165 76.8077 627.836 76.8077 627.421C76.8077 627.188 76.754 626.999 76.6467 626.854C76.544 626.705 76.3317 626.567 76.0097 626.441C75.6877 626.315 75.207 626.166 74.5677 625.993C73.8817 625.806 73.345 625.62 72.9577 625.433C72.5704 625.246 72.295 625.032 72.1317 624.789C71.9684 624.542 71.8867 624.241 71.8867 623.886C71.8867 623.457 72.008 623.081 72.2507 622.759C72.4934 622.432 72.8294 622.18 73.2587 622.003C73.688 621.821 74.1874 621.73 74.7567 621.73C75.326 621.73 75.8347 621.823 76.2827 622.01C76.7354 622.192 77.0994 622.449 77.3747 622.78C77.65 623.111 77.8134 623.496 77.8647 623.935L76.8147 624.124C76.7447 623.681 76.523 623.331 76.1497 623.074C75.781 622.813 75.312 622.677 74.7427 622.668C74.206 622.654 73.7697 622.757 73.4337 622.976C73.0977 623.191 72.9297 623.478 72.9297 623.837C72.9297 624.038 72.9904 624.21 73.1117 624.355C73.233 624.495 73.4524 624.628 73.7697 624.754C74.0917 624.88 74.549 625.018 75.1417 625.167C75.837 625.344 76.383 625.531 76.7797 625.727C77.1764 625.923 77.4587 626.154 77.6267 626.42C77.7947 626.686 77.8787 627.015 77.8787 627.407C77.8787 628.121 77.6127 628.683 77.0807 629.094C76.5534 629.5 75.8254 629.703 74.8967 629.703ZM79.5712 620.505V619.35H80.6002V620.505H79.5712ZM79.5712 629.5V621.94H80.6002V629.5H79.5712ZM85.7018 633.07C85.3144 633.07 84.9318 633.012 84.5538 632.895C84.1804 632.783 83.8351 632.603 83.5177 632.356C83.2004 632.113 82.9344 631.796 82.7198 631.404L83.6508 630.886C83.8608 631.306 84.1548 631.607 84.5328 631.789C84.9154 631.976 85.3051 632.069 85.7018 632.069C86.2478 632.069 86.6888 631.966 87.0248 631.761C87.3654 631.56 87.6128 631.262 87.7668 630.865C87.9208 630.468 87.9954 629.974 87.9908 629.381V627.365H88.1098V621.94H89.0268V629.395C89.0268 629.61 89.0198 629.815 89.0058 630.011C88.9964 630.212 88.9754 630.408 88.9428 630.599C88.8541 631.164 88.6698 631.628 88.3898 631.992C88.1144 632.356 87.7504 632.627 87.2978 632.804C86.8498 632.981 86.3178 633.07 85.7018 633.07ZM85.6318 629.71C84.9271 629.71 84.3251 629.535 83.8258 629.185C83.3264 628.83 82.9438 628.352 82.6778 627.75C82.4118 627.148 82.2788 626.469 82.2788 625.713C82.2788 624.962 82.4094 624.285 82.6708 623.683C82.9368 623.081 83.3171 622.605 83.8118 622.255C84.3064 621.905 84.8991 621.73 85.5898 621.73C86.2991 621.73 86.8964 621.903 87.3818 622.248C87.8671 622.593 88.2334 623.067 88.4808 623.669C88.7328 624.266 88.8588 624.948 88.8588 625.713C88.8588 626.464 88.7351 627.143 88.4878 627.75C88.2404 628.352 87.8764 628.83 87.3958 629.185C86.9151 629.535 86.3271 629.71 85.6318 629.71ZM85.7368 628.751C86.2734 628.751 86.7168 628.62 87.0668 628.359C87.4168 628.098 87.6781 627.738 87.8508 627.281C88.0234 626.819 88.1098 626.296 88.1098 625.713C88.1098 625.12 88.0234 624.598 87.8508 624.145C87.6781 623.688 87.4168 623.331 87.0668 623.074C86.7214 622.817 86.2851 622.689 85.7578 622.689C85.2164 622.689 84.7684 622.822 84.4138 623.088C84.0591 623.354 83.7954 623.716 83.6228 624.173C83.4548 624.63 83.3708 625.144 83.3708 625.713C83.3708 626.287 83.4571 626.805 83.6298 627.267C83.8071 627.724 84.0708 628.086 84.4208 628.352C84.7708 628.618 85.2094 628.751 85.7368 628.751ZM96.4439 629.5V625.643C96.4439 625.223 96.4042 624.838 96.3249 624.488C96.2456 624.133 96.1172 623.825 95.9399 623.564C95.7672 623.298 95.5409 623.093 95.2609 622.948C94.9856 622.803 94.6496 622.731 94.2529 622.731C93.8889 622.731 93.5669 622.794 93.2869 622.92C93.0116 623.046 92.7782 623.228 92.5869 623.466C92.4002 623.699 92.2579 623.984 92.1599 624.32C92.0619 624.656 92.0129 625.039 92.0129 625.468L91.2849 625.307C91.2849 624.532 91.4202 623.881 91.6909 623.354C91.9616 622.827 92.3349 622.428 92.8109 622.157C93.2869 621.886 93.8329 621.751 94.4489 621.751C94.9016 621.751 95.2959 621.821 95.6319 621.961C95.9726 622.101 96.2596 622.29 96.4929 622.528C96.7309 622.766 96.9222 623.039 97.0669 623.347C97.2116 623.65 97.3166 623.975 97.3819 624.32C97.4472 624.661 97.4799 625.001 97.4799 625.342V629.5H96.4439ZM90.9769 629.5V621.94H91.9079V623.802H92.0129V629.5H90.9769Z" fill="#E6E6E6"/>
<path opacity="0.35" d="M595.89 108.641C600.594 105.251 603.667 99.7416 603.667 93.5C603.667 83.1913 595.309 74.8333 585 74.8333C574.691 74.8333 566.333 83.1913 566.333 93.5C566.333 99.7416 569.406 105.251 574.11 108.641L575.611 114.5H594.389L595.89 108.641Z" fill="#A2E053"/>
<path d="M593.346 118.569L594.389 114.5H575.611L576.651 118.569C577.445 121.666 580.235 123.833 583.432 123.833H586.566C589.765 123.833 592.555 121.666 593.346 118.569Z" fill="#A2E053"/>
<path d="M572.12 149.5V139.42H573.149V149.5H572.12ZM578.181 149.71C577.476 149.71 576.874 149.535 576.375 149.185C575.875 148.83 575.493 148.352 575.227 147.75C574.961 147.148 574.828 146.469 574.828 145.713C574.828 144.962 574.958 144.285 575.22 143.683C575.486 143.081 575.866 142.605 576.361 142.255C576.855 141.905 577.448 141.73 578.139 141.73C578.848 141.73 579.445 141.903 579.931 142.248C580.416 142.593 580.782 143.067 581.03 143.669C581.282 144.266 581.408 144.948 581.408 145.713C581.408 146.464 581.284 147.143 581.037 147.75C580.789 148.352 580.425 148.83 579.945 149.185C579.464 149.535 578.876 149.71 578.181 149.71ZM578.286 148.751C578.822 148.751 579.266 148.62 579.616 148.359C579.966 148.098 580.227 147.738 580.4 147.281C580.572 146.819 580.659 146.296 580.659 145.713C580.659 145.12 580.572 144.598 580.4 144.145C580.227 143.688 579.966 143.331 579.616 143.074C579.27 142.817 578.834 142.689 578.307 142.689C577.765 142.689 577.317 142.822 576.963 143.088C576.608 143.354 576.344 143.716 576.172 144.173C576.004 144.63 575.92 145.144 575.92 145.713C575.92 146.287 576.006 146.805 576.179 147.267C576.356 147.724 576.62 148.086 576.97 148.352C577.32 148.618 577.758 148.751 578.286 148.751ZM580.659 149.5V143.809H580.547V139.42H581.583V149.5H580.659ZM586.745 149.71C586.008 149.71 585.369 149.547 584.827 149.22C584.291 148.893 583.873 148.434 583.574 147.841C583.276 147.248 583.126 146.553 583.126 145.755C583.126 144.929 583.273 144.215 583.567 143.613C583.861 143.011 584.274 142.547 584.806 142.22C585.343 141.893 585.975 141.73 586.703 141.73C587.45 141.73 588.087 141.903 588.614 142.248C589.142 142.589 589.541 143.079 589.811 143.718C590.082 144.357 590.206 145.12 590.182 146.007H589.132V145.643C589.114 144.663 588.901 143.923 588.495 143.424C588.094 142.925 587.506 142.675 586.731 142.675C585.919 142.675 585.296 142.939 584.862 143.466C584.433 143.993 584.218 144.745 584.218 145.72C584.218 146.672 584.433 147.412 584.862 147.939C585.296 148.462 585.91 148.723 586.703 148.723C587.245 148.723 587.716 148.599 588.117 148.352C588.523 148.1 588.843 147.738 589.076 147.267L590.035 147.638C589.737 148.296 589.296 148.807 588.712 149.171C588.134 149.53 587.478 149.71 586.745 149.71ZM583.854 146.007V145.146H589.629V146.007H583.854ZM593.762 149.71C593.193 149.71 592.714 149.607 592.327 149.402C591.944 149.197 591.657 148.924 591.466 148.583C591.275 148.242 591.179 147.871 591.179 147.47C591.179 147.059 591.261 146.709 591.424 146.42C591.592 146.126 591.818 145.886 592.103 145.699C592.392 145.512 592.726 145.37 593.104 145.272C593.487 145.179 593.909 145.097 594.371 145.027C594.838 144.952 595.293 144.889 595.736 144.838C596.184 144.782 596.576 144.728 596.912 144.677L596.548 144.901C596.562 144.154 596.417 143.601 596.114 143.242C595.811 142.883 595.283 142.703 594.532 142.703C594.014 142.703 593.575 142.82 593.216 143.053C592.861 143.286 592.612 143.655 592.467 144.159L591.466 143.865C591.639 143.188 591.986 142.663 592.509 142.29C593.032 141.917 593.711 141.73 594.546 141.73C595.237 141.73 595.822 141.861 596.303 142.122C596.788 142.379 597.131 142.752 597.332 143.242C597.425 143.461 597.486 143.706 597.514 143.977C597.542 144.248 597.556 144.523 597.556 144.803V149.5H596.639V147.603L596.905 147.715C596.648 148.364 596.249 148.858 595.708 149.199C595.167 149.54 594.518 149.71 593.762 149.71ZM593.881 148.821C594.362 148.821 594.782 148.735 595.141 148.562C595.5 148.389 595.79 148.154 596.009 147.855C596.228 147.552 596.371 147.211 596.436 146.833C596.492 146.59 596.522 146.324 596.527 146.035C596.532 145.741 596.534 145.522 596.534 145.377L596.926 145.58C596.576 145.627 596.196 145.673 595.785 145.72C595.379 145.767 594.978 145.82 594.581 145.881C594.189 145.942 593.834 146.014 593.517 146.098C593.302 146.159 593.095 146.245 592.894 146.357C592.693 146.464 592.528 146.609 592.397 146.791C592.271 146.973 592.208 147.199 592.208 147.47C592.208 147.689 592.262 147.902 592.369 148.107C592.481 148.312 592.658 148.483 592.901 148.618C593.148 148.753 593.475 148.821 593.881 148.821Z" fill="#E6E6E6"/>
<path opacity="0.35" d="M109 232V260C109 263.866 112.134 267 116 267H139.333C143.2 267 146.333 263.866 146.333 260V232C146.333 228.134 143.2 225 139.333 225H116C112.134 225 109 228.134 109 232Z" fill="#ADA1FF"/>
<path d="M155.079 261.559L150.412 254.559C150.407 254.554 150.403 254.549 150.4 254.545C152.232 252.176 153.333 249.218 153.333 246C153.333 238.279 147.054 232 139.333 232H118.333C117.043 232 116 233.045 116 234.333C116 235.621 117.043 236.667 118.333 236.667H128.927C127.716 238.015 126.766 239.593 126.15 241.333H118.333C117.043 241.333 116 242.379 116 243.667C116 244.955 117.043 246 118.333 246H125.333C125.333 247.638 125.632 249.204 126.15 250.667H118.333C117.043 250.667 116 251.712 116 253C116 254.288 117.043 255.333 118.333 255.333H128.927C131.491 258.189 135.199 260 139.333 260C141.298 260 143.167 259.589 144.863 258.857L149.252 265.441C149.929 266.454 151.04 267 152.169 267C152.836 267 153.511 266.809 154.108 266.412C155.716 265.341 156.152 263.166 155.079 261.559ZM132.333 246C132.333 242.141 135.474 239 139.333 239C143.193 239 146.333 242.141 146.333 246C146.333 249.859 143.193 253 139.333 253C135.474 253 132.333 249.859 132.333 246Z" fill="#ADA1FF"/>
<path d="M99.98 295V284.92H103.872C103.97 284.92 104.08 284.925 104.201 284.934C104.327 284.939 104.453 284.953 104.579 284.976C105.106 285.055 105.552 285.24 105.916 285.529C106.285 285.814 106.562 286.173 106.749 286.607C106.94 287.041 107.036 287.522 107.036 288.049C107.036 288.81 106.835 289.47 106.434 290.03C106.033 290.59 105.459 290.942 104.712 291.087L104.355 291.171H101.009V295H99.98ZM106.084 295L104.096 290.898L105.083 290.52L107.267 295H106.084ZM101.009 290.191H103.844C103.928 290.191 104.026 290.186 104.138 290.177C104.25 290.168 104.36 290.151 104.467 290.128C104.812 290.053 105.095 289.911 105.314 289.701C105.538 289.491 105.704 289.241 105.811 288.952C105.923 288.663 105.979 288.362 105.979 288.049C105.979 287.736 105.923 287.435 105.811 287.146C105.704 286.852 105.538 286.6 105.314 286.39C105.095 286.18 104.812 286.038 104.467 285.963C104.36 285.94 104.25 285.926 104.138 285.921C104.026 285.912 103.928 285.907 103.844 285.907H101.009V290.191ZM112.011 295.21C111.274 295.21 110.634 295.047 110.093 294.72C109.556 294.393 109.139 293.934 108.84 293.341C108.541 292.748 108.392 292.053 108.392 291.255C108.392 290.429 108.539 289.715 108.833 289.113C109.127 288.511 109.54 288.047 110.072 287.72C110.609 287.393 111.241 287.23 111.969 287.23C112.716 287.23 113.353 287.403 113.88 287.748C114.407 288.089 114.806 288.579 115.077 289.218C115.348 289.857 115.471 290.62 115.448 291.507H114.398V291.143C114.379 290.163 114.167 289.423 113.761 288.924C113.36 288.425 112.772 288.175 111.997 288.175C111.185 288.175 110.562 288.439 110.128 288.966C109.699 289.493 109.484 290.245 109.484 291.22C109.484 292.172 109.699 292.912 110.128 293.439C110.562 293.962 111.176 294.223 111.969 294.223C112.51 294.223 112.982 294.099 113.383 293.852C113.789 293.6 114.109 293.238 114.342 292.767L115.301 293.138C115.002 293.796 114.561 294.307 113.978 294.671C113.399 295.03 112.744 295.21 112.011 295.21ZM109.12 291.507V290.646H114.895V291.507H109.12ZM119.822 295.203C118.936 295.203 118.205 295.012 117.631 294.629C117.062 294.246 116.712 293.714 116.581 293.033L117.631 292.858C117.743 293.287 117.998 293.63 118.394 293.887C118.796 294.139 119.29 294.265 119.878 294.265C120.452 294.265 120.905 294.146 121.236 293.908C121.568 293.665 121.733 293.336 121.733 292.921C121.733 292.688 121.68 292.499 121.572 292.354C121.47 292.205 121.257 292.067 120.935 291.941C120.613 291.815 120.133 291.666 119.493 291.493C118.807 291.306 118.271 291.12 117.883 290.933C117.496 290.746 117.221 290.532 117.057 290.289C116.894 290.042 116.812 289.741 116.812 289.386C116.812 288.957 116.934 288.581 117.176 288.259C117.419 287.932 117.755 287.68 118.184 287.503C118.614 287.321 119.113 287.23 119.682 287.23C120.252 287.23 120.76 287.323 121.208 287.51C121.661 287.692 122.025 287.949 122.3 288.28C122.576 288.611 122.739 288.996 122.79 289.435L121.74 289.624C121.67 289.181 121.449 288.831 121.075 288.574C120.707 288.313 120.238 288.177 119.668 288.168C119.132 288.154 118.695 288.257 118.359 288.476C118.023 288.691 117.855 288.978 117.855 289.337C117.855 289.538 117.916 289.71 118.037 289.855C118.159 289.995 118.378 290.128 118.695 290.254C119.017 290.38 119.475 290.518 120.067 290.667C120.763 290.844 121.309 291.031 121.705 291.227C122.102 291.423 122.384 291.654 122.552 291.92C122.72 292.186 122.804 292.515 122.804 292.907C122.804 293.621 122.538 294.183 122.006 294.594C121.479 295 120.751 295.203 119.822 295.203ZM127.556 295.21C126.819 295.21 126.179 295.047 125.638 294.72C125.101 294.393 124.684 293.934 124.385 293.341C124.086 292.748 123.937 292.053 123.937 291.255C123.937 290.429 124.084 289.715 124.378 289.113C124.672 288.511 125.085 288.047 125.617 287.72C126.154 287.393 126.786 287.23 127.514 287.23C128.261 287.23 128.898 287.403 129.425 287.748C129.952 288.089 130.351 288.579 130.622 289.218C130.893 289.857 131.016 290.62 130.993 291.507H129.943V291.143C129.924 290.163 129.712 289.423 129.306 288.924C128.905 288.425 128.317 288.175 127.542 288.175C126.73 288.175 126.107 288.439 125.673 288.966C125.244 289.493 125.029 290.245 125.029 291.22C125.029 292.172 125.244 292.912 125.673 293.439C126.107 293.962 126.721 294.223 127.514 294.223C128.055 294.223 128.527 294.099 128.928 293.852C129.334 293.6 129.654 293.238 129.887 292.767L130.846 293.138C130.547 293.796 130.106 294.307 129.523 294.671C128.944 295.03 128.289 295.21 127.556 295.21ZM124.665 291.507V290.646H130.44V291.507H124.665ZM134.573 295.21C134.003 295.21 133.525 295.107 133.138 294.902C132.755 294.697 132.468 294.424 132.277 294.083C132.085 293.742 131.99 293.371 131.99 292.97C131.99 292.559 132.071 292.209 132.235 291.92C132.403 291.626 132.629 291.386 132.914 291.199C133.203 291.012 133.537 290.87 133.915 290.772C134.297 290.679 134.72 290.597 135.182 290.527C135.648 290.452 136.103 290.389 136.547 290.338C136.995 290.282 137.387 290.228 137.723 290.177L137.359 290.401C137.373 289.654 137.228 289.101 136.925 288.742C136.621 288.383 136.094 288.203 135.343 288.203C134.825 288.203 134.386 288.32 134.027 288.553C133.672 288.786 133.422 289.155 133.278 289.659L132.277 289.365C132.449 288.688 132.797 288.163 133.32 287.79C133.842 287.417 134.521 287.23 135.357 287.23C136.047 287.23 136.633 287.361 137.114 287.622C137.599 287.879 137.942 288.252 138.143 288.742C138.236 288.961 138.297 289.206 138.325 289.477C138.353 289.748 138.367 290.023 138.367 290.303V295H137.45V293.103L137.716 293.215C137.459 293.864 137.06 294.358 136.519 294.699C135.977 295.04 135.329 295.21 134.573 295.21ZM134.692 294.321C135.172 294.321 135.592 294.235 135.952 294.062C136.311 293.889 136.6 293.654 136.82 293.355C137.039 293.052 137.181 292.711 137.247 292.333C137.303 292.09 137.333 291.824 137.338 291.535C137.342 291.241 137.345 291.022 137.345 290.877L137.737 291.08C137.387 291.127 137.006 291.173 136.596 291.22C136.19 291.267 135.788 291.32 135.392 291.381C135 291.442 134.645 291.514 134.328 291.598C134.113 291.659 133.905 291.745 133.705 291.857C133.504 291.964 133.338 292.109 133.208 292.291C133.082 292.473 133.019 292.699 133.019 292.97C133.019 293.189 133.072 293.402 133.18 293.607C133.292 293.812 133.469 293.983 133.712 294.118C133.959 294.253 134.286 294.321 134.692 294.321ZM140.189 295V287.44H141.113V289.26L140.931 289.022C141.015 288.798 141.125 288.593 141.26 288.406C141.395 288.215 141.542 288.058 141.701 287.937C141.897 287.764 142.126 287.634 142.387 287.545C142.648 287.452 142.912 287.398 143.178 287.384C143.444 287.365 143.687 287.384 143.906 287.44V288.406C143.631 288.336 143.33 288.32 143.003 288.357C142.676 288.394 142.375 288.525 142.1 288.749C141.848 288.945 141.659 289.181 141.533 289.456C141.407 289.727 141.323 290.016 141.281 290.324C141.239 290.627 141.218 290.928 141.218 291.227V295H140.189ZM148.233 295.21C147.473 295.21 146.829 295.04 146.301 294.699C145.774 294.358 145.373 293.889 145.097 293.292C144.827 292.69 144.687 291.999 144.677 291.22C144.687 290.427 144.831 289.731 145.111 289.134C145.391 288.532 145.795 288.065 146.322 287.734C146.85 287.398 147.489 287.23 148.24 287.23C149.006 287.23 149.671 287.417 150.235 287.79C150.805 288.163 151.194 288.674 151.404 289.323L150.396 289.645C150.219 289.192 149.937 288.842 149.549 288.595C149.167 288.343 148.728 288.217 148.233 288.217C147.678 288.217 147.218 288.345 146.854 288.602C146.49 288.854 146.22 289.206 146.042 289.659C145.865 290.112 145.774 290.632 145.769 291.22C145.779 292.125 145.989 292.853 146.399 293.404C146.81 293.95 147.421 294.223 148.233 294.223C148.747 294.223 149.183 294.106 149.542 293.873C149.906 293.635 150.182 293.29 150.368 292.837L151.404 293.145C151.124 293.817 150.714 294.33 150.172 294.685C149.631 295.035 148.985 295.21 148.233 295.21ZM158.309 295V291.143C158.309 290.723 158.269 290.338 158.19 289.988C158.111 289.633 157.982 289.325 157.805 289.064C157.632 288.798 157.406 288.593 157.126 288.448C156.851 288.303 156.515 288.231 156.118 288.231C155.754 288.231 155.432 288.294 155.152 288.42C154.877 288.546 154.643 288.728 154.452 288.966C154.265 289.199 154.123 289.484 154.025 289.82C153.927 290.156 153.878 290.539 153.878 290.968L153.15 290.807C153.15 290.032 153.285 289.381 153.556 288.854C153.827 288.327 154.2 287.928 154.676 287.657C155.152 287.386 155.698 287.251 156.314 287.251C156.767 287.251 157.161 287.321 157.497 287.461C157.838 287.601 158.125 287.79 158.358 288.028C158.596 288.266 158.787 288.539 158.932 288.847C159.077 289.15 159.182 289.475 159.247 289.82C159.312 290.161 159.345 290.501 159.345 290.842V295H158.309ZM152.842 295V284.92H153.773V290.611H153.878V295H152.842Z" fill="#E6E6E6"/>
<path opacity="0.35" d="M518.5 473.5H511.5C507.634 473.5 504.5 470.366 504.5 466.5V450.167C504.5 446.3 507.634 443.167 511.5 443.167H518.5C522.366 443.167 525.5 446.3 525.5 450.167V466.5C525.5 470.366 522.366 473.5 518.5 473.5Z" fill="#F7E64F"/>
<path d="M543 431.5H508C506.068 431.5 504.5 433.068 504.5 435C504.5 436.932 506.068 438.5 508 438.5H543C544.932 438.5 546.5 436.932 546.5 435C546.5 433.068 544.932 431.5 543 431.5Z" fill="#F7E64F"/>
<path d="M543 473.5H533.667C531.735 473.5 530.167 471.932 530.167 470C530.167 468.068 531.735 466.5 533.667 466.5H543C544.932 466.5 546.5 468.068 546.5 470C546.5 471.932 544.932 473.5 543 473.5Z" fill="#F7E64F"/>
<path opacity="0.35" d="M543 461.833H533.667C531.735 461.833 530.167 460.265 530.167 458.333C530.167 456.401 531.735 454.833 533.667 454.833H543C544.932 454.833 546.5 456.401 546.5 458.333C546.5 460.265 544.932 461.833 543 461.833Z" fill="#F7E64F"/>
<path d="M543 450.167H533.667C531.735 450.167 530.167 448.599 530.167 446.667C530.167 444.735 531.735 443.167 533.667 443.167H543C544.932 443.167 546.5 444.735 546.5 446.667C546.5 448.599 544.932 450.167 543 450.167Z" fill="#F7E64F"/>
<path d="M493.98 501.5V491.42H497.872C497.97 491.42 498.08 491.425 498.201 491.434C498.327 491.439 498.453 491.453 498.579 491.476C499.106 491.555 499.552 491.74 499.916 492.029C500.285 492.314 500.562 492.673 500.749 493.107C500.94 493.541 501.036 494.022 501.036 494.549C501.036 495.072 500.94 495.55 500.749 495.984C500.558 496.418 500.278 496.78 499.909 497.069C499.545 497.354 499.102 497.536 498.579 497.615C498.453 497.634 498.327 497.648 498.201 497.657C498.08 497.666 497.97 497.671 497.872 497.671H495.009V501.5H493.98ZM495.009 496.691H497.844C497.928 496.691 498.026 496.686 498.138 496.677C498.25 496.668 498.36 496.651 498.467 496.628C498.812 496.553 499.095 496.411 499.314 496.201C499.538 495.991 499.704 495.741 499.811 495.452C499.923 495.163 499.979 494.862 499.979 494.549C499.979 494.236 499.923 493.935 499.811 493.646C499.704 493.352 499.538 493.1 499.314 492.89C499.095 492.68 498.812 492.538 498.467 492.463C498.36 492.44 498.25 492.426 498.138 492.421C498.026 492.412 497.928 492.407 497.844 492.407H495.009V496.691ZM502.429 501.5V493.94H503.353V495.76L503.171 495.522C503.255 495.298 503.365 495.093 503.5 494.906C503.636 494.715 503.783 494.558 503.941 494.437C504.137 494.264 504.366 494.134 504.627 494.045C504.889 493.952 505.152 493.898 505.418 493.884C505.684 493.865 505.927 493.884 506.146 493.94V494.906C505.871 494.836 505.57 494.82 505.243 494.857C504.917 494.894 504.616 495.025 504.34 495.249C504.088 495.445 503.899 495.681 503.773 495.956C503.647 496.227 503.563 496.516 503.521 496.824C503.479 497.127 503.458 497.428 503.458 497.727V501.5H502.429ZM510.494 501.71C509.743 501.71 509.101 501.54 508.569 501.199C508.037 500.858 507.629 500.387 507.344 499.785C507.06 499.183 506.917 498.492 506.917 497.713C506.917 496.92 507.062 496.224 507.351 495.627C507.641 495.03 508.051 494.565 508.583 494.234C509.12 493.898 509.757 493.73 510.494 493.73C511.25 493.73 511.894 493.9 512.426 494.241C512.963 494.577 513.371 495.046 513.651 495.648C513.936 496.245 514.078 496.934 514.078 497.713C514.078 498.506 513.936 499.204 513.651 499.806C513.367 500.403 512.956 500.87 512.419 501.206C511.883 501.542 511.241 501.71 510.494 501.71ZM510.494 500.723C511.334 500.723 511.96 500.445 512.37 499.89C512.781 499.33 512.986 498.604 512.986 497.713C512.986 496.798 512.779 496.07 512.363 495.529C511.953 494.988 511.33 494.717 510.494 494.717C509.93 494.717 509.463 494.845 509.094 495.102C508.73 495.354 508.457 495.706 508.275 496.159C508.098 496.607 508.009 497.125 508.009 497.713C508.009 498.623 508.219 499.353 508.639 499.904C509.059 500.45 509.678 500.723 510.494 500.723ZM519.739 501.5C519.314 501.589 518.894 501.624 518.479 501.605C518.068 501.586 517.699 501.498 517.373 501.339C517.051 501.18 516.806 500.933 516.638 500.597C516.502 500.317 516.428 500.035 516.414 499.75C516.404 499.461 516.4 499.132 516.4 498.763V491.84H517.422V498.721C517.422 499.038 517.424 499.304 517.429 499.519C517.438 499.729 517.487 499.916 517.576 500.079C517.744 500.392 518.01 500.578 518.374 500.639C518.742 500.7 519.197 500.686 519.739 500.597V501.5ZM514.783 494.822V493.94H519.739V494.822H514.783ZM524.112 501.71C523.36 501.71 522.719 501.54 522.187 501.199C521.655 500.858 521.246 500.387 520.962 499.785C520.677 499.183 520.535 498.492 520.535 497.713C520.535 496.92 520.679 496.224 520.969 495.627C521.258 495.03 521.669 494.565 522.201 494.234C522.737 493.898 523.374 493.73 524.112 493.73C524.868 493.73 525.512 493.9 526.044 494.241C526.58 494.577 526.989 495.046 527.269 495.648C527.553 496.245 527.696 496.934 527.696 497.713C527.696 498.506 527.553 499.204 527.269 499.806C526.984 500.403 526.573 500.87 526.037 501.206C525.5 501.542 524.858 501.71 524.112 501.71ZM524.112 500.723C524.952 500.723 525.577 500.445 525.988 499.89C526.398 499.33 526.604 498.604 526.604 497.713C526.604 496.798 526.396 496.07 525.981 495.529C525.57 494.988 524.947 494.717 524.112 494.717C523.547 494.717 523.08 494.845 522.712 495.102C522.348 495.354 522.075 495.706 521.893 496.159C521.715 496.607 521.627 497.125 521.627 497.713C521.627 498.623 521.837 499.353 522.257 499.904C522.677 500.45 523.295 500.723 524.112 500.723ZM533.356 501.5C532.931 501.589 532.511 501.624 532.096 501.605C531.685 501.586 531.316 501.498 530.99 501.339C530.668 501.18 530.423 500.933 530.255 500.597C530.119 500.317 530.045 500.035 530.031 499.75C530.021 499.461 530.017 499.132 530.017 498.763V491.84H531.039V498.721C531.039 499.038 531.041 499.304 531.046 499.519C531.055 499.729 531.104 499.916 531.193 500.079C531.361 500.392 531.627 500.578 531.991 500.639C532.359 500.7 532.814 500.686 533.356 500.597V501.5ZM528.4 494.822V493.94H533.356V494.822H528.4ZM535.718 504.86L537.181 500.891L537.202 502.067L533.891 493.94H534.983L537.699 500.737H537.251L539.757 493.94H540.807L536.747 504.86H535.718ZM545.418 501.71C544.723 501.71 544.135 501.535 543.654 501.185C543.173 500.83 542.809 500.352 542.562 499.75C542.315 499.143 542.191 498.464 542.191 497.713C542.191 496.948 542.315 496.266 542.562 495.669C542.814 495.067 543.183 494.593 543.668 494.248C544.153 493.903 544.751 493.73 545.46 493.73C546.151 493.73 546.743 493.905 547.238 494.255C547.733 494.605 548.111 495.081 548.372 495.683C548.638 496.285 548.771 496.962 548.771 497.713C548.771 498.469 548.638 499.148 548.372 499.75C548.106 500.352 547.723 500.83 547.224 501.185C546.725 501.535 546.123 501.71 545.418 501.71ZM542.016 504.86V493.94H542.94V499.631H543.052V504.86H542.016ZM545.313 500.751C545.84 500.751 546.279 500.618 546.629 500.352C546.979 500.086 547.24 499.724 547.413 499.267C547.59 498.805 547.679 498.287 547.679 497.713C547.679 497.144 547.593 496.63 547.42 496.173C547.247 495.716 546.984 495.354 546.629 495.088C546.279 494.822 545.833 494.689 545.292 494.689C544.765 494.689 544.326 494.817 543.976 495.074C543.631 495.331 543.372 495.688 543.199 496.145C543.026 496.598 542.94 497.12 542.94 497.713C542.94 498.296 543.026 498.819 543.199 499.281C543.372 499.738 543.633 500.098 543.983 500.359C544.333 500.62 544.776 500.751 545.313 500.751ZM553.507 501.71C552.77 501.71 552.13 501.547 551.589 501.22C551.052 500.893 550.635 500.434 550.336 499.841C550.037 499.248 549.888 498.553 549.888 497.755C549.888 496.929 550.035 496.215 550.329 495.613C550.623 495.011 551.036 494.547 551.568 494.22C552.105 493.893 552.737 493.73 553.465 493.73C554.212 493.73 554.849 493.903 555.376 494.248C555.903 494.589 556.302 495.079 556.573 495.718C556.844 496.357 556.967 497.12 556.944 498.007H555.894V497.643C555.875 496.663 555.663 495.923 555.257 495.424C554.856 494.925 554.268 494.675 553.493 494.675C552.681 494.675 552.058 494.939 551.624 495.466C551.195 495.993 550.98 496.745 550.98 497.72C550.98 498.672 551.195 499.412 551.624 499.939C552.058 500.462 552.672 500.723 553.465 500.723C554.006 500.723 554.478 500.599 554.879 500.352C555.285 500.1 555.605 499.738 555.838 499.267L556.797 499.638C556.498 500.296 556.057 500.807 555.474 501.171C554.895 501.53 554.24 501.71 553.507 501.71ZM550.616 498.007V497.146H556.391V498.007H550.616Z" fill="#E6E6E6"/>
</svg>
