<svg width="40" height="40" viewBox="0 0 40 40" fill="none" xmlns="http://www.w3.org/2000/svg">
<path fill-rule="evenodd" clip-rule="evenodd" d="M12.4914 18.1784C12.4099 17.9223 12.3633 17.5731 12.3633 17.1423H12.3401V13.3708C12.3401 12.0903 12.0141 11.1358 11.3739 10.5072C10.722 9.87859 9.70928 9.5643 8.32405 9.5643C7.68381 9.5643 7.0785 9.63414 6.50811 9.78547C5.93772 9.92516 5.44881 10.0998 5.04139 10.3093C4.87842 10.3908 4.77366 10.4723 4.71545 10.5538C4.65725 10.6352 4.63397 10.7749 4.63397 10.9612V11.5316C4.63397 11.776 4.71545 11.8924 4.87842 11.8924C4.92498 11.8924 4.98319 11.8808 5.06467 11.8575C5.14616 11.8342 5.28584 11.7877 5.47209 11.7062C5.87952 11.5432 6.29858 11.4152 6.72928 11.3104C7.15999 11.2056 7.57905 11.1591 7.98647 11.1591C8.8828 11.1591 9.51139 11.3337 9.88389 11.6945C10.2448 12.0554 10.431 12.6723 10.431 13.557V14.4068C9.96538 14.302 9.52303 14.2089 9.09233 14.1507C8.66163 14.0925 8.2542 14.0576 7.85842 14.0576C6.65944 14.0576 5.71655 14.3602 5.00647 14.9656C4.29639 15.5709 3.94717 16.3741 3.94717 17.3635C3.94717 18.2948 4.23819 19.0398 4.80858 19.5985C5.37897 20.1573 6.15889 20.4366 7.1367 20.4366C8.5103 20.4366 9.65108 19.9012 10.559 18.8302C10.6871 19.098 10.8035 19.3191 10.9199 19.517C11.0363 19.7033 11.176 19.8895 11.339 20.0641C11.4554 20.1689 11.5718 20.2271 11.6882 20.2271C11.7813 20.2271 11.8861 20.1922 11.9908 20.1224L12.7242 19.6334C12.8755 19.517 12.9454 19.4006 12.9454 19.2842C12.9454 19.2027 12.9221 19.1096 12.8639 19.0165C12.7009 18.7138 12.5845 18.4345 12.4914 18.1784ZM8.83624 18.7022C8.41717 18.8419 8.02139 18.9117 7.63725 18.9117C7.10178 18.9117 6.69436 18.772 6.41498 18.481C6.12397 18.2016 5.98428 17.7942 5.98428 17.2471C5.98428 16.6651 6.17053 16.2227 6.55467 15.9084C6.93881 15.5941 7.5092 15.4428 8.28913 15.4428C8.64999 15.4428 9.01085 15.4661 9.38335 15.5127C9.75585 15.5592 10.1167 15.6291 10.4543 15.7106V16.1995C10.4543 16.5952 10.4077 16.9328 10.3379 17.2122C10.268 17.4916 10.1283 17.736 9.9421 17.9572C9.6278 18.3064 9.2553 18.5625 8.83624 18.7022Z" fill="#FF9900"/>
<path d="M16.5423 20.0525C16.6355 20.134 16.7751 20.1689 16.9847 20.1689H17.9858C18.1953 20.1689 18.3583 20.134 18.4514 20.0525C18.5445 19.971 18.6144 19.8197 18.6726 19.5869L20.4652 12.0903L22.2695 19.5985C22.3161 19.8313 22.3976 19.9827 22.4907 20.0641C22.5838 20.1456 22.7352 20.1806 22.9563 20.1806H23.9574C24.1553 20.1806 24.3066 20.134 24.3998 20.0641C24.4929 19.9943 24.5744 19.843 24.6442 19.6102L27.4496 10.612C27.4962 10.4839 27.5195 10.3908 27.5311 10.3209C27.5328 10.3107 27.5345 10.3008 27.5362 10.2911C27.5459 10.2341 27.5544 10.1844 27.5544 10.1347C27.5544 9.9368 27.4496 9.84367 27.2634 9.84367H26.1808C25.9712 9.84367 25.8199 9.89023 25.7268 9.96008C25.6453 10.0299 25.5638 10.1813 25.494 10.4141L23.4802 18.2133L21.6409 10.4141C21.5944 10.1929 21.5129 10.0299 21.4198 9.96008C21.3266 9.87859 21.1753 9.84367 20.9541 9.84367H20.0229C19.8134 9.84367 19.6504 9.89023 19.5573 9.96008C19.4641 10.0299 19.3943 10.1813 19.3361 10.4141L17.5201 18.1202L15.5645 10.4141C15.4947 10.1929 15.4248 10.0299 15.3317 9.96008C15.2502 9.87859 15.0989 9.84367 14.8777 9.84367H13.7369C13.5507 9.84367 13.4576 9.94844 13.4576 10.1347C13.4576 10.2162 13.4925 10.3675 13.5623 10.6003L16.2979 19.5985C16.3677 19.8197 16.4492 19.9827 16.5423 20.0525Z" fill="#FF9900"/>
<path d="M30.1502 20.2737C30.7323 20.4134 31.3376 20.4832 31.9429 20.4832C32.5366 20.4832 33.0837 20.4017 33.6075 20.2388C34.108 20.0874 34.5388 19.8779 34.8996 19.5869C35.2605 19.3075 35.5398 18.9583 35.7494 18.5625C35.9473 18.1667 36.052 17.7127 36.052 17.2122C36.052 16.6069 35.8774 16.0598 35.5166 15.5825C35.1557 15.1052 34.5504 14.7327 33.7123 14.465L32.0593 13.9412C31.4423 13.7433 31.0116 13.5221 30.7788 13.3009C30.546 13.0798 30.4296 12.8004 30.4296 12.4745C30.4296 11.9972 30.6159 11.6596 30.9767 11.4384C31.3376 11.2173 31.8614 11.1125 32.5249 11.1125C33.3514 11.1125 34.0964 11.2638 34.7599 11.5665C34.9578 11.6596 35.1091 11.7062 35.2023 11.7062C35.3769 11.7062 35.47 11.5781 35.47 11.3337V10.7866C35.47 10.6236 35.4351 10.4955 35.3652 10.4024C35.2954 10.2977 35.179 10.2045 35.016 10.1114C34.8996 10.0416 34.7366 9.97172 34.5271 9.90188C34.3176 9.83203 34.0964 9.77383 33.8636 9.71563C33.6192 9.66906 33.3747 9.6225 33.107 9.58758C32.8509 9.55266 32.5831 9.54102 32.327 9.54102C31.8148 9.54102 31.3259 9.59922 30.8603 9.73891C30.3947 9.87859 29.9989 10.0765 29.6497 10.3442C29.3005 10.6003 29.0211 10.9263 28.8116 11.2988C28.602 11.6713 28.4973 12.102 28.4973 12.5909C28.4973 13.1962 28.6952 13.7666 29.0793 14.2788C29.4634 14.8026 30.092 15.1984 30.9418 15.4661L32.6297 15.9899C33.2001 16.1762 33.5959 16.3741 33.8054 16.5952C34.0149 16.8164 34.1197 17.0841 34.1197 17.4101C34.1197 17.8874 33.9102 18.2599 33.5144 18.5159C33.1186 18.772 32.5482 18.9001 31.8148 18.9001C31.3492 18.9001 30.8952 18.8535 30.4296 18.7604C29.9756 18.6673 29.5449 18.5276 29.1491 18.353C29.1079 18.3365 29.0681 18.32 29.0309 18.3045C28.9629 18.2763 28.9032 18.2516 28.8581 18.2366C28.7883 18.2133 28.7184 18.2016 28.6486 18.2016C28.474 18.2016 28.3809 18.3181 28.3809 18.5625V19.1562C28.3809 19.2609 28.4041 19.3774 28.4507 19.4821C28.4973 19.5869 28.6253 19.7033 28.8116 19.8081C29.1142 19.9827 29.5682 20.134 30.1502 20.2737Z" fill="#FF9900"/>
<path d="M19.9647 30.4709C24.749 30.4709 30.3132 28.9692 34.143 26.1406C34.7716 25.6749 34.2244 24.9649 33.5842 25.2559C29.2888 27.0718 24.6209 27.9565 20.3721 27.9565C14.0745 27.9565 7.98647 26.222 3.05084 23.3584C2.62013 23.1024 2.2942 23.5447 2.65506 23.8706C7.21818 27.9914 13.2597 30.4709 19.9647 30.4709Z" fill="#FF9900"/>
<path d="M31.2561 24.1733C32.5016 24.022 35.2488 23.696 35.7377 24.3246C36.2266 24.9416 35.1906 27.5374 34.725 28.6899C34.5853 29.0391 34.888 29.1788 35.2023 28.911C37.251 27.1882 37.7865 23.5913 37.3674 23.0674C36.9484 22.5552 33.3514 22.1129 31.163 23.6495C30.8254 23.8939 30.8836 24.2199 31.2561 24.1733Z" fill="#FF9900"/>
</svg>
