<svg width="40" height="41" viewBox="0 0 40 41" fill="none" xmlns="http://www.w3.org/2000/svg">
<path d="M14.168 3.93009H24.5248L13.7734 35.7853C13.5469 36.4565 12.9175 36.9086 12.2091 36.9086H4.14891C3.61786 36.9086 3.11929 36.6529 2.80953 36.2215C2.49977 35.7902 2.41676 35.236 2.58652 34.7328L12.6032 5.05335C12.8297 4.38187 13.4594 3.92969 14.168 3.92969V3.93009Z" fill="url(#paint0_linear_1338_3319)"/>
<path d="M29.2181 25.2964H12.7947C12.4822 25.296 12.2014 25.487 12.0867 25.7776C11.9721 26.0683 12.047 26.3995 12.2756 26.6126L22.8289 36.4626C23.1362 36.7493 23.5407 36.9085 23.9609 36.9085H33.2605L29.2181 25.2964Z" fill="#0078D4"/>
<path d="M14.1681 3.93019C13.451 3.92745 12.8155 4.39147 12.5998 5.07534L2.59894 34.7059C2.4177 35.2111 2.49403 35.7729 2.80348 36.2114C3.11292 36.6499 3.61667 36.9101 4.15337 36.9087H12.4216C13.0485 36.7967 13.5667 36.356 13.7779 35.7552L15.7723 29.8775L22.8961 36.5221C23.1946 36.769 23.5691 36.9055 23.9565 36.9087H33.2215L29.158 25.2965L17.3124 25.2993L24.5623 3.93019H14.1681Z" fill="url(#paint1_linear_1338_3319)"/>
<path d="M27.3962 5.05185C27.17 4.38145 26.5413 3.93018 25.8338 3.93018H14.2913C14.9987 3.93018 15.6274 4.38153 15.8537 5.05185L25.8708 34.7325C26.0407 35.2358 25.9577 35.7901 25.648 36.2216C25.3382 36.6531 24.8396 36.909 24.3084 36.909H35.8513C36.3824 36.909 36.8809 36.653 37.1906 36.2215C37.5003 35.79 37.5832 35.2357 37.4133 34.7325L27.3962 5.05185Z" fill="url(#paint2_linear_1338_3319)"/>
<defs>
<linearGradient id="paint0_linear_1338_3319" x1="15.4884" y1="6.37391" x2="5.3452" y2="36.3396" gradientUnits="userSpaceOnUse">
<stop stop-color="#114A8B"/>
<stop offset="1" stop-color="#0669BC"/>
</linearGradient>
<linearGradient id="paint1_linear_1338_3319" x1="20.8474" y1="21.1821" x2="18.6549" y2="21.9235" gradientUnits="userSpaceOnUse">
<stop stop-opacity="0.3"/>
<stop offset="0.071" stop-opacity="0.2"/>
<stop offset="0.321" stop-opacity="0.1"/>
<stop offset="0.623" stop-opacity="0.05"/>
<stop offset="1" stop-opacity="0"/>
</linearGradient>
<linearGradient id="paint2_linear_1338_3319" x1="22.9432" y1="5.44722" x2="34.0139" y2="34.9417" gradientUnits="userSpaceOnUse">
<stop stop-color="#3CCBF4"/>
<stop offset="1" stop-color="#2892DF"/>
</linearGradient>
</defs>
</svg>
