<svg width="616" height="848" viewBox="0 0 616 848" fill="none" xmlns="http://www.w3.org/2000/svg">
<rect x="70.4468" y="233" width="252.516" height="252.516" rx="16" transform="rotate(45.7221 70.4468 233)" fill="#A2E053"/>
<circle cx="368.856" cy="498.967" r="149.562" transform="rotate(15.7221 368.856 498.967)" fill="#F7E64F"/>
<path d="M281.269 109.459C290.462 101.261 305.081 106.089 307.584 118.149L352.039 332.352C354.542 344.412 343.051 354.658 331.355 350.796L123.623 282.193C111.928 278.331 108.799 263.256 117.992 255.059L281.269 109.459Z" fill="#ADA1FF"/>
<path fill-rule="evenodd" clip-rule="evenodd" d="M43.8286 578.032C45.0535 569.431 40.1941 560.838 31.8317 558.484L-32.0317 540.506C-40.5376 538.111 -49.4287 543.058 -51.2623 551.703C-56.8072 577.843 -58.0403 604.753 -54.878 631.36C-51.0854 663.271 -41.0446 694.122 -25.3289 722.152C-9.61316 750.183 11.4696 774.843 36.7158 794.726C61.962 814.608 90.8771 829.324 121.81 838.031C152.743 846.739 185.089 849.269 217 845.476C248.911 841.684 279.762 831.643 307.792 815.927C335.823 800.211 360.483 779.129 380.366 753.883C396.944 732.832 409.929 709.232 418.836 684.037C421.781 675.706 416.776 666.847 408.27 664.452L337.742 644.599C329.38 642.245 320.751 647.041 317.309 655.018C312.397 666.404 306.016 677.129 298.311 686.913C286.666 701.7 272.223 714.047 255.806 723.252C239.389 732.456 221.32 738.337 202.631 740.558C183.941 742.779 164.998 741.298 146.881 736.198C128.764 731.098 111.829 722.479 97.0428 710.834C82.2567 699.19 69.909 684.747 60.7046 668.33C51.5003 651.913 45.6196 633.844 43.3984 615.155C41.9285 602.787 42.0801 590.309 43.8286 578.032Z" fill="#F7AA4F"/>
</svg>
