<svg width="30" height="19" viewBox="0 0 30 19" fill="none" xmlns="http://www.w3.org/2000/svg">
<path d="M9.06638 0.510742C9.88393 0.510742 10.6392 0.573032 11.3322 0.759901C12.0251 0.884481 12.5935 1.14143 13.0996 1.45287C13.6057 1.76432 13.9795 2.20814 14.2364 2.77653C14.4856 3.34493 14.618 4.0379 14.618 4.79316C14.618 5.67301 14.4311 6.42827 13.9873 6.99666C13.6057 7.56506 12.9828 8.07116 12.2198 8.4449C13.2943 8.75635 14.1118 9.32474 14.6102 10.08C15.1085 10.8353 15.4277 11.7774 15.4277 12.8519C15.4277 13.7317 15.2409 14.487 14.9216 15.1177C14.6102 15.7484 14.1041 16.3168 13.5357 16.6905C12.9673 17.072 12.2743 17.3835 11.519 17.5703C10.7638 17.7572 10.0085 17.8818 9.25325 17.8818L0.812988 17.8974V0.510742H9.06638ZM8.56028 7.56506C9.25325 7.56506 9.82164 7.37819 10.2577 7.05895C10.6937 6.73972 10.8884 6.17911 10.8884 5.48614C10.8884 5.10461 10.8261 4.73087 10.7015 4.48171C10.5769 4.23255 10.39 4.0379 10.1331 3.85103C9.88393 3.72645 9.62699 3.60187 9.31554 3.53958C9.00409 3.47729 8.68486 3.47729 8.31112 3.47729H4.65938V7.57284C4.65938 7.56506 8.56028 7.56506 8.56028 7.56506ZM8.74715 15.0009C9.12867 15.0009 9.50241 14.9386 9.82164 14.8763C10.1331 14.814 10.4523 14.6894 10.7015 14.4948C10.9506 14.3001 11.1453 14.1133 11.3322 13.8018C11.4567 13.4904 11.5813 13.1088 11.5813 12.665C11.5813 11.7852 11.3322 11.1545 10.8261 10.7107C10.32 10.3292 9.62699 10.1423 8.80943 10.1423H4.65938V14.9931H8.74715V15.0009Z" fill="white"/>
<path d="M20.9091 14.9385C21.4152 15.4446 22.1704 15.6938 23.1749 15.6938C23.8678 15.6938 24.4985 15.5069 25.0046 15.1877C25.5107 14.8061 25.8222 14.4324 25.9468 14.0509H29.0301C28.524 15.5614 27.7687 16.6359 26.7643 17.3289C25.7599 17.9596 24.5608 18.3333 23.1126 18.3333C22.1081 18.3333 21.2205 18.1464 20.403 17.8272C19.5854 17.5157 18.9547 17.0719 18.3863 16.4412C17.8179 15.8729 17.3819 15.1799 17.125 14.3623C16.8135 13.5448 16.6812 12.6649 16.6812 11.6527C16.6812 10.7106 16.8057 9.82296 17.125 9.0054C17.4442 8.18785 17.8802 7.49488 18.4486 6.86419C19.017 6.2958 19.71 5.7897 20.4653 5.47825C21.2828 5.1668 22.1004 4.97214 23.1126 4.97214C24.1871 4.97214 25.1292 5.15901 25.9468 5.60283C26.7643 6.04664 27.395 6.54496 27.9011 7.30022C28.4072 7.9932 28.7809 8.81075 29.0379 9.69059C29.1625 10.5704 29.2248 11.4581 29.1625 12.4625H20.0292C20.0292 13.4903 20.403 14.4324 20.9091 14.9385ZM24.88 8.32022C24.4362 7.8764 23.7433 7.62724 22.9257 7.62724C22.3573 7.62724 21.9213 7.75182 21.5398 7.93869C21.1582 8.12556 20.9091 8.38251 20.6599 8.63167C20.4108 8.88083 20.2784 9.20006 20.2161 9.51151C20.1538 9.82296 20.0915 10.0799 20.0915 10.3291H25.7599C25.6353 9.39472 25.3161 8.76403 24.88 8.32022ZM19.3363 1.70972H26.3906V3.40711H19.3363V1.70972Z" fill="white"/>
</svg>
