<svg width="50" height="50" viewBox="0 0 50 50" fill="none" xmlns="http://www.w3.org/2000/svg">
<path d="M35.0418 27.0834H14.9585C15.7918 24.6459 18.1043 22.9167 20.8335 22.9167H29.1668C30.896 22.9167 32.4585 23.6251 33.5835 24.7501C34.2293 25.3959 34.7502 26.1876 35.0418 27.0834Z" fill="#F7AA4F"/>
<path opacity="0.35" d="M37.8957 47.9166H12.104C9.96234 47.9166 8.17068 46.2937 7.95818 44.1645L6.70818 31.6645C6.46234 29.2124 8.38943 27.0833 10.854 27.0833H39.1457C41.6103 27.0833 43.5373 29.2124 43.2915 31.6645L42.0415 44.1645C41.829 46.2937 40.0373 47.9166 37.8957 47.9166Z" fill="#F7AA4F"/>
<path d="M25 41.6667C26.7259 41.6667 28.125 40.2676 28.125 38.5417C28.125 36.8159 26.7259 35.4167 25 35.4167C23.2741 35.4167 21.875 36.8159 21.875 38.5417C21.875 40.2676 23.2741 41.6667 25 41.6667Z" fill="#F7AA4F"/>
<path opacity="0.35" d="M25 20.8333C28.4518 20.8333 31.25 18.035 31.25 14.5833C31.25 11.1315 28.4518 8.33325 25 8.33325C21.5482 8.33325 18.75 11.1315 18.75 14.5833C18.75 18.035 21.5482 20.8333 25 20.8333Z" fill="#F7AA4F"/>
<path d="M12.6981 10.6459L12.5065 10.598L10.7148 10.1501L12.1815 7.36053C12.6523 6.4647 12.4169 5.33553 11.5794 4.71261C10.6523 4.02303 9.34395 4.2147 8.65437 5.1397L4.67104 10.4876C4.48562 10.7397 4.3377 11.0397 4.25645 11.3626C3.92729 12.6834 4.72937 14.023 6.05229 14.3543L6.24395 14.4022L8.03562 14.8501L6.57104 17.6397C6.1002 18.5355 6.33562 19.6647 7.17312 20.2876C8.09812 20.9772 9.40854 20.7855 10.0981 19.8605L14.0794 14.5126C14.2648 14.2605 14.4127 13.9605 14.494 13.6376C14.8231 12.3168 14.021 10.9772 12.6981 10.6459Z" fill="#F7AA4F"/>
<path d="M45.3292 10.4876L41.3479 5.13966C40.7438 4.32716 39.6229 4.05216 38.7 4.53758C37.6792 5.07508 37.2854 6.33758 37.8208 7.35841L39.2875 10.148L37.4958 10.5959L37.2917 10.6459C36.9896 10.723 36.6958 10.8605 36.4292 11.0584C35.3333 11.8751 35.1083 13.4209 35.9208 14.5126L39.9021 19.8605C40.5063 20.673 41.6271 20.948 42.55 20.4626C43.5708 19.9251 43.9646 18.6626 43.4292 17.6417L41.9625 14.8522L43.7542 14.4042L43.9583 14.3542C44.2604 14.2772 44.5542 14.1397 44.8208 13.9417C45.9167 13.1251 46.1417 11.5792 45.3292 10.4876Z" fill="#F7AA4F"/>
</svg>
