<svg width="56" height="56" viewBox="0 0 56 56" fill="none" xmlns="http://www.w3.org/2000/svg">
<path opacity="0.35" d="M44.3333 23.3333H41.9999V18.6667C41.9999 17.3787 40.9546 16.3333 39.6666 16.3333H11.6666C10.3786 16.3333 9.33325 17.3787 9.33325 18.6667V44.3333C9.33325 48.1997 12.4669 51.3333 16.3333 51.3333H34.9999C38.8663 51.3333 41.9999 48.1997 41.9999 44.3333H44.3333C48.1996 44.3333 51.3333 41.1997 51.3333 37.3333V30.3333C51.3333 26.467 48.1996 23.3333 44.3333 23.3333ZM46.6666 37.3333C46.6666 38.6213 45.6213 39.6667 44.3333 39.6667H41.9999V28H44.3333C45.6213 28 46.6666 29.0453 46.6666 30.3333V37.3333Z" fill="#F7E64F"/>
<path d="M21.0001 2.33333C22.2881 2.33333 23.3334 3.37866 23.3334 4.66666V9.33333C23.3334 10.6213 22.2881 11.6667 21.0001 11.6667C19.7121 11.6667 18.6667 10.6213 18.6667 9.33333V4.66666C18.6667 3.37866 19.7121 2.33333 21.0001 2.33333Z" fill="#F7E64F"/>
<path d="M30.3333 4.66667C31.6213 4.66667 32.6667 5.71201 32.6667 7V9.33334C32.6667 10.6213 31.6213 11.6667 30.3333 11.6667C29.0453 11.6667 28 10.6213 28 9.33334V7C28 5.71201 29.0453 4.66667 30.3333 4.66667Z" fill="#F7E64F"/>
<path d="M33.8426 34.6057C33.1449 33.5067 32.6036 32.3353 32.2256 31.0893C31.4486 28.5297 29.6099 26.5813 27.3279 25.9257C26.5066 23.3217 25.1929 21.8937 24.9829 21.6837C24.0799 20.7807 22.6403 20.79 21.7256 21.6697C20.8109 22.5563 20.7899 24.0263 21.6579 24.955C21.6929 24.9923 22.1573 25.5173 22.5889 26.5113C20.9766 27.4447 19.7189 29.085 19.1076 31.0893C18.7296 32.3353 18.1883 33.5067 17.4906 34.6057C16.7579 35.7607 16.3333 37.0837 16.3333 38.5C16.3333 43.0103 20.5123 46.6667 25.6666 46.6667C30.8209 46.6667 34.9999 43.0103 34.9999 38.5C34.9999 37.0837 34.5753 35.7607 33.8426 34.6057Z" fill="#F7E64F"/>
</svg>
