<svg width="543" height="615" viewBox="0 0 543 615" fill="none" xmlns="http://www.w3.org/2000/svg">
<path fill-rule="evenodd" clip-rule="evenodd" d="M145.737 315.228C147.147 307.707 143.202 299.956 135.934 297.562L80.4256 279.275C73.0324 276.839 65.0169 280.85 63.0695 288.386C57.1805 311.177 55.0563 334.811 56.8119 358.348C58.9175 386.578 66.5627 414.116 79.3109 439.391C92.0592 464.665 109.661 487.182 131.111 505.654C152.561 524.126 177.439 538.193 204.326 547.051C231.212 555.908 259.58 559.383 287.809 557.278C316.039 555.172 343.577 547.527 368.852 534.779C394.126 522.03 416.643 504.429 435.115 482.979C450.517 465.094 462.856 444.825 471.667 422.997C474.581 415.779 470.518 407.789 463.125 405.354L401.824 385.158C394.555 382.764 386.776 386.652 383.44 393.539C378.677 403.369 372.648 412.561 365.488 420.875C354.67 433.437 341.482 443.746 326.68 451.213C311.877 458.679 295.748 463.157 279.215 464.39C262.682 465.623 246.067 463.588 230.32 458.4C214.574 453.212 200.003 444.974 187.44 434.155C174.877 423.336 164.568 410.149 157.102 395.346C149.636 380.543 145.158 364.415 143.925 347.881C143.109 336.941 143.724 325.965 145.737 315.228Z" fill="#F7E64F"/>
<circle cx="170.297" cy="144.298" r="116.977" transform="rotate(15.7221 170.297 144.298)" fill="#A2E053"/>
<circle cx="492.939" cy="277.939" r="96.4191" transform="rotate(15.7221 492.939 277.939)" fill="#ADA1FF"/>
</svg>
