<svg width="363" height="537" viewBox="0 0 363 537" fill="none" xmlns="http://www.w3.org/2000/svg">
<path d="M251.478 385.754C258.548 384.127 264.728 390.763 262.602 397.699L224.848 520.899C222.723 527.835 213.885 529.869 208.941 524.56L121.125 430.265C116.18 424.956 118.837 416.285 125.907 414.658L251.478 385.754Z" fill="#A2E053"/>
<path d="M228.965 101.833C233.305 98.9112 238.984 98.9112 243.324 101.833L300.858 140.563L355.48 183.293C359.603 186.518 361.359 191.921 359.919 196.954L340.854 263.617L317.081 328.755C315.287 333.671 310.692 337.009 305.462 337.195L236.145 339.669L166.827 337.195C161.597 337.009 157.002 333.671 155.208 328.755L131.435 263.617L112.37 196.954C110.931 191.921 112.686 186.518 116.809 183.293L171.431 140.563L228.965 101.833Z" fill="#ADA1FF"/>
<rect y="51.4241" width="121.475" height="121.475" transform="rotate(-25.045 0 51.4241)" fill="#F7E64F"/>
</svg>
