<svg width="56" height="57" viewBox="0 0 56 57" fill="none" xmlns="http://www.w3.org/2000/svg">
<path opacity="0.35" d="M34.8202 8.94737C34.5845 8.3757 34.1295 7.9207 33.5579 7.68504C33.2732 7.56837 32.9699 7.50537 32.6665 7.50537H26.6325C24.5535 7.50537 23.5129 10.0184 24.9829 11.4884L26.3479 12.8534L7.78386 29.0957C6.82019 29.9497 6.73386 31.4267 7.59019 32.388C8.04986 32.9084 8.69152 33.172 9.33319 33.172C9.88386 33.172 10.4369 32.9784 10.8825 32.5817L29.5492 16.2484C29.5865 16.2157 29.6005 16.1714 29.6332 16.1387L29.6495 16.155L31.0169 17.5224C32.4869 18.9924 34.9999 17.9517 34.9999 15.8727V9.8387C34.9999 9.53537 34.9369 9.23204 34.8202 8.94737Z" fill="#F7E64F"/>
<path d="M39.6668 16.8388V23.8388H35.0002C32.4218 23.8388 30.3335 25.9271 30.3335 28.5055V33.1721H25.6668C23.0885 33.1721 21.0002 35.2605 21.0002 37.8388V42.5055H14.0002C11.4218 42.5055 9.3335 44.5938 9.3335 47.1721C9.3335 49.7505 11.4218 51.8388 14.0002 51.8388H44.3335C48.1998 51.8388 51.3335 48.7051 51.3335 44.8388V16.8388C51.3335 14.2605 49.2452 12.1721 46.6668 12.1721H44.3335C41.7552 12.1721 39.6668 14.2605 39.6668 16.8388Z" fill="#F7E64F"/>
</svg>
