<svg width="56" height="56" viewBox="0 0 56 56" fill="none" xmlns="http://www.w3.org/2000/svg">
<path opacity="0.35" d="M34.8204 8.442C34.5848 7.87033 34.1298 7.41533 33.5581 7.17967C33.2734 7.063 32.9701 7 32.6668 7H26.6328C24.5538 7 23.5131 9.513 24.9831 10.983L26.3481 12.348L7.7841 28.5903C6.82043 29.4443 6.7341 30.9213 7.59043 31.8827C8.0501 32.403 8.69177 32.6667 9.33343 32.6667C9.8841 32.6667 10.4371 32.473 10.8828 32.0763L29.5494 15.743C29.5868 15.7103 29.6008 15.666 29.6334 15.6333L29.6498 15.6497L31.0171 17.017C32.4871 18.487 35.0001 17.4463 35.0001 15.3673V9.33333C35.0001 9.03 34.9371 8.72667 34.8204 8.442Z" fill="#F7E64F"/>
<path d="M39.6666 16.3334V23.3334H34.9999C32.4216 23.3334 30.3333 25.4217 30.3333 28.0001V32.6667H25.6666C23.0883 32.6667 20.9999 34.7551 20.9999 37.3334V42.0001H13.9999C11.4216 42.0001 9.33325 44.0884 9.33325 46.6668C9.33325 49.2451 11.4216 51.3334 13.9999 51.3334H44.3333C48.1996 51.3334 51.3333 48.1997 51.3333 44.3334V16.3334C51.3333 13.7551 49.2449 11.6667 46.6666 11.6667H44.3333C41.7549 11.6667 39.6666 13.7551 39.6666 16.3334Z" fill="#F7E64F"/>
</svg>
