<svg width="486" height="482" viewBox="0 0 486 482" fill="none" xmlns="http://www.w3.org/2000/svg">
<path d="M76.096 217.905C75.9025 209.944 84.3993 204.759 91.3901 208.572L215.559 276.293C222.55 280.106 222.792 290.057 215.994 294.205L95.2613 367.878C88.4639 372.025 79.7253 367.26 79.5319 359.299L76.096 217.905Z" fill="#A2E053"/>
<path d="M432.723 27.9034C434.309 25.6289 437.115 24.5423 439.819 25.1557L475.664 33.2864L510.835 43.9511C513.49 44.7561 515.391 47.0904 515.643 49.8531L518.978 86.4464L519.694 123.186C519.748 125.959 518.116 128.488 515.567 129.581L481.783 144.068L447.053 156.11C444.433 157.019 441.523 156.249 439.696 154.162L415.483 126.521L393.304 97.2241C391.63 95.0122 391.463 92.006 392.884 89.6231L411.701 58.0537L432.723 27.9034Z" fill="#ADA1FF"/>
<path d="M226.139 330.03C220.267 322.651 209.908 319.927 201.752 324.66L149.52 354.97C141.224 359.784 138.349 370.454 143.759 378.375C157.969 399.181 175.433 417.615 195.515 432.954C220.205 451.812 248.367 465.623 278.394 473.598C308.422 481.573 339.726 483.555 370.519 479.432C401.312 475.309 430.992 465.161 457.863 449.567C484.735 433.974 508.272 413.24 527.131 388.55C545.989 363.861 559.8 335.698 567.775 305.671C575.75 275.644 577.732 244.34 573.609 213.546C570.255 188.5 562.915 164.191 551.902 141.53C547.709 132.903 537.019 130.105 528.723 134.919L470.701 168.589C462.545 173.322 459.77 183.668 463.264 192.427C467.475 202.986 470.381 214.048 471.896 225.367C474.311 243.402 473.15 261.736 468.48 279.323C463.809 296.909 455.72 313.403 444.675 327.863C433.63 342.324 419.845 354.467 404.107 363.599C388.369 372.732 370.986 378.676 352.951 381.09C334.916 383.505 316.582 382.344 298.996 377.674C281.41 373.003 264.916 364.914 250.456 353.869C241.38 346.937 233.217 338.926 226.139 330.03Z" fill="#F7E64F"/>
</svg>
