<svg width="131" height="30" viewBox="0 0 131 30" fill="none" xmlns="http://www.w3.org/2000/svg">
<path d="M0 16.0437C0 14.886 0.198 13.8074 0.588924 12.7965C0.979847 11.7913 1.518 10.9104 2.19323 10.1593C2.86846 9.40824 3.66047 8.81528 4.56416 8.3748C5.46785 7.93997 6.43754 7.71973 7.45801 7.71973C8.47847 7.71973 9.44309 7.91738 10.3417 8.31268C11.2403 8.70798 12.0171 9.27835 12.6669 10.0238C12.7685 10.1537 12.8243 10.2948 12.8345 10.4473C12.8396 10.5941 12.7837 10.7353 12.6669 10.8709L12.0425 11.5655C11.9257 11.6953 11.7937 11.7575 11.6516 11.7518C11.5094 11.7462 11.3875 11.6841 11.286 11.5655C10.8088 11.0177 10.2402 10.6054 9.58016 10.3287C8.92016 10.0464 8.20939 9.90519 7.45293 9.90519C6.69647 9.90519 5.98062 10.069 5.31554 10.3908C4.64539 10.7127 4.06662 11.1532 3.56908 11.7066C3.07154 12.2601 2.68062 12.9095 2.38616 13.6493C2.09677 14.3947 1.94954 15.1966 1.94954 16.055C1.94954 16.8964 2.09677 17.6927 2.38616 18.4437C2.67554 19.1948 3.06646 19.8499 3.56908 20.4033C4.06662 20.9567 4.65047 21.3916 5.31554 21.7191C5.9857 22.041 6.69647 22.2048 7.45293 22.2048C8.20939 22.2048 8.91509 22.0579 9.57001 21.7699C10.2249 21.4819 10.7935 21.064 11.286 20.5162C11.3774 20.4033 11.4942 20.3412 11.6414 20.3299C11.7886 20.3242 11.9257 20.3864 12.0425 20.5162L12.6669 21.2334C12.7837 21.352 12.8396 21.4876 12.8345 21.657C12.8243 21.8207 12.7736 21.9563 12.6669 22.0523C11.9968 22.7977 11.22 23.3681 10.3265 23.7634C9.43801 24.1587 8.47847 24.3563 7.45293 24.3563C6.42739 24.3563 5.46277 24.1417 4.55908 23.7126C3.65539 23.2834 2.86339 22.6904 2.18816 21.9393C1.51292 21.1883 0.979847 20.3073 0.583847 19.3021C0.192923 18.2856 0 17.2013 0 16.0437Z" fill="white"/>
<path d="M14.0986 18.7712C14.0986 17.9636 14.2306 17.2125 14.4997 16.5292C14.7688 15.8459 15.1292 15.2586 15.5811 14.7673C16.0329 14.2816 16.566 13.8976 17.1753 13.6266C17.7845 13.3555 18.4293 13.22 19.1146 13.22C19.8 13.22 20.4448 13.3555 21.054 13.6266C21.6633 13.8976 22.1913 14.2816 22.6482 14.7673C23.1 15.253 23.4554 15.8403 23.7194 16.5292C23.9783 17.2125 24.1103 17.9636 24.1103 18.7712C24.1103 19.5956 23.9783 20.3524 23.7194 21.0357C23.4605 21.719 23.1051 22.3063 22.6482 22.7976C22.1963 23.2833 21.6633 23.6673 21.054 23.9383C20.4448 24.2094 19.8 24.3449 19.1146 24.3449C18.4293 24.3449 17.7845 24.2094 17.1753 23.9383C16.566 23.6673 16.0329 23.2833 15.5811 22.7976C15.1292 22.3119 14.7688 21.7246 14.4997 21.0357C14.2306 20.3524 14.0986 19.5956 14.0986 18.7712ZM16.0329 18.7712C16.0329 19.302 16.1142 19.7764 16.2766 20.1942C16.4391 20.6178 16.6625 20.9736 16.9468 21.2616C17.2311 21.5496 17.556 21.7755 17.9266 21.9279C18.2973 22.0861 18.6933 22.1651 19.1096 22.1651C19.5259 22.1651 19.9168 22.0861 20.2925 21.9279C20.6631 21.7698 20.988 21.5496 21.2622 21.2616C21.5363 20.9736 21.7546 20.6178 21.9069 20.1942C22.0643 19.7707 22.1405 19.2963 22.1405 18.7712C22.1405 18.2573 22.0643 17.7942 21.9069 17.3707C21.7496 16.9471 21.5363 16.597 21.2622 16.3203C20.988 16.0379 20.6631 15.8233 20.2925 15.6652C19.9219 15.5071 19.5259 15.428 19.1096 15.428C18.6933 15.428 18.3023 15.5071 17.9266 15.6652C17.556 15.8233 17.226 16.0436 16.9468 16.3203C16.6625 16.6026 16.4442 16.9528 16.2766 17.3707C16.1142 17.7885 16.0329 18.2573 16.0329 18.7712Z" fill="white"/>
<path d="M34.8328 7.91727C34.98 7.91727 35.1019 7.97374 35.1984 8.08104C35.2948 8.18833 35.3456 8.33516 35.3456 8.51587V23.5543C35.3456 23.7011 35.2948 23.8367 35.1984 23.9496C35.1019 24.0682 34.98 24.1247 34.8328 24.1247H33.8987C33.7514 24.1247 33.6296 24.0682 33.5331 23.9496C33.4367 23.8367 33.391 23.7011 33.391 23.5543V23.5035C33.3757 23.4018 33.2945 23.3906 33.1473 23.4527C32.3451 24.0456 31.411 24.3449 30.3397 24.3449C29.6543 24.3449 29.0096 24.2094 28.4004 23.9383C27.7911 23.6673 27.2631 23.2833 26.8062 22.7976C26.3543 22.3119 25.9939 21.7246 25.7248 21.0357C25.4557 20.3524 25.3237 19.5956 25.3237 18.7712C25.3237 17.9636 25.4557 17.2125 25.7248 16.5292C25.9939 15.8459 26.3543 15.2586 26.8062 14.7673C27.258 14.2816 27.7911 13.8976 28.4004 13.6266C29.0096 13.3555 29.6543 13.22 30.3397 13.22C31.35 13.22 32.2537 13.5023 33.0559 14.0614C33.1727 14.1461 33.259 14.1743 33.3097 14.1461C33.3605 14.1235 33.3859 14.0162 33.3859 13.8355V8.51022C33.3859 8.32951 33.4316 8.18269 33.528 8.07539C33.6245 7.96809 33.7464 7.91162 33.8936 7.91162H34.8328V7.91727ZM27.5271 20.1942C27.6896 20.6178 27.9079 20.9736 28.182 21.2616C28.4562 21.5496 28.7811 21.7755 29.1517 21.9279C29.5224 22.0861 29.9184 22.1651 30.3347 22.1651C31.1977 22.1651 31.9187 21.8658 32.4974 21.2616C33.0762 20.6573 33.3656 19.8272 33.3656 18.7712C33.3656 18.2573 33.2894 17.7942 33.132 17.3707C32.9747 16.9471 32.7665 16.597 32.4974 16.3203C32.2284 16.0379 31.9085 15.8233 31.5379 15.6652C31.1673 15.5071 30.7662 15.428 30.3347 15.428C29.9184 15.428 29.5224 15.5071 29.1517 15.6652C28.7811 15.8233 28.4562 16.0436 28.182 16.3203C27.9079 16.6026 27.6896 16.9528 27.5271 17.3707C27.3647 17.7942 27.2834 18.2573 27.2834 18.7712C27.2834 19.2963 27.3647 19.7707 27.5271 20.1942Z" fill="white"/>
<path d="M37.5947 11.2154C37.5947 10.8992 37.6912 10.6394 37.8841 10.4361C38.077 10.2271 38.3055 10.1255 38.5746 10.1255C38.8589 10.1255 39.0924 10.2271 39.2752 10.4361C39.463 10.645 39.5544 10.9048 39.5544 11.2154C39.5544 11.5147 39.463 11.7688 39.2752 11.9834C39.0873 12.198 38.8538 12.3053 38.5746 12.3053C38.3055 12.3053 38.077 12.198 37.8841 11.9834C37.6912 11.7688 37.5947 11.509 37.5947 11.2154ZM39.0467 13.4686C39.194 13.4686 39.3158 13.5251 39.4123 13.6324C39.5087 13.7397 39.5595 13.8865 39.5595 14.0672V23.5545C39.5595 23.7013 39.5087 23.8369 39.4123 23.9498C39.3158 24.0684 39.194 24.1249 39.0467 24.1249H38.1126C37.9653 24.1249 37.8435 24.0684 37.747 23.9498C37.6506 23.8369 37.5998 23.7013 37.5998 23.5545V14.0672C37.5998 13.8865 37.6455 13.7397 37.747 13.6324C37.8435 13.5251 37.9653 13.4686 38.1126 13.4686H39.0467Z" fill="white"/>
<path d="M49.8453 18.7714C49.8453 18.2575 49.7692 17.7944 49.6118 17.3709C49.4544 16.9473 49.2412 16.5972 48.967 16.3205C48.6929 16.0381 48.3679 15.8235 47.9973 15.6654C47.6267 15.5073 47.2307 15.4282 46.8144 15.4282C46.4133 15.4282 46.0275 15.5016 45.6569 15.6485C45.2862 15.7953 44.9562 16.0099 44.677 16.281C44.3927 16.552 44.1744 16.8852 44.0069 17.2862C43.8444 17.6815 43.7632 18.1276 43.7632 18.6245V23.5545C43.7632 23.7014 43.7124 23.8369 43.6159 23.9498C43.5195 24.0684 43.3976 24.1249 43.2504 24.1249H42.3162C42.169 24.1249 42.0472 24.0684 41.9507 23.9498C41.8542 23.8369 41.8035 23.7014 41.8035 23.5545V14.0673C41.8035 13.8866 41.8492 13.7397 41.9507 13.6324C42.0472 13.5251 42.169 13.4687 42.3162 13.4687H43.2504C43.3976 13.4687 43.5195 13.5251 43.6159 13.6324C43.7124 13.7397 43.7632 13.8866 43.7632 14.0673C43.7632 14.2141 43.8495 14.2367 44.017 14.1294C44.1896 14.0221 44.3978 13.9035 44.6516 13.768C44.9918 13.6042 45.3421 13.4687 45.6975 13.3727C46.0529 13.271 46.4235 13.2258 46.8093 13.2258C47.4896 13.2258 48.1395 13.3614 48.7487 13.6324C49.3579 13.9035 49.8859 14.2875 50.3429 14.7732C50.7947 15.2588 51.1501 15.8461 51.4141 16.5351C51.673 17.2184 51.805 17.9695 51.805 18.777V23.5602C51.805 23.707 51.7542 23.8425 51.6578 23.9555C51.5613 24.0741 51.4395 24.1305 51.2922 24.1305H50.3581C50.2261 24.1305 50.1042 24.0741 50.0027 23.9555C49.8961 23.8425 49.8453 23.707 49.8453 23.5602V18.7714Z" fill="white"/>
<path d="M61.3192 23.5037C61.3192 23.3738 61.2126 23.3625 61.0095 23.4811C60.6541 23.7296 60.2327 23.9329 59.7504 24.1023C59.2681 24.2661 58.7756 24.3508 58.268 24.3508C57.5826 24.3508 56.9378 24.2153 56.3286 23.9442C55.7193 23.6731 55.1863 23.2891 54.7344 22.8035C54.2826 22.3178 53.9221 21.7305 53.653 21.0415C53.384 20.3582 53.252 19.6015 53.252 18.777C53.252 17.9695 53.384 17.2184 53.653 16.5351C53.9221 15.8518 54.2826 15.2645 54.7344 14.7732C55.1863 14.2875 55.7193 13.9035 56.3286 13.6324C56.9378 13.3614 57.5826 13.2258 58.268 13.2258C58.73 13.2258 59.1666 13.2936 59.5829 13.4235C59.9992 13.5534 60.4003 13.7397 60.7861 13.9713C60.9486 14.056 61.0755 14.1181 61.1669 14.1689C61.2583 14.2197 61.309 14.1915 61.3243 14.0955V14.0447C61.3243 13.8978 61.37 13.7623 61.4715 13.6494C61.568 13.5364 61.6898 13.4743 61.837 13.4743H62.7509C62.8981 13.4743 63.02 13.5308 63.1164 13.6494C63.2129 13.768 63.2637 13.8978 63.2637 14.0447V24.3508C63.2637 25.1753 63.1317 25.9263 62.8626 26.604C62.5935 27.2817 62.233 27.8633 61.7812 28.349C61.3293 28.8346 60.8013 29.2187 60.1972 29.4897C59.5981 29.7608 58.9533 29.8963 58.268 29.8963C57.4201 29.8963 56.6484 29.7043 55.9529 29.326C55.2523 28.9476 54.6735 28.4111 54.2166 27.7165C54.1404 27.5866 54.115 27.4398 54.1252 27.2817C54.1404 27.1235 54.2064 26.9993 54.3232 26.8977L55.0136 26.3047C55.1304 26.1748 55.2675 26.1184 55.4147 26.1409C55.562 26.1635 55.6838 26.2426 55.7701 26.3781C56.0544 26.8073 56.4098 27.1348 56.8413 27.3664C57.2729 27.5979 57.745 27.7109 58.268 27.7109C58.6843 27.7109 59.0752 27.6318 59.4356 27.4737C59.8012 27.3156 60.121 27.0953 60.4053 26.8073C60.6897 26.5193 60.908 26.1692 61.0755 25.7569C61.238 25.3447 61.3192 24.8703 61.3192 24.3451V23.5037ZM55.1913 18.7714C55.1913 19.3022 55.2726 19.7766 55.435 20.1945C55.5975 20.618 55.8209 20.9738 56.1052 21.2618C56.3895 21.5498 56.7144 21.7757 57.085 21.9281C57.4557 22.0863 57.8516 22.1653 58.268 22.1653C58.6843 22.1653 59.0752 22.0863 59.4509 21.9281C59.8215 21.77 60.1464 21.5498 60.4206 21.2618C60.6947 20.9738 60.913 20.618 61.0653 20.1945C61.2227 19.7709 61.2989 19.2966 61.2989 18.7714C61.2989 18.2575 61.2227 17.7944 61.0653 17.3709C60.908 16.9473 60.6947 16.5972 60.4206 16.3205C60.1464 16.0381 59.8215 15.8235 59.4509 15.6654C59.0803 15.5073 58.6843 15.4282 58.268 15.4282C57.8516 15.4282 57.4607 15.5073 57.085 15.6654C56.7144 15.8235 56.3844 16.0438 56.1052 16.3205C55.8209 16.6028 55.6026 16.953 55.435 17.3709C55.2726 17.7888 55.1913 18.2575 55.1913 18.7714Z" fill="white"/>
<path d="M97.4465 13.4687C97.5937 13.4687 97.7156 13.5251 97.812 13.6324C97.9085 13.7397 97.9593 13.8866 97.9593 14.0673V23.5545C97.9593 23.7014 97.9085 23.8369 97.812 23.9498C97.7156 24.0684 97.5937 24.1249 97.4465 24.1249H96.5326C96.3854 24.1249 96.2636 24.0684 96.1671 23.9498C96.0706 23.8369 96.0199 23.7014 96.0199 23.5545V23.5037C96.0199 23.3738 95.9133 23.3625 95.7102 23.4811C95.2786 23.7296 94.842 23.9329 94.3953 24.1023C93.9485 24.2661 93.4763 24.3508 92.9686 24.3508C92.2833 24.3508 91.6385 24.2153 91.0293 23.9442C90.42 23.6731 89.8869 23.2891 89.4351 22.8035C88.9833 22.3178 88.6228 21.7305 88.3537 21.0415C88.0846 20.3582 87.9526 19.6015 87.9526 18.777C87.9526 17.9695 88.0846 17.2184 88.3537 16.5351C88.6228 15.8518 88.9833 15.2645 89.4351 14.7732C89.8869 14.2875 90.42 13.9035 91.0293 13.6324C91.6385 13.3614 92.2833 13.2258 92.9686 13.2258C93.3393 13.2258 93.6997 13.271 94.05 13.3614C94.4003 13.4517 94.7354 13.5703 95.0654 13.7228C95.3599 13.8527 95.5883 13.9882 95.7457 14.1181C95.9031 14.248 95.9945 14.248 96.025 14.1181V14.0673C96.025 13.8866 96.0706 13.7397 96.1722 13.6324C96.2686 13.5251 96.3905 13.4687 96.5377 13.4687H97.4465ZM89.8971 18.7714C89.8971 19.3022 89.9783 19.7766 90.1408 20.1945C90.3033 20.618 90.5266 20.9738 90.8109 21.2618C91.0953 21.5498 91.4202 21.7757 91.7908 21.9281C92.1614 22.0863 92.5574 22.1653 92.9737 22.1653C93.39 22.1653 93.7809 22.0863 94.1566 21.9281C94.5273 21.77 94.8522 21.5498 95.1263 21.2618C95.4005 20.9738 95.6188 20.618 95.7711 20.1945C95.9285 19.7709 96.0046 19.2966 96.0046 18.7714C96.0046 18.2575 95.9285 17.7944 95.7711 17.3709C95.6137 16.9473 95.4005 16.5972 95.1263 16.3205C94.8522 16.0381 94.5273 15.8235 94.1566 15.6654C93.786 15.5073 93.39 15.4282 92.9737 15.4282C92.5574 15.4282 92.1665 15.5073 91.7908 15.6654C91.4202 15.8235 91.0902 16.0438 90.8109 16.3205C90.5266 16.6028 90.3083 16.953 90.1408 17.3709C89.9783 17.7888 89.8971 18.2575 89.8971 18.7714Z" fill="white"/>
<path d="M108.047 18.7714C108.047 18.2575 107.971 17.7944 107.814 17.3709C107.656 16.9473 107.443 16.5972 107.169 16.3205C106.895 16.0381 106.57 15.8235 106.199 15.6654C105.829 15.5073 105.433 15.4282 105.016 15.4282C104.615 15.4282 104.229 15.5016 103.859 15.6485C103.488 15.7953 103.158 16.0099 102.879 16.281C102.595 16.552 102.376 16.8852 102.209 17.2862C102.046 17.6815 101.965 18.1276 101.965 18.6245V23.5545C101.965 23.7014 101.914 23.8369 101.818 23.9498C101.721 24.0684 101.6 24.1249 101.452 24.1249H100.518C100.371 24.1249 100.249 24.0684 100.153 23.9498C100.056 23.8369 100.005 23.7014 100.005 23.5545V14.0673C100.005 13.8866 100.051 13.7397 100.153 13.6324C100.249 13.5251 100.371 13.4687 100.518 13.4687H101.452C101.6 13.4687 101.721 13.5251 101.818 13.6324C101.914 13.7397 101.965 13.8866 101.965 14.0673C101.965 14.2141 102.051 14.2367 102.219 14.1294C102.392 14.0221 102.6 13.9035 102.854 13.768C103.194 13.6042 103.544 13.4687 103.899 13.3727C104.255 13.271 104.625 13.2258 105.011 13.2258C105.692 13.2258 106.341 13.3614 106.951 13.6324C107.56 13.9035 108.088 14.2875 108.545 14.7732C108.997 15.2588 109.352 15.8461 109.616 16.5351C109.875 17.2184 110.007 17.9695 110.007 18.777V23.5602C110.007 23.707 109.956 23.8425 109.86 23.9555C109.763 24.0741 109.641 24.1305 109.494 24.1305H108.56C108.428 24.1305 108.306 24.0741 108.205 23.9555C108.098 23.8425 108.047 23.707 108.047 23.5602V18.7714Z" fill="white"/>
<path d="M120.948 7.91727C121.095 7.91727 121.217 7.97374 121.313 8.08104C121.41 8.18833 121.461 8.33516 121.461 8.51587V23.5543C121.461 23.7011 121.41 23.8367 121.313 23.9496C121.217 24.0682 121.095 24.1247 120.948 24.1247H120.014C119.866 24.1247 119.745 24.0682 119.648 23.9496C119.552 23.8367 119.506 23.7011 119.506 23.5543V23.5035C119.491 23.4018 119.41 23.3906 119.262 23.4527C118.46 24.0456 117.526 24.3449 116.455 24.3449C115.769 24.3449 115.125 24.2094 114.515 23.9383C113.906 23.6673 113.378 23.2833 112.921 22.7976C112.469 22.3119 112.109 21.7246 111.84 21.0357C111.571 20.3524 111.439 19.5956 111.439 18.7712C111.439 17.9636 111.571 17.2125 111.84 16.5292C112.109 15.8459 112.469 15.2586 112.921 14.7673C113.373 14.2816 113.906 13.8976 114.515 13.6266C115.125 13.3555 115.769 13.22 116.455 13.22C117.465 13.22 118.369 13.5023 119.171 14.0614C119.288 14.1461 119.374 14.1743 119.425 14.1461C119.476 14.1235 119.501 14.0162 119.501 13.8355V8.51022C119.501 8.32951 119.547 8.18269 119.643 8.07539C119.74 7.96809 119.861 7.91162 120.009 7.91162H120.948V7.91727ZM113.637 20.1942C113.799 20.6178 114.018 20.9736 114.292 21.2616C114.566 21.5496 114.891 21.7755 115.262 21.9279C115.632 22.0861 116.028 22.1651 116.445 22.1651C117.308 22.1651 118.029 21.8658 118.607 21.2616C119.186 20.6573 119.476 19.8272 119.476 18.7712C119.476 18.2573 119.399 17.7942 119.242 17.3707C119.085 16.9471 118.876 16.597 118.607 16.3203C118.338 16.0379 118.018 15.8233 117.648 15.6652C117.277 15.5071 116.876 15.428 116.445 15.428C116.028 15.428 115.632 15.5071 115.262 15.6652C114.891 15.8233 114.566 16.0436 114.292 16.3203C114.018 16.6026 113.799 16.9528 113.637 17.3707C113.475 17.7942 113.393 18.2573 113.393 18.7712C113.393 19.2963 113.475 19.7707 113.637 20.1942Z" fill="white"/>
<path d="M128.517 16.3655C128.502 16.1 128.38 15.8516 128.152 15.62C127.923 15.3885 127.553 15.2755 127.05 15.2755C126.573 15.2755 126.202 15.3885 125.938 15.62C125.669 15.8516 125.537 16.1057 125.537 16.388C125.537 16.7664 125.669 17.0431 125.938 17.2182C126.207 17.3932 126.542 17.5231 126.954 17.6135C127.36 17.7038 127.802 17.7885 128.269 17.8733C128.736 17.958 129.172 18.0935 129.584 18.2968C129.99 18.4944 130.33 18.7881 130.599 19.1778C130.868 19.5674 131 20.1152 131 20.8267C131 21.3576 130.898 21.8319 130.7 22.2611C130.502 22.6903 130.223 23.0517 129.878 23.351C129.528 23.6503 129.116 23.8819 128.639 24.0456C128.162 24.2094 127.659 24.2941 127.126 24.2941C126.563 24.2941 126.04 24.2094 125.558 24.0343C125.075 23.8593 124.654 23.6108 124.288 23.2889C123.923 22.967 123.638 22.5774 123.43 22.1256C123.222 21.6738 123.121 21.1712 123.121 20.6291C123.121 20.5274 123.151 20.4371 123.212 20.358C123.273 20.2733 123.354 20.2338 123.456 20.2338H124.725C124.842 20.2338 124.933 20.2733 124.994 20.358C125.055 20.4427 125.085 20.5331 125.085 20.6291C125.085 21.0583 125.268 21.4366 125.629 21.7585C125.994 22.0804 126.502 22.2442 127.157 22.2442C127.781 22.2442 128.248 22.1143 128.558 21.8489C128.868 21.5835 129.025 21.2729 129.025 20.9058C129.025 20.5895 128.893 20.3637 128.624 20.2225C128.355 20.0813 128.025 19.9684 127.624 19.878C127.223 19.7876 126.786 19.7029 126.309 19.6182C125.832 19.5335 125.395 19.3867 124.994 19.1721C124.593 18.9575 124.258 18.6526 123.994 18.2573C123.725 17.862 123.593 17.3142 123.593 16.6196C123.593 16.1057 123.684 15.6426 123.862 15.2191C124.04 14.7955 124.283 14.4398 124.598 14.1405C124.913 13.8412 125.278 13.6153 125.7 13.4572C126.121 13.299 126.578 13.22 127.07 13.22C127.573 13.22 128.04 13.3047 128.462 13.4684C128.883 13.6322 129.243 13.8637 129.543 14.1518C129.837 14.4398 130.076 14.7729 130.244 15.157C130.416 15.5353 130.497 15.9419 130.497 16.3711C130.497 16.4727 130.467 16.5575 130.406 16.6309C130.345 16.7043 130.264 16.7438 130.162 16.7438H128.893C128.776 16.7438 128.685 16.7043 128.624 16.6309C128.548 16.5518 128.517 16.4671 128.517 16.3655Z" fill="white"/>
<path d="M76.9004 16.4671C76.6719 16.4671 76.4841 16.676 76.4841 16.9301V20.838V20.9058C76.4688 22.3176 75.4331 23.4696 74.1639 23.4922C74.1639 23.4922 74.1639 23.4922 74.1588 23.4922C74.1537 23.4922 74.1537 23.4922 74.1537 23.4922C72.8896 23.4696 71.8488 22.3176 71.8336 20.9058V20.838V15.8459C71.8336 15.5918 71.6457 15.3828 71.4173 15.3828C71.1888 15.3828 71.001 15.5918 71.001 15.8459V20.8945C71.001 20.9058 71.001 20.9171 71.001 20.934L71.0314 21.3575C71.0314 21.3688 71.0314 21.3858 71.0365 21.3971C71.265 23.0912 72.5799 24.4014 74.1537 24.424H74.1588H74.1639C75.7428 24.4014 77.0628 23.0799 77.2862 21.3801L77.3218 20.9171V16.9301C77.3167 16.6704 77.1288 16.4671 76.9004 16.4671Z" fill="white"/>
<path d="M73.0522 14.0616C73.0522 14.0559 73.0522 14.0503 73.0522 14.0446C73.0522 13.8583 72.9202 13.7114 72.7527 13.7114C72.5851 13.7114 72.4531 13.8583 72.4531 14.0446C72.4531 14.0559 72.4531 14.0616 72.4531 14.0672V19.4603C72.4531 19.4659 72.4531 19.4772 72.4531 19.4828C72.4531 19.6692 72.5851 19.816 72.7527 19.816C72.9202 19.816 73.0522 19.6692 73.0522 19.4828V14.0616Z" fill="white"/>
<path d="M74.2451 12.8982C74.2451 12.8926 74.2451 12.8869 74.2451 12.8813C74.2451 12.6949 74.1131 12.5481 73.9455 12.5481C73.778 12.5481 73.646 12.6949 73.646 12.8813C73.646 12.8926 73.646 12.8982 73.646 12.9039V14.2987C73.646 14.3044 73.646 14.3157 73.646 14.3213C73.646 14.327 73.646 14.3383 73.646 14.3439V14.4964V15.6597V15.9364V19.4546C73.646 19.4602 73.646 19.4715 73.646 19.4772C73.646 19.6635 73.778 19.8104 73.9455 19.8104C74.1131 19.8104 74.2451 19.6635 74.2451 19.4772V15.9308V15.654V14.502V14.3383V12.8982Z" fill="white"/>
<path d="M81.0837 16.4671C81.3122 16.4671 81.5 16.676 81.5 16.9301V20.838V20.9058C81.5153 22.3176 82.551 23.4696 83.8202 23.4922C83.8202 23.4922 83.8202 23.4922 83.8253 23.4922C83.8304 23.4922 83.8303 23.4922 83.8303 23.4922C85.0945 23.4696 86.1353 22.3176 86.1505 20.9058V20.838V15.8459C86.1505 15.5918 86.3384 15.3828 86.5668 15.3828C86.7953 15.3828 86.9831 15.5918 86.9831 15.8459V20.8945C86.9831 20.9058 86.9831 20.9171 86.9831 20.934L86.9527 21.3575C86.9527 21.3688 86.9527 21.3858 86.9476 21.3971C86.7191 23.0912 85.4042 24.4014 83.8303 24.424H83.8253H83.8202C82.2413 24.4014 80.9213 23.0799 80.6979 21.3801L80.6624 20.9171V16.9301C80.6674 16.6704 80.8553 16.4671 81.0837 16.4671Z" fill="white"/>
<path d="M84.9321 14.0616C84.9321 14.0559 84.9321 14.0503 84.9321 14.0446C84.9321 13.8583 85.0641 13.7114 85.2317 13.7114C85.3992 13.7114 85.5312 13.8583 85.5312 14.0446C85.5312 14.0559 85.5312 14.0616 85.5261 14.0672V19.4603C85.5261 19.4659 85.5312 19.4772 85.5312 19.4828C85.5312 19.6692 85.3992 19.816 85.2317 19.816C85.0641 19.816 84.9321 19.6692 84.9321 19.4828V14.0616Z" fill="white"/>
<path d="M83.739 12.8982C83.739 12.8926 83.739 12.8869 83.739 12.8813C83.739 12.6949 83.871 12.5481 84.0386 12.5481C84.2061 12.5481 84.3381 12.6949 84.3381 12.8813C84.3381 12.8926 84.3381 12.8982 84.3381 12.9039V14.2987C84.3381 14.3044 84.3381 14.3157 84.3381 14.3213C84.3381 14.327 84.3381 14.3383 84.3381 14.3439V14.4964V15.6597V15.9364V19.4546C84.3381 19.4602 84.3381 19.4715 84.3381 19.4772C84.3381 19.6635 84.2061 19.8104 84.0386 19.8104C83.871 19.8104 83.739 19.6635 83.739 19.4772V15.9308V15.654V14.502V14.3383V12.8982Z" fill="white"/>
<path d="M83.1398 14.7223C83.1398 14.519 82.9926 14.3552 82.8098 14.3552H79.0021H78.992H75.1843C75.0015 14.3552 74.8543 14.519 74.8543 14.7223L74.834 19.4829C74.834 19.6862 74.9812 19.8556 75.164 19.8556C75.3468 19.8556 75.494 19.6918 75.494 19.4885L75.5295 15.479C75.5295 15.2757 75.6818 15.1119 75.8595 15.1119H78.9869H78.9971H82.1245C82.3072 15.1119 82.4545 15.2757 82.4545 15.479L82.49 19.4885C82.49 19.6918 82.6372 19.8556 82.82 19.8556C83.0028 19.8556 83.1551 19.6918 83.15 19.4829L83.1398 14.7223Z" fill="white"/>
<path d="M76.9004 7.94559C76.6719 7.94559 76.4841 7.73664 76.4841 7.48252V3.57467V3.5069C76.4688 2.09511 75.4331 0.94308 74.1639 0.920491C74.1639 0.920491 74.1639 0.920491 74.1588 0.920491C74.1537 0.920491 74.1537 0.920491 74.1537 0.920491C72.8896 0.94308 71.8488 2.09511 71.8336 3.5069V3.57467V8.56678C71.8336 8.8209 71.6457 9.02985 71.4173 9.02985C71.1888 9.02985 71.001 8.8209 71.001 8.56678V3.52384C71.001 3.51255 71.001 3.50125 71.001 3.48996L71.0314 3.06642C71.0314 3.05513 71.0314 3.03819 71.0365 3.02689C71.265 1.33274 72.5799 0.0225887 74.1537 0H74.1588C74.1588 0 74.1588 0 74.1639 0C75.7428 0.0225887 77.0628 1.34403 77.2862 3.04383L77.3218 3.5069V7.48817C77.3167 7.74229 77.1288 7.94559 76.9004 7.94559Z" fill="white"/>
<path d="M73.0522 10.3512C73.0522 10.3568 73.0522 10.3625 73.0522 10.3681C73.0522 10.5545 72.9202 10.7013 72.7527 10.7013C72.5851 10.7013 72.4531 10.5545 72.4531 10.3681C72.4531 10.3568 72.4531 10.3512 72.4531 10.3455V4.95245C72.4531 4.9468 72.4531 4.93551 72.4531 4.92986C72.4531 4.74351 72.5851 4.59668 72.7527 4.59668C72.9202 4.59668 73.0522 4.74351 73.0522 4.92986V10.3512Z" fill="white"/>
<path d="M74.2451 11.5145C74.2451 11.5202 74.2451 11.5258 74.2451 11.5315C74.2451 11.7178 74.1131 11.8646 73.9455 11.8646C73.778 11.8646 73.646 11.7178 73.646 11.5315C73.646 11.5258 73.646 11.5145 73.646 11.5089V10.114C73.646 10.1084 73.646 10.0971 73.646 10.0914C73.646 10.0858 73.646 10.0745 73.646 10.0688V9.91636V8.74174V8.46503V4.94684C73.646 4.93554 73.646 4.9299 73.646 4.92425C73.646 4.73789 73.778 4.59106 73.9455 4.59106C74.1131 4.59106 74.2451 4.73789 74.2451 4.92425V8.47068V8.74739V9.91071V10.0745V11.5145Z" fill="white"/>
<path d="M81.0837 7.94559C81.3122 7.94559 81.5 7.73664 81.5 7.48252V3.57467V3.5069C81.5153 2.09511 82.551 0.94308 83.8202 0.920491C83.8202 0.920491 83.8202 0.920491 83.8253 0.920491C83.8304 0.920491 83.8303 0.920491 83.8303 0.920491C85.0945 0.94308 86.1353 2.09511 86.1505 3.5069V3.57467V8.56678C86.1505 8.8209 86.3384 9.02985 86.5668 9.02985C86.7953 9.02985 86.9831 8.8209 86.9831 8.56678V3.52384C86.9831 3.51255 86.9831 3.50125 86.9831 3.48996L86.9527 3.06642C86.9527 3.05513 86.9527 3.03819 86.9476 3.02689C86.7191 1.33274 85.4042 0.0225887 83.8303 0H83.8253C83.8253 0 83.8253 0 83.8202 0C82.2413 0.0225887 80.9213 1.34403 80.6979 3.04383L80.6624 3.5069V7.48817C80.6674 7.74229 80.8553 7.94559 81.0837 7.94559Z" fill="white"/>
<path d="M84.9321 10.3512C84.9321 10.3568 84.9321 10.3625 84.9321 10.3681C84.9321 10.5545 85.0641 10.7013 85.2317 10.7013C85.3992 10.7013 85.5312 10.5545 85.5312 10.3681C85.5312 10.3568 85.5312 10.3512 85.5261 10.3455V4.95245C85.5261 4.9468 85.5312 4.93551 85.5312 4.92986C85.5312 4.74351 85.3992 4.59668 85.2317 4.59668C85.0641 4.59668 84.9321 4.74351 84.9321 4.92986V10.3512Z" fill="white"/>
<path d="M83.739 11.5145C83.739 11.5202 83.739 11.5258 83.739 11.5315C83.739 11.7178 83.871 11.8646 84.0386 11.8646C84.2061 11.8646 84.3381 11.7178 84.3381 11.5315C84.3381 11.5258 84.3381 11.5145 84.3381 11.5089V10.114C84.3381 10.1084 84.3381 10.0971 84.3381 10.0914C84.3381 10.0858 84.3381 10.0745 84.3381 10.0688V9.91636V8.74174V8.46503V4.94684C84.3381 4.93554 84.3381 4.9299 84.3381 4.92425C84.3381 4.73789 84.2061 4.59106 84.0386 4.59106C83.871 4.59106 83.739 4.73789 83.739 4.92425V8.47068V8.74739V9.91071V10.0745V11.5145Z" fill="white"/>
<path d="M83.1398 9.69066C83.1398 9.89396 82.9926 10.0577 82.8098 10.0577H79.0021H78.992H75.1843C75.0015 10.0577 74.8543 9.89396 74.8543 9.69066L74.834 4.93009C74.834 4.72679 74.9812 4.55737 75.164 4.55737C75.3468 4.55737 75.494 4.72114 75.494 4.92444L75.5295 8.93394C75.5295 9.13724 75.6818 9.30101 75.8595 9.30101H78.9869H78.9971H82.1245C82.3072 9.30101 82.4545 9.13724 82.4545 8.93394L82.49 4.92444C82.49 4.72114 82.6372 4.55737 82.82 4.55737C83.0028 4.55737 83.1551 4.72114 83.15 4.93009L83.1398 9.69066Z" fill="white"/>
</svg>
