<svg width="508" height="107" viewBox="0 0 508 107" fill="none" xmlns="http://www.w3.org/2000/svg">
<g clip-path="url(#clip0_1338_3376)">
<path d="M404.651 93.9343V106.704H403V93.9343H404.651Z" fill="#E6E6E6"/>
<path d="M408.521 100.005C408.521 99.0422 408.482 98.2957 408.443 97.5295H409.917L410.015 99.0422H410.054C410.506 98.1778 411.567 97.333 413.08 97.333C414.338 97.333 416.303 98.0992 416.303 101.243V106.704H414.652V101.419C414.652 99.9459 414.102 98.7082 412.53 98.7082C411.43 98.7082 410.585 99.4941 410.29 100.417C410.211 100.614 410.172 100.909 410.172 101.184V106.704H408.521V100.005Z" fill="#E6E6E6"/>
<path d="M420.076 106.684V98.7869H418.798V97.5295H420.076V97.0973C420.076 95.8007 420.37 94.6416 421.137 93.8951C421.765 93.286 422.591 93.0503 423.357 93.0503C423.966 93.0503 424.457 93.1682 424.772 93.3253L424.556 94.6023C424.3 94.4844 423.966 94.3862 423.495 94.3862C422.08 94.3862 421.726 95.6239 421.726 97.0384V97.5295H423.947V98.7869H421.746V106.684H420.076Z" fill="#E6E6E6"/>
<path d="M434.361 102.029C434.361 105.427 432.003 106.901 429.802 106.901C427.326 106.901 425.401 105.093 425.401 102.186C425.401 99.1209 427.425 97.3332 429.94 97.3332C432.573 97.3135 434.361 99.2388 434.361 102.029ZM427.09 102.127C427.09 104.131 428.25 105.643 429.861 105.643C431.453 105.643 432.651 104.15 432.651 102.068C432.651 100.516 431.865 98.5512 429.881 98.5512C427.935 98.5708 427.09 100.398 427.09 102.127Z" fill="#E6E6E6"/>
<path d="M439.332 94.897V97.5295H441.729V98.7868H439.332V103.718C439.332 104.857 439.666 105.506 440.59 105.506C441.022 105.506 441.336 105.447 441.553 105.388L441.631 106.645C441.317 106.763 440.786 106.881 440.138 106.881C439.371 106.881 438.743 106.626 438.33 106.174C437.878 105.663 437.682 104.857 437.682 103.777V98.7672H436.267V97.5099H437.682V95.3095L439.332 94.897Z" fill="#E6E6E6"/>
<path d="M445.286 102.402C445.325 104.661 446.74 105.584 448.43 105.584C449.629 105.584 450.356 105.368 450.965 105.113L451.259 106.292C450.67 106.567 449.668 106.881 448.194 106.881C445.384 106.881 443.694 105.015 443.694 102.264C443.694 99.4942 445.325 97.3135 447.998 97.3135C450.984 97.3135 451.77 99.9264 451.77 101.616C451.77 101.97 451.751 102.225 451.711 102.402H445.286ZM450.179 101.203C450.198 100.162 449.746 98.5119 447.88 98.5119C446.17 98.5119 445.463 100.044 445.325 101.203H450.179Z" fill="#E6E6E6"/>
<path d="M461.261 106.351C460.829 106.567 459.866 106.881 458.628 106.881C455.858 106.881 454.05 104.995 454.05 102.205C454.05 99.3763 455.975 97.3135 458.962 97.3135C459.945 97.3135 460.829 97.5689 461.281 97.8046L460.907 99.0816C460.495 98.8655 459.886 98.6494 458.962 98.6494C456.879 98.6494 455.72 100.221 455.74 102.127C455.74 104.248 457.095 105.545 458.923 105.545C459.866 105.545 460.495 105.309 460.966 105.113L461.261 106.351Z" fill="#E6E6E6"/>
<path d="M464.091 93.2468H465.741V98.9638H465.781C466.056 98.4923 466.468 98.0797 466.979 97.785C467.471 97.4903 468.06 97.3135 468.689 97.3135C469.927 97.3135 471.872 98.0601 471.872 101.223V106.685H470.222V101.419C470.222 99.9461 469.671 98.7084 468.099 98.7084C467.019 98.7084 466.174 99.4746 465.859 100.378C465.781 100.614 465.741 100.869 465.741 101.164V106.704H464.091V93.2468V93.2468Z" fill="#E6E6E6"/>
<path d="M499.253 94.2556C500.039 94.1181 501.1 94.0002 502.416 94.0002C504.028 94.0002 505.226 94.3735 505.993 95.0611C506.68 95.6701 507.113 96.5935 507.113 97.733C507.113 98.8921 506.759 99.7958 506.13 100.464C505.246 101.407 503.831 101.859 502.22 101.859C501.729 101.859 501.277 101.839 500.884 101.741V106.868H499.233V94.2556H499.253ZM500.903 100.405C501.277 100.503 501.729 100.542 502.279 100.542C504.283 100.542 505.482 99.56 505.482 97.8115C505.482 96.122 504.283 95.2969 502.475 95.2969C501.748 95.2969 501.198 95.3558 500.923 95.4344V100.405H500.903Z" fill="#E6E6E6"/>
<path d="M489.431 94.1182H491.081V105.493H496.544V106.888H489.431V94.1182V94.1182Z" fill="#E6E6E6"/>
<path d="M480.233 94.1182H481.884V105.493H487.346V106.888H480.233V94.1182V94.1182Z" fill="black"/>
<path d="M0.294678 56.1948C0.294678 52.1674 1.06101 48.415 2.57404 44.8984C4.08706 41.4015 6.16992 38.3367 8.78332 35.7238C11.3967 33.1109 14.4621 31.0481 17.9597 29.5157C21.4573 28.003 25.2104 27.2368 29.16 27.2368C33.1096 27.2368 36.843 27.9244 40.321 29.2996C43.799 30.6748 46.8054 32.6591 49.3205 35.2523C49.7135 35.7042 49.9297 36.1953 49.969 36.7258C49.9886 37.2365 49.7725 37.7277 49.3205 38.1992L46.9036 40.6156C46.4517 41.0675 45.9408 41.2836 45.3906 41.2639C44.8404 41.2443 44.3688 41.0282 43.9758 40.6156C42.1288 38.71 39.928 37.2758 37.3736 36.3132C34.8191 35.3309 32.0681 34.8398 29.1404 34.8398C26.2126 34.8398 23.442 35.4095 20.8679 36.5293C18.2741 37.6491 16.034 39.1815 14.1084 41.1068C12.1827 43.0321 10.6697 45.2913 9.53001 47.8649C8.40998 50.4582 7.84014 53.2479 7.84014 56.2341C7.84014 59.1613 8.40998 61.9313 9.53001 64.5442C10.65 67.1571 12.1631 69.436 14.1084 71.3613C16.034 73.2866 18.2937 74.7994 20.8679 75.9388C23.4616 77.0586 26.2126 77.6283 29.1404 77.6283C32.0681 77.6283 34.7994 77.1176 37.3343 76.1156C39.8691 75.1137 42.0698 73.6599 43.9758 71.7543C44.3295 71.3613 44.7815 71.1452 45.3513 71.1059C45.9211 71.0863 46.4517 71.3024 46.9036 71.7543L49.3205 74.2493C49.7725 74.6618 49.9886 75.1333 49.969 75.7227C49.9297 76.2924 49.7332 76.7639 49.3205 77.0979C46.7268 79.6912 43.7204 81.6754 40.262 83.0506C36.8234 84.4258 33.1096 85.1134 29.1404 85.1134C25.1711 85.1134 21.4377 84.3669 17.9401 82.8738C14.4424 81.3807 11.3771 79.3179 8.76367 76.705C6.15027 74.0921 4.08706 71.0274 2.55439 67.5304C1.04136 63.9942 0.294678 60.2222 0.294678 56.1948Z" fill="#E6E6E6"/>
<path d="M54.8618 65.6837C54.8618 62.8743 55.3727 60.2614 56.4141 57.8843C57.4556 55.5071 58.8507 53.464 60.5995 51.7548C62.3483 50.0652 64.4115 48.7293 66.7695 47.7863C69.1274 46.8433 71.623 46.3718 74.2757 46.3718C76.9284 46.3718 79.4239 46.8433 81.7818 47.7863C84.1398 48.7293 86.1833 50.0652 87.9518 51.7548C89.7006 53.4443 91.0761 55.4875 92.0979 57.8843C93.1 60.2614 93.6109 62.8743 93.6109 65.6837C93.6109 68.552 93.1 71.1845 92.0979 73.5616C91.0957 75.9388 89.7203 77.9819 87.9518 79.6911C86.203 81.3807 84.1398 82.7166 81.7818 83.6596C79.4239 84.6026 76.9284 85.0741 74.2757 85.0741C71.623 85.0741 69.1274 84.6026 66.7695 83.6596C64.4115 82.7166 62.3483 81.3807 60.5995 79.6911C58.8507 78.0016 57.4556 75.9584 56.4141 73.5616C55.3727 71.1845 54.8618 68.552 54.8618 65.6837ZM62.3483 65.6837C62.3483 67.5304 62.6627 69.1806 63.2915 70.6344C63.9203 72.1078 64.7849 73.3455 65.8853 74.3475C66.9856 75.3494 68.2432 76.1352 69.6776 76.6657C71.1121 77.2158 72.6447 77.4908 74.256 77.4908C75.8673 77.4908 77.3803 77.2158 78.8344 76.6657C80.2688 76.1156 81.5264 75.3494 82.5874 74.3475C83.6485 73.3455 84.4935 72.1078 85.083 70.6344C85.6921 69.161 85.9868 67.5107 85.9868 65.6837C85.9868 63.8959 85.6921 62.2849 85.083 60.8115C84.4738 59.3381 83.6485 58.12 82.5874 57.1574C81.5264 56.1751 80.2688 55.4285 78.8344 54.8785C77.3999 54.3284 75.8673 54.0533 74.256 54.0533C72.6447 54.0533 71.1317 54.3284 69.6776 54.8785C68.2432 55.4285 66.966 56.1947 65.8853 57.1574C64.7849 58.1397 63.9399 59.3577 63.2915 60.8115C62.6627 62.2653 62.3483 63.8959 62.3483 65.6837Z" fill="#E6E6E6"/>
<path d="M135.111 27.9242C135.681 27.9242 136.152 28.1206 136.526 28.4939C136.899 28.8672 137.096 29.378 137.096 30.0066V82.3235C137.096 82.8343 136.899 83.3058 136.526 83.6987C136.152 84.1112 135.681 84.3077 135.111 84.3077H131.495C130.926 84.3077 130.454 84.1112 130.081 83.6987C129.707 83.3058 129.53 82.8343 129.53 82.3235V82.1466C129.471 81.793 129.157 81.7537 128.587 81.9698C125.483 84.0327 121.867 85.0739 117.721 85.0739C115.068 85.0739 112.573 84.6024 110.215 83.6594C107.857 82.7164 105.813 81.3805 104.045 79.6909C102.296 78.0014 100.901 75.9582 99.8595 73.5614C98.818 71.1843 98.3071 68.5517 98.3071 65.6835C98.3071 62.8741 98.818 60.2612 99.8595 57.8841C100.901 55.5069 102.296 53.4638 104.045 51.7546C105.794 50.065 107.857 48.7291 110.215 47.7861C112.573 46.8431 115.068 46.3716 117.721 46.3716C121.631 46.3716 125.129 47.3539 128.234 49.2988C128.685 49.5935 129.02 49.6918 129.216 49.5935C129.413 49.5149 129.511 49.1417 129.511 48.513V29.987C129.511 29.3583 129.688 28.8475 130.061 28.4743C130.434 28.101 130.906 27.9045 131.476 27.9045H135.111V27.9242ZM106.835 70.6342C107.464 72.1076 108.309 73.3453 109.37 74.3473C110.431 75.3492 111.689 76.135 113.123 76.6655C114.557 77.2156 116.09 77.4906 117.701 77.4906C121.042 77.4906 123.832 76.4494 126.072 74.3473C128.312 72.2452 129.432 69.3572 129.432 65.6835C129.432 63.8957 129.137 62.2847 128.528 60.8113C127.919 59.3379 127.114 58.1198 126.072 57.1572C125.031 56.1749 123.793 55.4283 122.358 54.8783C120.924 54.3282 119.372 54.0531 117.701 54.0531C116.09 54.0531 114.557 54.3282 113.123 54.8783C111.689 55.4283 110.431 56.1945 109.37 57.1572C108.309 58.1395 107.464 59.3575 106.835 60.8113C106.206 62.2847 105.892 63.8957 105.892 65.6835C105.892 67.5105 106.206 69.1608 106.835 70.6342Z" fill="#E6E6E6"/>
<path d="M145.8 39.3974C145.8 38.2972 146.174 37.3935 146.92 36.6862C147.667 35.9593 148.551 35.6057 149.593 35.6057C150.693 35.6057 151.597 35.9593 152.304 36.6862C153.031 37.4131 153.385 38.3168 153.385 39.3974C153.385 40.4386 153.031 41.3226 152.304 42.0692C151.577 42.8157 150.673 43.189 149.593 43.189C148.551 43.189 147.667 42.8157 146.92 42.0692C146.174 41.3226 145.8 40.4189 145.8 39.3974ZM151.42 47.236C151.99 47.236 152.462 47.4325 152.835 47.8058C153.208 48.179 153.405 48.6898 153.405 49.3185V82.3235C153.405 82.8343 153.208 83.3058 152.835 83.6987C152.462 84.1112 151.99 84.3077 151.42 84.3077H147.805C147.235 84.3077 146.763 84.1112 146.39 83.6987C146.016 83.3058 145.82 82.8343 145.82 82.3235V49.3185C145.82 48.6898 145.997 48.179 146.39 47.8058C146.763 47.4325 147.235 47.236 147.805 47.236H151.42Z" fill="#E6E6E6"/>
<path d="M193.215 65.6836C193.215 63.8958 192.92 62.2848 192.311 60.8114C191.702 59.338 190.877 58.1199 189.815 57.1573C188.754 56.175 187.497 55.4284 186.062 54.8784C184.628 54.3283 183.095 54.0532 181.484 54.0532C179.932 54.0532 178.438 54.3086 177.004 54.8194C175.569 55.3302 174.292 56.0768 173.212 57.0197C172.111 57.9627 171.266 59.1219 170.618 60.5167C169.989 61.8919 169.675 63.4439 169.675 65.1728V82.3236C169.675 82.8344 169.478 83.3059 169.105 83.6988C168.731 84.1113 168.26 84.3078 167.69 84.3078H164.074C163.505 84.3078 163.033 84.1113 162.66 83.6988C162.286 83.3059 162.09 82.8344 162.09 82.3236V49.3186C162.09 48.6899 162.267 48.1791 162.66 47.8059C163.033 47.4326 163.505 47.2361 164.074 47.2361H167.69C168.26 47.2361 168.731 47.4326 169.105 47.8059C169.478 48.1791 169.675 48.6899 169.675 49.3186C169.675 49.8294 170.009 49.908 170.657 49.5347C171.325 49.1614 172.131 48.7489 173.113 48.2774C174.43 47.7076 175.786 47.2361 177.161 46.9022C178.537 46.5485 179.971 46.3914 181.464 46.3914C184.097 46.3914 186.613 46.8629 188.971 47.8059C191.329 48.7489 193.372 50.0848 195.141 51.7743C196.889 53.4639 198.265 55.507 199.287 57.9038C200.289 60.281 200.8 62.8939 200.8 65.7032V82.3432C200.8 82.854 200.603 83.3255 200.23 83.7184C199.856 84.131 199.385 84.3274 198.815 84.3274H195.2C194.689 84.3274 194.217 84.131 193.824 83.7184C193.411 83.3255 193.215 82.854 193.215 82.3432V65.6836V65.6836Z" fill="#E6E6E6"/>
<path d="M237.623 82.1467C237.623 81.6949 237.21 81.6556 236.424 82.0682C235.049 82.9326 233.418 83.6398 231.551 84.2292C229.684 84.7989 227.778 85.0936 225.813 85.0936C223.161 85.0936 220.665 84.6221 218.307 83.6791C215.949 82.7361 213.886 81.4002 212.137 79.7107C210.389 78.0211 208.993 75.978 207.952 73.5812C206.911 71.204 206.4 68.5715 206.4 65.7032C206.4 62.8938 206.911 60.281 207.952 57.9038C208.993 55.5267 210.389 53.4835 212.137 51.7743C213.886 50.0848 215.949 48.7489 218.307 47.8059C220.665 46.8629 223.161 46.3914 225.813 46.3914C227.602 46.3914 229.291 46.6271 230.903 47.079C232.514 47.5308 234.066 48.1791 235.56 48.9846C236.189 49.2793 236.68 49.4954 237.033 49.6722C237.387 49.849 237.584 49.7508 237.643 49.4168V49.24C237.643 48.7292 237.819 48.2577 238.212 47.8648C238.586 47.4719 239.057 47.2558 239.627 47.2558H243.164C243.734 47.2558 244.206 47.4522 244.579 47.8648C244.952 48.2774 245.149 48.7292 245.149 49.24V85.0936C245.149 87.9619 244.638 90.5748 243.596 92.9323C242.555 95.2898 241.16 97.3133 239.411 99.0029C237.662 100.692 235.619 102.028 233.28 102.971C230.962 103.914 228.466 104.386 225.813 104.386C222.532 104.386 219.545 103.718 216.853 102.402C214.142 101.085 211.902 99.219 210.133 96.8025C209.838 96.3507 209.74 95.8399 209.779 95.2898C209.838 94.7397 210.094 94.3075 210.546 93.9539L213.218 91.8911C213.67 91.4392 214.201 91.2428 214.77 91.3213C215.34 91.3999 215.812 91.675 216.146 92.1465C217.246 93.6396 218.622 94.779 220.292 95.5845C221.962 96.39 223.79 96.7829 225.813 96.7829C227.425 96.7829 228.938 96.5078 230.333 95.9578C231.748 95.4077 232.986 94.6415 234.086 93.6396C235.186 92.6376 236.031 91.4196 236.68 89.9854C237.309 88.5513 237.623 86.901 237.623 85.074V82.1467V82.1467ZM213.906 65.6836C213.906 67.5303 214.22 69.1805 214.849 70.6343C215.478 72.1077 216.342 73.3454 217.443 74.3474C218.543 75.3493 219.801 76.1351 221.235 76.6656C222.67 77.2156 224.202 77.4907 225.813 77.4907C227.425 77.4907 228.938 77.2156 230.392 76.6656C231.826 76.1155 233.084 75.3493 234.145 74.3474C235.206 73.3454 236.051 72.1077 236.64 70.6343C237.25 69.1609 237.544 67.5106 237.544 65.6836C237.544 63.8958 237.25 62.2848 236.64 60.8114C236.031 59.338 235.206 58.1199 234.145 57.1573C233.084 56.175 231.826 55.4284 230.392 54.8784C228.957 54.3283 227.425 54.0532 225.813 54.0532C224.202 54.0532 222.689 54.3283 221.235 54.8784C219.801 55.4284 218.523 56.1946 217.443 57.1573C216.342 58.1396 215.497 59.3576 214.849 60.8114C214.22 62.2652 213.906 63.8958 213.906 65.6836Z" fill="#E6E6E6"/>
<path d="M377.45 47.2361C378.02 47.2361 378.491 47.4326 378.865 47.8059C379.238 48.1791 379.435 48.6899 379.435 49.3186V82.3236C379.435 82.8344 379.238 83.3059 378.865 83.6988C378.491 84.1113 378.02 84.3078 377.45 84.3078H373.913C373.343 84.3078 372.872 84.1113 372.498 83.6988C372.125 83.3059 371.928 82.8344 371.928 82.3236V82.1468C371.928 81.6949 371.516 81.6556 370.73 82.0682C369.06 82.9326 367.37 83.6398 365.64 84.2292C363.911 84.7989 362.084 85.0936 360.119 85.0936C357.466 85.0936 354.971 84.6221 352.613 83.6791C350.255 82.7361 348.192 81.4002 346.443 79.7107C344.694 78.0211 343.299 75.978 342.257 73.5812C341.216 71.204 340.705 68.5715 340.705 65.7032C340.705 62.8939 341.216 60.281 342.257 57.9038C343.299 55.5267 344.694 53.4835 346.443 51.7743C348.192 50.0848 350.255 48.7489 352.613 47.8059C354.971 46.8629 357.466 46.3914 360.119 46.3914C361.553 46.3914 362.948 46.5485 364.304 46.8629C365.66 47.1772 366.957 47.5898 368.234 48.1202C369.374 48.572 370.258 49.0435 370.867 49.4954C371.476 49.9473 371.83 49.9473 371.948 49.4954V49.3186C371.948 48.6899 372.125 48.1791 372.518 47.8059C372.891 47.4326 373.363 47.2361 373.933 47.2361H377.45V47.2361ZM348.231 65.6836C348.231 67.5303 348.545 69.1805 349.174 70.6343C349.803 72.1077 350.667 73.3454 351.768 74.3474C352.868 75.3493 354.126 76.1351 355.56 76.6656C356.995 77.2157 358.527 77.4907 360.139 77.4907C361.75 77.4907 363.263 77.2157 364.717 76.6656C366.151 76.1155 367.409 75.3493 368.47 74.3474C369.531 73.3454 370.376 72.1077 370.966 70.6343C371.575 69.1609 371.869 67.5106 371.869 65.6836C371.869 63.8958 371.575 62.2848 370.966 60.8114C370.356 59.338 369.531 58.1199 368.47 57.1573C367.409 56.175 366.151 55.4284 364.717 54.8784C363.283 54.3283 361.75 54.0532 360.139 54.0532C358.527 54.0532 357.014 54.3283 355.56 54.8784C354.126 55.4284 352.849 56.1946 351.768 57.1573C350.667 58.1396 349.823 59.3576 349.174 60.8114C348.545 62.2652 348.231 63.8958 348.231 65.6836Z" fill="#E6E6E6"/>
<path d="M418.478 65.6836C418.478 63.8958 418.184 62.2848 417.574 60.8114C416.965 59.338 416.14 58.1199 415.079 57.1573C414.018 56.175 412.76 55.4284 411.326 54.8784C409.891 54.3283 408.359 54.0532 406.747 54.0532C405.195 54.0532 403.702 54.3086 402.267 54.8194C400.833 55.3302 399.556 56.0768 398.475 57.0197C397.375 57.9627 396.53 59.1219 395.881 60.5167C395.252 61.8919 394.938 63.4439 394.938 65.1728V82.3236C394.938 82.8344 394.742 83.3059 394.368 83.6988C393.995 84.1113 393.523 84.3078 392.953 84.3078H389.338C388.768 84.3078 388.296 84.1113 387.923 83.6988C387.55 83.3059 387.353 82.8344 387.353 82.3236V49.3186C387.353 48.6899 387.53 48.1791 387.923 47.8059C388.296 47.4326 388.768 47.2361 389.338 47.2361H392.953C393.523 47.2361 393.995 47.4326 394.368 47.8059C394.742 48.1791 394.938 48.6899 394.938 49.3186C394.938 49.8294 395.272 49.908 395.92 49.5347C396.589 49.1614 397.394 48.7489 398.377 48.2774C399.693 47.7076 401.049 47.2361 402.425 46.9022C403.8 46.5485 405.234 46.3914 406.728 46.3914C409.361 46.3914 411.876 46.8629 414.234 47.8059C416.592 48.7489 418.635 50.0848 420.404 51.7743C422.153 53.4639 423.528 55.507 424.55 57.9038C425.552 60.281 426.063 62.8939 426.063 65.7032V82.3432C426.063 82.854 425.866 83.3255 425.493 83.7184C425.12 84.131 424.648 84.3274 424.078 84.3274H420.463C419.952 84.3274 419.48 84.131 419.087 83.7184C418.675 83.3255 418.478 82.854 418.478 82.3432V65.6836Z" fill="#E6E6E6"/>
<path d="M468.408 27.9242C468.978 27.9242 469.45 28.1206 469.823 28.4939C470.196 28.8672 470.393 29.378 470.393 30.0066V82.3235C470.393 82.8343 470.196 83.3058 469.823 83.6987C469.45 84.1112 468.978 84.3077 468.408 84.3077H464.793C464.223 84.3077 463.751 84.1112 463.378 83.6987C463.004 83.3058 462.828 82.8343 462.828 82.3235V82.1466C462.769 81.793 462.454 81.7537 461.884 81.9698C458.78 84.0327 455.164 85.0739 451.018 85.0739C448.365 85.0739 445.87 84.6024 443.512 83.6594C441.154 82.7164 439.11 81.3805 437.342 79.6909C435.593 78.0014 434.198 75.9582 433.157 73.5614C432.115 71.1843 431.604 68.5517 431.604 65.6835C431.604 62.8741 432.115 60.2612 433.157 57.8841C434.198 55.5069 435.593 53.4638 437.342 51.7546C439.091 50.065 441.154 48.7291 443.512 47.7861C445.87 46.8431 448.365 46.3716 451.018 46.3716C454.928 46.3716 458.426 47.3539 461.531 49.2988C461.983 49.5935 462.317 49.6918 462.513 49.5935C462.71 49.5149 462.808 49.1417 462.808 48.513V29.987C462.808 29.3583 462.985 28.8475 463.358 28.4743C463.731 28.101 464.203 27.9045 464.773 27.9045H468.408V27.9242ZM440.113 70.6342C440.741 72.1076 441.586 73.3453 442.647 74.3473C443.708 75.3492 444.966 76.135 446.4 76.6655C447.835 77.2156 449.368 77.4906 450.979 77.4906C454.319 77.4906 457.11 76.4494 459.35 74.3473C461.59 72.2452 462.71 69.3572 462.71 65.6835C462.71 63.8957 462.415 62.2847 461.806 60.8113C461.197 59.3379 460.391 58.1198 459.35 57.1572C458.308 56.1749 457.07 55.4283 455.636 54.8783C454.201 54.3282 452.649 54.0531 450.979 54.0531C449.368 54.0531 447.835 54.3282 446.4 54.8783C444.966 55.4283 443.708 56.1945 442.647 57.1572C441.586 58.1395 440.741 59.3575 440.113 60.8113C439.484 62.2847 439.169 63.8957 439.169 65.6835C439.169 67.5105 439.484 69.1608 440.113 70.6342Z" fill="#E6E6E6"/>
<path d="M497.706 57.3146C497.647 56.3912 497.175 55.5268 496.291 54.7213C495.407 53.9158 493.972 53.5229 492.027 53.5229C490.18 53.5229 488.745 53.9158 487.724 54.7213C486.682 55.5268 486.171 56.4108 486.171 57.3931C486.171 58.7094 486.682 59.6721 487.724 60.2811C488.765 60.8901 490.062 61.3419 491.654 61.6563C493.226 61.9706 494.935 62.2653 496.743 62.56C498.551 62.8547 500.24 63.3262 501.832 64.0334C503.404 64.721 504.721 65.7426 505.762 67.0982C506.803 68.4537 507.314 70.3594 507.314 72.8347C507.314 74.6815 506.921 76.3317 506.155 77.8248C505.389 79.3179 504.308 80.5752 502.972 81.6164C501.616 82.6577 500.024 83.4631 498.177 84.0329C496.33 84.6026 494.385 84.8973 492.322 84.8973C490.141 84.8973 488.117 84.6026 486.25 83.9936C484.383 83.3846 482.752 82.5201 481.338 81.4003C479.923 80.2805 478.822 78.925 478.017 77.3533C477.211 75.7816 476.818 74.0331 476.818 72.1471C476.818 71.7935 476.936 71.4792 477.172 71.2041C477.408 70.9095 477.722 70.7719 478.115 70.7719H483.027C483.479 70.7719 483.833 70.9095 484.069 71.2041C484.305 71.4988 484.423 71.8132 484.423 72.1471C484.423 73.6402 485.13 74.9565 486.525 76.0763C487.94 77.1961 489.905 77.7659 492.44 77.7659C494.857 77.7659 496.664 77.314 497.863 76.3906C499.062 75.4673 499.671 74.3868 499.671 73.1098C499.671 72.0096 499.16 71.2238 498.118 70.7326C497.077 70.2415 495.8 69.8486 494.247 69.5343C492.695 69.2199 491.005 68.9252 489.158 68.6305C487.311 68.3359 485.621 67.8251 484.069 67.0785C482.517 66.332 481.22 65.2711 480.198 63.8959C479.156 62.5207 478.645 60.615 478.645 58.1986C478.645 56.4108 478.999 54.7999 479.687 53.3265C480.375 51.853 481.318 50.6153 482.536 49.5741C483.754 48.5329 485.169 47.747 486.8 47.197C488.431 46.6469 490.2 46.3718 492.106 46.3718C494.051 46.3718 495.859 46.6665 497.49 47.2362C499.12 47.806 500.516 48.6114 501.675 49.6134C502.815 50.6153 503.738 51.7744 504.387 53.1103C505.055 54.4266 505.369 55.8411 505.369 57.3342C505.369 57.6878 505.251 57.9825 505.015 58.2379C504.78 58.4933 504.465 58.6308 504.072 58.6308H499.16C498.708 58.6308 498.354 58.4933 498.118 58.2379C497.824 57.9629 497.706 57.6682 497.706 57.3146Z" fill="#E6E6E6"/>
<path d="M297.928 57.668C297.044 57.668 296.317 58.3949 296.317 59.279V72.8739V73.1096C296.258 78.0211 292.249 82.0288 287.337 82.1074C287.337 82.1074 287.337 82.1074 287.317 82.1074C287.297 82.1074 287.297 82.1074 287.297 82.1074C282.405 82.0288 278.376 78.0211 278.318 73.1096V72.8739V55.507C278.318 54.6229 277.59 53.896 276.706 53.896C275.822 53.896 275.095 54.6229 275.095 55.507V73.0703C275.095 73.1096 275.095 73.1489 275.095 73.2078L275.213 74.6813C275.213 74.7206 275.213 74.7795 275.233 74.8188C276.117 80.7126 281.206 85.2704 287.297 85.349H287.317H287.337C293.448 85.2704 298.557 80.6733 299.421 74.7599L299.559 73.1489V59.279C299.539 58.3752 298.812 57.668 297.928 57.668Z" fill="#E6E6E6" stroke="#E6E6E6" stroke-miterlimit="10"/>
<path d="M283.034 49.2989C283.034 49.2792 283.034 49.2596 283.034 49.2399C283.034 48.5916 282.523 48.0808 281.874 48.0808C281.226 48.0808 280.715 48.5916 280.715 49.2399C280.715 49.2792 280.715 49.2988 280.715 49.3185V68.0803C280.715 68.0999 280.715 68.1392 280.715 68.1588C280.715 68.8072 281.226 69.3179 281.874 69.3179C282.523 69.3179 283.034 68.8072 283.034 68.1588V49.2989Z" fill="#E6E6E6" stroke="#E6E6E6" stroke-miterlimit="10"/>
<path d="M287.651 45.252C287.651 45.2323 287.651 45.2127 287.651 45.193C287.651 44.5447 287.14 44.0339 286.492 44.0339C285.843 44.0339 285.333 44.5447 285.333 45.193C285.333 45.2323 285.333 45.252 285.333 45.2716V50.1241C285.333 50.1438 285.333 50.1831 285.333 50.2027C285.333 50.2224 285.333 50.2617 285.333 50.2813V50.8117V54.8588V55.8214V68.0608C285.333 68.0804 285.333 68.1197 285.333 68.1394C285.333 68.7877 285.843 69.2985 286.492 69.2985C287.14 69.2985 287.651 68.7877 287.651 68.1394V55.8018V54.8391V50.8314V50.2617V45.252Z" fill="#E6E6E6" stroke="#E6E6E6" stroke-miterlimit="10"/>
<path d="M314.119 57.668C315.003 57.668 315.73 58.3949 315.73 59.279V72.8739V73.1096C315.789 78.0211 319.798 82.0288 324.71 82.1074C324.71 82.1074 324.71 82.1074 324.73 82.1074C324.75 82.1074 324.75 82.1074 324.75 82.1074C329.642 82.0288 333.671 78.0211 333.73 73.1096V72.8739V55.507C333.73 54.6229 334.457 53.896 335.341 53.896C336.225 53.896 336.952 54.6229 336.952 55.507V73.0703C336.952 73.1096 336.952 73.1489 336.952 73.2078L336.834 74.6813C336.834 74.7206 336.834 74.7795 336.814 74.8188C335.93 80.7126 330.841 85.2704 324.75 85.349H324.73H324.71C318.599 85.2704 313.49 80.6733 312.626 74.7599L312.488 73.1489V59.279C312.508 58.3752 313.235 57.668 314.119 57.668Z" fill="#E6E6E6" stroke="#E6E6E6" stroke-miterlimit="10"/>
<path d="M329.014 49.2989C329.014 49.2792 329.014 49.2596 329.014 49.2399C329.014 48.5916 329.525 48.0808 330.173 48.0808C330.821 48.0808 331.332 48.5916 331.332 49.2399C331.332 49.2792 331.332 49.2988 331.313 49.3185V68.0803C331.313 68.0999 331.332 68.1392 331.332 68.1588C331.332 68.8072 330.821 69.3179 330.173 69.3179C329.525 69.3179 329.014 68.8072 329.014 68.1588V49.2989Z" fill="#E6E6E6" stroke="#E6E6E6" stroke-miterlimit="10"/>
<path d="M324.396 45.252C324.396 45.2323 324.396 45.2127 324.396 45.193C324.396 44.5447 324.907 44.0339 325.555 44.0339C326.204 44.0339 326.715 44.5447 326.715 45.193C326.715 45.2323 326.715 45.252 326.715 45.2716V50.1241C326.715 50.1438 326.715 50.1831 326.715 50.2027C326.715 50.2224 326.715 50.2617 326.715 50.2813V50.8117V54.8588V55.8214V68.0608C326.715 68.0804 326.715 68.1197 326.715 68.1394C326.715 68.7877 326.204 69.2985 325.555 69.2985C324.907 69.2985 324.396 68.7877 324.396 68.1394V55.8018V54.8391V50.8314V50.2617V45.252Z" fill="#E6E6E6" stroke="#E6E6E6" stroke-miterlimit="10"/>
<path d="M322.077 51.5975C322.077 50.8903 321.507 50.3206 320.8 50.3206H306.063H306.023H291.286C290.579 50.3206 290.009 50.8903 290.009 51.5975L289.93 68.159C289.93 68.8662 290.5 69.4556 291.208 69.4556C291.915 69.4556 292.485 68.8859 292.485 68.1786L292.622 54.2301C292.622 53.5228 293.212 52.9531 293.9 52.9531H306.004H306.043H318.147C318.855 52.9531 319.425 53.5228 319.425 54.2301L319.562 68.1786C319.562 68.8859 320.132 69.4556 320.839 69.4556C321.547 69.4556 322.136 68.8859 322.117 68.159L322.077 51.5975Z" fill="#E6E6E6" stroke="#E6E6E6" stroke-miterlimit="10"/>
<path d="M297.928 28.0225C297.044 28.0225 296.317 27.2956 296.317 26.4116V12.8167V12.5809C296.258 7.66946 292.249 3.66171 287.337 3.58313C287.337 3.58313 287.337 3.58313 287.317 3.58313C287.297 3.58313 287.297 3.58313 287.297 3.58313C282.405 3.66171 278.376 7.66946 278.318 12.5809V12.8167V30.1836C278.318 31.0676 277.59 31.7945 276.706 31.7945C275.822 31.7945 275.095 31.0676 275.095 30.1836V12.6399C275.095 12.6006 275.095 12.5613 275.095 12.522L275.213 11.0485C275.213 11.0092 275.213 10.9503 275.233 10.911C276.117 5.01727 281.206 0.459443 287.297 0.380859H287.317C287.317 0.380859 287.317 0.380859 287.337 0.380859C293.448 0.459443 298.557 5.05656 299.421 10.97L299.559 12.5809V26.4312C299.539 27.3153 298.812 28.0225 297.928 28.0225Z" fill="#E6E6E6" stroke="#E6E6E6" stroke-miterlimit="10"/>
<path d="M283.034 36.3916C283.034 36.4113 283.034 36.4309 283.034 36.4506C283.034 37.0989 282.523 37.6097 281.874 37.6097C281.226 37.6097 280.715 37.0989 280.715 36.4506C280.715 36.4113 280.715 36.3916 280.715 36.372V17.6102C280.715 17.5906 280.715 17.5513 280.715 17.5317C280.715 16.8833 281.226 16.3726 281.874 16.3726C282.523 16.3726 283.034 16.8833 283.034 17.5317V36.3916Z" fill="#E6E6E6" stroke="#E6E6E6" stroke-miterlimit="10"/>
<path d="M287.651 40.4388C287.651 40.4585 287.651 40.4781 287.651 40.4977C287.651 41.1461 287.14 41.6568 286.492 41.6568C285.843 41.6568 285.333 41.1461 285.333 40.4977C285.333 40.4781 285.333 40.4388 285.333 40.4192V35.5666C285.333 35.547 285.333 35.5077 285.333 35.4881C285.333 35.4684 285.333 35.4291 285.333 35.4095V34.879V30.7927V29.8301V17.5907C285.333 17.5514 285.333 17.5318 285.333 17.5121C285.333 16.8638 285.843 16.353 286.492 16.353C287.14 16.353 287.651 16.8638 287.651 17.5121V29.8497V30.8124V34.8594V35.4291V40.4388Z" fill="#E6E6E6" stroke="#E6E6E6" stroke-miterlimit="10"/>
<path d="M314.119 28.0225C315.003 28.0225 315.73 27.2956 315.73 26.4116V12.8167V12.5809C315.789 7.66946 319.798 3.66171 324.71 3.58313C324.71 3.58313 324.71 3.58313 324.73 3.58313C324.75 3.58313 324.75 3.58313 324.75 3.58313C329.642 3.66171 333.671 7.66946 333.73 12.5809V12.8167V30.1836C333.73 31.0676 334.457 31.7945 335.341 31.7945C336.225 31.7945 336.952 31.0676 336.952 30.1836V12.6399C336.952 12.6006 336.952 12.5613 336.952 12.522L336.834 11.0485C336.834 11.0092 336.834 10.9503 336.814 10.911C335.93 5.01727 330.841 0.459443 324.75 0.380859H324.73C324.73 0.380859 324.73 0.380859 324.71 0.380859C318.599 0.459443 313.49 5.05656 312.626 10.97L312.488 12.5809V26.4312C312.508 27.3153 313.235 28.0225 314.119 28.0225Z" fill="#E6E6E6" stroke="#E6E6E6" stroke-miterlimit="10"/>
<path d="M329.014 36.3916C329.014 36.4113 329.014 36.4309 329.014 36.4506C329.014 37.0989 329.525 37.6097 330.173 37.6097C330.821 37.6097 331.332 37.0989 331.332 36.4506C331.332 36.4113 331.332 36.3916 331.313 36.372V17.6102C331.313 17.5906 331.332 17.5513 331.332 17.5317C331.332 16.8833 330.821 16.3726 330.173 16.3726C329.525 16.3726 329.014 16.8833 329.014 17.5317V36.3916Z" fill="#E6E6E6" stroke="#E6E6E6" stroke-miterlimit="10"/>
<path d="M324.396 40.4388C324.396 40.4585 324.396 40.4781 324.396 40.4977C324.396 41.1461 324.907 41.6568 325.555 41.6568C326.204 41.6568 326.715 41.1461 326.715 40.4977C326.715 40.4781 326.715 40.4388 326.715 40.4192V35.5666C326.715 35.547 326.715 35.5077 326.715 35.4881C326.715 35.4684 326.715 35.4291 326.715 35.4095V34.879V30.7927V29.8301V17.5907C326.715 17.5514 326.715 17.5318 326.715 17.5121C326.715 16.8638 326.204 16.353 325.555 16.353C324.907 16.353 324.396 16.8638 324.396 17.5121V29.8497V30.8124V34.8594V35.4291V40.4388Z" fill="#E6E6E6" stroke="#E6E6E6" stroke-miterlimit="10"/>
<path d="M322.077 34.0932C322.077 34.8004 321.507 35.3701 320.8 35.3701H306.063H306.023H291.286C290.579 35.3701 290.009 34.8004 290.009 34.0932L289.93 17.5317C289.93 16.8245 290.5 16.2351 291.208 16.2351C291.915 16.2351 292.485 16.8048 292.485 17.5121L292.622 31.4606C292.622 32.1679 293.212 32.7376 293.9 32.7376H306.004H306.043H318.147C318.855 32.7376 319.425 32.1679 319.425 31.4606L319.562 17.5121C319.562 16.8048 320.132 16.2351 320.839 16.2351C321.547 16.2351 322.136 16.8048 322.117 17.5317L322.077 34.0932Z" fill="#E6E6E6" stroke="#E6E6E6" stroke-miterlimit="10"/>
</g>
<defs>
<clipPath id="clip0_1338_3376">
<rect width="508" height="107" fill="white"/>
</clipPath>
</defs>
</svg>
