<svg width="50" height="50" viewBox="0 0 50 50" fill="none" xmlns="http://www.w3.org/2000/svg">
<path opacity="0.35" d="M40.5896 17.0667C38.2188 10.7521 32.1437 6.25 25 6.25C16.4333 6.25 9.38333 12.7167 8.44792 21.0313C3.6375 21.9542 0 26.1708 0 31.25C0 37.0021 4.66458 41.6667 10.4167 41.6667H37.5C44.4042 41.6667 50 36.0708 50 29.1667C50 23.3313 45.9958 18.4458 40.5896 17.0667Z" fill="#53E0CF"/>
<path d="M40.6251 37.5C43.5016 37.5 45.8334 35.1682 45.8334 32.2917C45.8334 29.4152 43.5016 27.0834 40.6251 27.0834C37.7486 27.0834 35.4167 29.4152 35.4167 32.2917C35.4167 35.1682 37.7486 37.5 40.6251 37.5Z" fill="#53E0CF"/>
<path d="M45.8333 39.5834H35.4167C33.1146 39.5834 31.25 41.448 31.25 43.75C31.25 46.0521 33.1146 47.9167 35.4167 47.9167H45.8333C48.1354 47.9167 50 46.0521 50 43.75C50 41.448 48.1354 39.5834 45.8333 39.5834Z" fill="#53E0CF"/>
</svg>
