<svg width="56" height="57" viewBox="0 0 56 57" fill="none" xmlns="http://www.w3.org/2000/svg">
<path opacity="0.35" d="M42 49.5H14C10.1337 49.5 7 46.3663 7 42.5V16.8333H49V42.5C49 46.3663 45.8663 49.5 42 49.5Z" fill="#F7E64F"/>
<path d="M49 16.8333H7V14.5C7 10.6337 10.1337 7.5 14 7.5H42C45.8663 7.5 49 10.6337 49 14.5V16.8333Z" fill="#F7E64F"/>
<path d="M25.669 44.8333C25.48 44.8333 25.291 44.8123 25.0997 44.7633C23.849 44.4507 23.0907 43.1837 23.401 41.933L28.0677 23.2663C28.3803 22.0157 29.652 21.2597 30.898 21.5677C32.1487 21.8803 32.907 23.1473 32.5967 24.398L27.93 43.0647C27.664 44.1263 26.7143 44.8333 25.669 44.8333Z" fill="#F7E64F"/>
<path d="M37.3334 40.1667C36.7361 40.1667 36.1388 39.938 35.6838 39.483C34.7714 38.5707 34.7714 37.096 35.6838 36.1837L38.7008 33.1667L35.6838 30.1497C34.7714 29.2373 34.7714 27.7627 35.6838 26.8503C36.5961 25.938 38.0708 25.938 38.9831 26.8503L43.6498 31.517C44.5621 32.4293 44.5621 33.904 43.6498 34.8163L38.9831 39.483C38.5281 39.938 37.9308 40.1667 37.3334 40.1667Z" fill="#F7E64F"/>
<path d="M18.6666 40.1667C18.0693 40.1667 17.4719 39.938 17.0169 39.483L12.3503 34.8163C11.4379 33.904 11.4379 32.4293 12.3503 31.517L17.0169 26.8503C17.9293 25.938 19.4039 25.938 20.3163 26.8503C21.2286 27.7627 21.2286 29.2373 20.3163 30.1497L17.2993 33.1667L20.3163 36.1837C21.2286 37.096 21.2286 38.5707 20.3163 39.483C19.8613 39.938 19.2639 40.1667 18.6666 40.1667Z" fill="#F7E64F"/>
</svg>
