<svg width="56" height="56" viewBox="0 0 56 56" fill="none" xmlns="http://www.w3.org/2000/svg">
<path opacity="0.35" d="M42 49H14C10.1337 49 7 45.8664 7 42V16.3334H49V42C49 45.8664 45.8663 49 42 49Z" fill="#ADA1FF"/>
<path d="M49 16.3333H7V14C7 10.1337 10.1337 7 14 7H42C45.8663 7 49 10.1337 49 14V16.3333Z" fill="#ADA1FF"/>
<path d="M25.669 44.3334C25.48 44.3334 25.291 44.3124 25.0997 44.2634C23.849 43.9507 23.0907 42.6837 23.401 41.4331L28.0677 22.7664C28.3803 21.5157 29.652 20.7597 30.898 21.0677C32.1487 21.3804 32.907 22.6474 32.5967 23.8981L27.93 42.5647C27.664 43.6264 26.7143 44.3334 25.669 44.3334Z" fill="#ADA1FF"/>
<path d="M37.3334 39.6667C36.7361 39.6667 36.1388 39.4381 35.6838 38.9831C34.7714 38.0707 34.7714 36.5961 35.6838 35.6837L38.7008 32.6667L35.6838 29.6497C34.7714 28.7374 34.7714 27.2627 35.6838 26.3504C36.5961 25.4381 38.0708 25.4381 38.9831 26.3504L43.6498 31.0171C44.5621 31.9294 44.5621 33.4041 43.6498 34.3164L38.9831 38.9831C38.5281 39.4381 37.9308 39.6667 37.3334 39.6667Z" fill="#ADA1FF"/>
<path d="M18.6666 39.6667C18.0693 39.6667 17.4719 39.4381 17.0169 38.9831L12.3503 34.3164C11.4379 33.4041 11.4379 31.9294 12.3503 31.0171L17.0169 26.3504C17.9293 25.4381 19.4039 25.4381 20.3163 26.3504C21.2286 27.2627 21.2286 28.7374 20.3163 29.6497L17.2993 32.6667L20.3163 35.6837C21.2286 36.5961 21.2286 38.0707 20.3163 38.9831C19.8613 39.4381 19.2639 39.6667 18.6666 39.6667Z" fill="#ADA1FF"/>
</svg>
