<svg width="459" height="496" viewBox="0 0 459 496" fill="none" xmlns="http://www.w3.org/2000/svg">
<path d="M148.295 2.64109C149.909 1.14983 152.399 1.14983 154.013 2.64109L186.077 32.2615C186.318 32.4846 186.585 32.6787 186.872 32.8398L224.923 54.2217C226.835 55.2966 227.603 57.6595 226.687 59.6533L208.454 99.3483C208.317 99.6467 208.216 99.9601 208.151 100.282L199.599 143.122C199.169 145.275 197.157 146.738 194.976 146.481L151.646 141.387C151.319 141.349 150.989 141.349 150.662 141.387L107.333 146.481C105.151 146.738 103.139 145.275 102.709 143.122L94.1568 100.282C94.0925 99.9601 93.9908 99.6467 93.8538 99.3483L75.621 59.6533C74.7052 57.6595 75.4729 55.2966 77.3856 54.2217L115.437 32.8398C115.723 32.6787 115.99 32.4846 116.232 32.2615L148.295 2.64109Z" fill="#53E0CF"/>
<circle r="75.5" transform="matrix(-1 0 0 1 75.5 420.435)" fill="#F7E64F"/>
<rect x="136.26" y="247.504" width="234.835" height="234.835" transform="rotate(-31.0842 136.26 247.504)" fill="#A2E053"/>
</svg>
