<svg width="466" height="466" viewBox="0 0 466 466" fill="none" xmlns="http://www.w3.org/2000/svg">
<path d="M217.713 313.417C211.782 306.085 201.401 303.445 193.283 308.244L141.298 338.975C133.041 343.856 130.252 354.549 135.726 362.425C150.104 383.116 167.716 401.408 187.921 416.584C212.763 435.243 241.036 448.826 271.126 456.558C301.217 464.29 332.536 466.02 363.295 461.648C394.054 457.276 423.651 446.889 450.395 431.079C477.14 415.269 500.509 394.346 519.167 369.505C537.826 344.663 551.409 316.39 559.141 286.3C566.873 256.209 568.603 224.89 564.231 194.131C560.675 169.113 553.139 144.863 541.943 122.292C537.681 113.699 526.968 110.988 518.711 115.869L460.964 150.006C452.846 154.804 450.155 165.173 453.719 173.903C458.016 184.428 461.01 195.467 462.617 206.773C465.178 224.788 464.165 243.131 459.636 260.754C455.108 278.378 447.153 294.936 436.225 309.485C425.297 324.034 411.61 336.288 395.946 345.548C380.283 354.807 362.949 360.891 344.934 363.452C326.919 366.012 308.576 364.999 290.953 360.471C273.329 355.942 256.77 347.987 242.221 337.059C233.09 330.2 224.863 322.255 217.713 313.417Z" fill="#A2E053"/>
<circle r="70.5" transform="matrix(-1 0 0 1 458.5 70.5)" fill="#F7AA4F"/>
<path d="M76.096 202.48C75.9025 194.52 84.3993 189.335 91.3901 193.148L215.559 260.869C222.55 264.682 222.792 274.633 215.994 278.781L95.2613 352.454C88.4639 356.601 79.7253 351.835 79.5319 343.875L76.096 202.48Z" fill="#F7E64F"/>
</svg>
