<svg width="536" height="615" viewBox="0 0 536 615" fill="none" xmlns="http://www.w3.org/2000/svg">
<path d="M179.327 254.262C183.803 247.315 183.018 237.957 176.726 232.6L128.674 191.685C122.273 186.236 112.623 186.978 107.604 193.721C92.4242 214.111 80.6658 236.878 72.8264 261.13C63.4243 290.218 59.8434 320.872 62.2881 351.343C64.7328 381.814 73.1553 411.505 87.0747 438.721C100.994 465.936 120.138 490.144 143.413 509.962C166.687 529.779 193.638 544.819 222.725 554.221C251.812 563.623 282.466 567.204 312.937 564.759C343.408 562.314 373.099 553.892 400.315 539.972C423.007 528.366 443.609 513.129 461.317 494.892C467.173 488.862 466.368 479.217 459.968 473.767L406.901 428.583C400.609 423.226 391.245 423.943 385.101 429.469C376.331 437.358 366.554 444.092 356.007 449.487C340.067 457.639 322.677 462.572 304.831 464.004C286.985 465.436 269.032 463.338 251.996 457.832C234.961 452.325 219.176 443.517 205.545 431.911C191.913 420.304 180.701 406.126 172.549 390.186C164.397 374.246 159.464 356.857 158.032 339.011C156.6 321.165 158.697 303.211 164.204 286.176C167.848 274.903 172.937 264.178 179.327 254.262Z" fill="#A2E053"/>
<path d="M288.647 129.132C282.844 167.16 247.311 193.283 209.283 187.48C171.254 181.676 145.131 146.143 150.934 108.115C156.738 70.0864 192.271 43.963 230.299 49.7667C268.328 55.5703 294.451 91.1032 288.647 129.132Z" fill="#F7AA4F"/>
<path d="M566.405 297.95C575.354 295.379 583.73 303.46 581.482 312.495L541.558 472.971C539.31 482.006 528.124 485.22 521.424 478.756L402.409 363.942C395.708 357.478 398.518 346.184 407.466 343.613L566.405 297.95Z" fill="#F7E64F"/>
</svg>
