<svg width="34" height="48" viewBox="0 0 34 48" fill="none" xmlns="http://www.w3.org/2000/svg">
<path fill-rule="evenodd" clip-rule="evenodd" d="M0.803688 47.5327L10.2376 47.5327L10.2376 47.5319C23.2799 47.4344 33.8225 36.8315 33.8225 23.7663C33.8225 10.7011 23.2799 0.098197 10.2376 0.000676954L10.2376 0.000100935L10.1269 0.000100925C10.1034 3.22587e-05 10.0798 -2.07565e-06 10.0562 -2.07772e-06C10.0349 -2.07958e-06 10.0136 3.22508e-05 9.99233 0.000100914L0.803692 0.00010011L0.803691 8.96719C0.722824 10.2562 0.738136 11.6457 0.803691 13.109L0.803689 37.8428C0.738137 39.035 0.722825 40.1296 0.803689 41.1195L0.803688 47.5327Z" fill="#A2E053"/>
</svg>
