<svg width="34" height="48" viewBox="0 0 34 48" fill="none" xmlns="http://www.w3.org/2000/svg">
<path fill-rule="evenodd" clip-rule="evenodd" d="M0.267803 47.5327L9.70176 47.5327L9.70176 47.5319C22.744 47.4344 33.2866 36.8315 33.2866 23.7663C33.2866 10.7011 22.744 0.098197 9.70176 0.000676954L9.70176 0.000100935L9.59104 0.000100925C9.56747 3.22587e-05 9.5439 -2.07565e-06 9.52032 -2.07772e-06C9.49898 -2.07958e-06 9.47769 3.22508e-05 9.45645 0.000100914L0.267807 0.00010011L0.267807 8.96713C0.186931 10.2562 0.202247 11.6457 0.267806 13.1091L0.267804 37.8428C0.202248 39.035 0.186932 40.1296 0.267804 41.1196L0.267803 47.5327Z" fill="#F7AA4F"/>
</svg>
