<svg width="75" height="74" viewBox="0 0 75 74" fill="none" xmlns="http://www.w3.org/2000/svg">
<path opacity="0.35" d="M68.4628 52.8113V25.0613C68.4628 19.9522 64.3219 15.8113 59.2128 15.8113H22.8973C24.3743 17.4516 25.2993 19.5976 25.2993 21.9779V41.998C25.2993 44.3506 22.7493 46.0156 20.7174 44.8254C19.3484 44.0238 17.7513 43.5613 16.0493 43.5613C10.9402 43.5613 6.79926 47.7022 6.79926 52.8113C6.79926 57.9204 10.9402 62.0613 16.0493 62.0613H59.2159C64.3219 62.0613 68.4628 57.9204 68.4628 52.8113Z" fill="#F7E64F"/>
<path d="M61.9292 26.5722C61.6178 25.8168 61.0166 25.2156 60.2612 24.9042C59.885 24.75 59.4841 24.6667 59.0833 24.6667H51.1098C48.3626 24.6667 46.9874 27.9875 48.9299 29.93L50.7367 31.7368L46.75 35.7236L42.7632 31.7368C41.5577 30.5312 39.609 30.5312 38.4034 31.7368L32.2367 37.9035C31.0312 39.1091 31.0312 41.0577 32.2367 42.2633C33.4423 43.4689 35.391 43.4689 36.5966 42.2633L40.5833 38.2766L44.5701 42.2633C45.1713 42.8646 45.9607 43.1667 46.75 43.1667C47.5393 43.1667 48.3287 42.8646 48.9299 42.2633L55.0966 36.0967L56.9034 37.9035C58.8459 39.846 62.1667 38.4708 62.1667 35.7236V27.7501C62.1667 27.3492 62.0834 26.9484 61.9292 26.5722Z" fill="#F7E64F"/>
<path d="M16.0462 43.5614C17.7482 43.5614 19.3453 44.0208 20.7143 44.8255C22.7463 46.0157 25.2962 44.3507 25.2962 41.9981V21.978C25.2962 16.8689 21.1553 12.728 16.0462 12.728C10.9371 12.728 6.79617 16.8689 6.79617 21.978V52.8114C6.79617 47.7023 10.9371 43.5614 16.0462 43.5614Z" fill="#F7E64F"/>
<path d="M59.0833 52.4167H34.4167C32.7147 52.4167 31.3333 51.0353 31.3333 49.3333C31.3333 47.6313 32.7147 46.25 34.4167 46.25H59.0833C60.7853 46.25 62.1667 47.6313 62.1667 49.3333C62.1667 51.0353 60.7853 52.4167 59.0833 52.4167Z" fill="#F7E64F"/>
</svg>
