<svg width="56" height="57" viewBox="0 0 56 57" fill="none" xmlns="http://www.w3.org/2000/svg">
<path opacity="0.35" d="M28.0001 5.16669C15.1131 5.16669 4.66675 15.613 4.66675 28.5C4.66675 31.0784 6.75508 33.1667 9.33341 33.1667H18.6667C21.2451 33.1667 23.3334 35.255 23.3334 37.8334V47.1667C23.3334 49.745 25.4217 51.8334 28.0001 51.8334C40.8871 51.8334 51.3334 41.387 51.3334 28.5C51.3334 15.613 40.8871 5.16669 28.0001 5.16669ZM32.6667 44.8334C30.0884 44.8334 28.0001 42.745 28.0001 40.1667C28.0001 37.5884 30.0884 35.5 32.6667 35.5C35.2451 35.5 37.3334 37.5884 37.3334 40.1667C37.3334 42.745 35.2451 44.8334 32.6667 44.8334Z" fill="#F7AA4F"/>
<path d="M15.1667 28.5C17.0997 28.5 18.6667 26.933 18.6667 25C18.6667 23.067 17.0997 21.5 15.1667 21.5C13.2338 21.5 11.6667 23.067 11.6667 25C11.6667 26.933 13.2338 28.5 15.1667 28.5Z" fill="#F7AA4F"/>
<path d="M22.1667 19.1667C24.0997 19.1667 25.6667 17.5997 25.6667 15.6667C25.6667 13.7337 24.0997 12.1667 22.1667 12.1667C20.2338 12.1667 18.6667 13.7337 18.6667 15.6667C18.6667 17.5997 20.2338 19.1667 22.1667 19.1667Z" fill="#F7AA4F"/>
<path d="M33.8333 19.1667C35.7663 19.1667 37.3333 17.5997 37.3333 15.6667C37.3333 13.7337 35.7663 12.1667 33.8333 12.1667C31.9003 12.1667 30.3333 13.7337 30.3333 15.6667C30.3333 17.5997 31.9003 19.1667 33.8333 19.1667Z" fill="#F7AA4F"/>
<path d="M40.8333 30.8333C42.7662 30.8333 44.3333 29.2663 44.3333 27.3333C44.3333 25.4003 42.7662 23.8333 40.8333 23.8333C38.9003 23.8333 37.3333 25.4003 37.3333 27.3333C37.3333 29.2663 38.9003 30.8333 40.8333 30.8333Z" fill="#F7AA4F"/>
</svg>
