<svg width="38" height="38" viewBox="0 0 38 38" fill="none" xmlns="http://www.w3.org/2000/svg">
<path fill-rule="evenodd" clip-rule="evenodd" d="M19 3.375C10.3741 3.375 3.375 10.3741 3.375 19C3.375 27.6259 10.3741 34.625 19 34.625C27.609 34.625 34.625 27.6259 34.625 19C34.625 10.3741 27.609 3.375 19 3.375ZM29.3206 10.5774C31.1848 12.8483 32.3033 15.7462 32.3372 18.8814C31.8966 18.7966 27.4904 17.8985 23.0503 18.4577C22.9486 18.2374 22.8639 18.0001 22.7622 17.7629C22.4911 17.1189 22.186 16.458 21.881 15.8309C26.7956 13.8312 29.0325 10.9503 29.3206 10.5774ZM19 5.67977C22.3894 5.67977 25.4907 6.95078 27.8462 9.03525C27.609 9.37419 25.5923 12.0687 20.8472 13.8482C18.6611 9.83175 16.2377 6.54406 15.8648 6.03566C16.8647 5.7984 17.9154 5.67977 19 5.67977ZM13.3228 6.93384C13.6787 7.40834 16.0512 10.713 18.2713 14.6447C12.0348 16.3054 6.52712 16.2716 5.93397 16.2716C6.79825 12.1365 9.5945 8.69631 13.3228 6.93384ZM5.64588 19.0169C5.64588 18.8814 5.64588 18.7458 5.64588 18.6102C6.22207 18.6272 12.6958 18.7119 19.3559 16.7122C19.7457 17.4578 20.1015 18.2204 20.4405 18.9831C20.271 19.0339 20.0846 19.0847 19.9151 19.1356C13.0347 21.3556 9.37419 27.4226 9.06916 27.931C6.95078 25.5754 5.64588 22.4402 5.64588 19.0169ZM19 32.3541C15.9157 32.3541 13.0686 31.3034 10.8147 29.5409C11.0519 29.0495 13.7634 23.8298 21.2878 21.2031C21.3217 21.1862 21.3387 21.1862 21.3726 21.1692C23.2537 26.0329 24.0163 30.1171 24.2196 31.2865C22.6097 31.9813 20.8472 32.3541 19 32.3541ZM26.4397 30.0663C26.3041 29.2528 25.5923 25.3551 23.8468 20.5591C28.0327 19.8982 31.6932 20.9828 32.1507 21.1353C31.5746 24.8467 29.4392 28.0496 26.4397 30.0663Z" fill="white"/>
</svg>
