<svg width="56" height="56" viewBox="0 0 56 56" fill="none" xmlns="http://www.w3.org/2000/svg">
<g clip-path="url(#clip0_1530_3804)">
<path opacity="0.35" d="M13.9999 32.6666H9.33325V37.3333H13.9999V32.6666Z" fill="#F7AA4F"/>
<path opacity="0.35" d="M23.3334 32.6666H18.6667V37.3333H23.3334V32.6666Z" fill="#F7AA4F"/>
<path opacity="0.35" d="M32.6667 32.6666H28V37.3333H32.6667V32.6666Z" fill="#F7AA4F"/>
<path opacity="0.35" d="M32.6667 42H28V46.6667H32.6667V42Z" fill="#F7AA4F"/>
<path opacity="0.35" d="M23.3334 42H18.6667V46.6667H23.3334V42Z" fill="#F7AA4F"/>
<path opacity="0.35" d="M13.9999 42H9.33325V46.6667H13.9999V42Z" fill="#F7AA4F"/>
<path d="M42.0001 32.6667H48.0107L46.7881 9.205C46.7204 7.96833 45.6961 7 44.4594 7H37.2074C35.9684 7 34.9464 7.96833 34.8787 9.205L33.8334 28H25.6667V19.1497C25.6667 18.1113 24.4091 17.5887 23.6741 18.3237L16.3334 25.6667V19.1497C16.3334 18.1113 15.0757 17.5887 14.3407 18.3237L6.03175 26.6327C5.15675 27.5077 4.66675 28.6953 4.66675 29.932V46.6667C4.66675 49.245 6.75508 51.3333 9.33342 51.3333H37.3334V37.3333C37.3334 34.755 39.4217 32.6667 42.0001 32.6667ZM14.0001 46.6667H9.33342V42H14.0001V46.6667ZM14.0001 37.3333H9.33342V32.6667H14.0001V37.3333ZM23.3334 46.6667H18.6667V42H23.3334V46.6667ZM23.3334 37.3333H18.6667V32.6667H23.3334V37.3333ZM32.6667 46.6667H28.0001V42H32.6667V46.6667ZM32.6667 37.3333H28.0001V32.6667H32.6667V37.3333Z" fill="#F7AA4F"/>
<path opacity="0.35" d="M48.9999 32.6666H41.9999C39.4216 32.6666 37.3333 34.755 37.3333 37.3333V51.3333C37.3333 53.9116 39.4216 56 41.9999 56H51.3333C53.9116 56 55.9999 53.9116 55.9999 51.3333V39.6666L48.9999 32.6666Z" fill="#F7AA4F"/>
<path d="M49 32.6666V37.3333C49 38.6213 50.0453 39.6666 51.3333 39.6666H56L49 32.6666Z" fill="#F7AA4F"/>
</g>
<defs>
<clipPath id="clip0_1530_3804">
<rect width="56" height="56" fill="white"/>
</clipPath>
</defs>
</svg>
