<svg width="16" height="25" viewBox="0 0 16 25" fill="none" xmlns="http://www.w3.org/2000/svg">
<path d="M5.90037 16.4671C5.67191 16.4671 5.48406 16.676 5.48406 16.9301V20.838V20.9058C5.46883 22.3176 4.43314 23.4696 3.16391 23.4922C3.16391 23.4922 3.1639 23.4922 3.15882 23.4922C3.15375 23.4922 3.15375 23.4922 3.15375 23.4922C1.88959 23.4696 0.848825 22.3176 0.833594 20.9058V20.838V15.8459C0.833594 15.5918 0.645744 15.3828 0.417282 15.3828C0.18882 15.3828 0.000976562 15.5918 0.000976562 15.8459V20.8945C0.000976562 20.9058 0.000976562 20.9171 0.000976562 20.934L0.0314369 21.3575C0.0314369 21.3688 0.0314357 21.3858 0.0365126 21.3971C0.264974 23.0912 1.5799 24.4014 3.15375 24.424H3.15882H3.16391C4.74283 24.4014 6.06283 23.0799 6.28622 21.3801L6.32175 20.9171V16.9301C6.31668 16.6704 6.12883 16.4671 5.90037 16.4671Z" fill="black"/>
<path d="M2.0522 14.0616C2.0522 14.0559 2.0522 14.0503 2.0522 14.0446C2.0522 13.8583 1.9202 13.7114 1.75266 13.7114C1.58513 13.7114 1.45312 13.8583 1.45312 14.0446C1.45312 14.0559 1.45312 14.0616 1.45312 14.0672V19.4603C1.45312 19.4659 1.45312 19.4772 1.45312 19.4828C1.45312 19.6692 1.58513 19.816 1.75266 19.816C1.9202 19.816 2.0522 19.6692 2.0522 19.4828V14.0616Z" fill="black"/>
<path d="M3.24507 12.8982C3.24507 12.8926 3.24507 12.8869 3.24507 12.8813C3.24507 12.6949 3.11307 12.5481 2.94553 12.5481C2.778 12.5481 2.646 12.6949 2.646 12.8813C2.646 12.8926 2.646 12.8982 2.646 12.9039V14.2987C2.646 14.3044 2.646 14.3157 2.646 14.3213C2.646 14.327 2.646 14.3383 2.646 14.3439V14.4964V15.6597V15.9364V19.4546C2.646 19.4602 2.646 19.4715 2.646 19.4772C2.646 19.6635 2.778 19.8104 2.94553 19.8104C3.11307 19.8104 3.24507 19.6635 3.24507 19.4772V15.9308V15.654V14.502V14.3383V12.8982Z" fill="black"/>
<path d="M10.0837 16.4671C10.3122 16.4671 10.5 16.676 10.5 16.9301V20.838V20.9058C10.5153 22.3176 11.551 23.4696 12.8202 23.4922C12.8202 23.4922 12.8202 23.4922 12.8253 23.4922C12.8304 23.4922 12.8303 23.4922 12.8303 23.4922C14.0945 23.4696 15.1353 22.3176 15.1505 20.9058V20.838V15.8459C15.1505 15.5918 15.3384 15.3828 15.5668 15.3828C15.7953 15.3828 15.9831 15.5918 15.9831 15.8459V20.8945C15.9831 20.9058 15.9831 20.9171 15.9831 20.934L15.9527 21.3575C15.9527 21.3688 15.9527 21.3858 15.9476 21.3971C15.7191 23.0912 14.4042 24.4014 12.8303 24.424H12.8253H12.8202C11.2413 24.4014 9.92127 23.0799 9.69789 21.3801L9.66235 20.9171V16.9301C9.66743 16.6704 9.85527 16.4671 10.0837 16.4671Z" fill="black"/>
<path d="M13.9321 14.0616C13.9321 14.0559 13.9321 14.0503 13.9321 14.0446C13.9321 13.8583 14.0641 13.7114 14.2317 13.7114C14.3992 13.7114 14.5312 13.8583 14.5312 14.0446C14.5312 14.0559 14.5312 14.0616 14.5261 14.0672V19.4603C14.5261 19.4659 14.5312 19.4772 14.5312 19.4828C14.5312 19.6692 14.3992 19.816 14.2317 19.816C14.0641 19.816 13.9321 19.6692 13.9321 19.4828V14.0616Z" fill="black"/>
<path d="M12.739 12.8982C12.739 12.8926 12.739 12.8869 12.739 12.8813C12.739 12.6949 12.871 12.5481 13.0386 12.5481C13.2061 12.5481 13.3381 12.6949 13.3381 12.8813C13.3381 12.8926 13.3381 12.8982 13.3381 12.9039V14.2987C13.3381 14.3044 13.3381 14.3157 13.3381 14.3213C13.3381 14.327 13.3381 14.3383 13.3381 14.3439V14.4964V15.6597V15.9364V19.4546C13.3381 19.4602 13.3381 19.4715 13.3381 19.4772C13.3381 19.6635 13.2061 19.8104 13.0386 19.8104C12.871 19.8104 12.739 19.6635 12.739 19.4772V15.9308V15.654V14.502V14.3383V12.8982Z" fill="black"/>
<path d="M12.1398 14.7223C12.1398 14.519 11.9926 14.3552 11.8098 14.3552H8.00214H7.99199H4.18429C4.00152 14.3552 3.85429 14.519 3.85429 14.7223L3.83398 19.4829C3.83398 19.6862 3.98122 19.8556 4.16398 19.8556C4.34675 19.8556 4.49399 19.6918 4.49399 19.4885L4.52952 15.479C4.52952 15.2757 4.68183 15.1119 4.85952 15.1119H7.98692H7.99707H11.1245C11.3072 15.1119 11.4545 15.2757 11.4545 15.479L11.49 19.4885C11.49 19.6918 11.6372 19.8556 11.82 19.8556C12.0028 19.8556 12.1551 19.6918 12.15 19.4829L12.1398 14.7223Z" fill="black"/>
<path d="M5.90037 7.94559C5.67191 7.94559 5.48406 7.73664 5.48406 7.48252V3.57467V3.5069C5.46883 2.09511 4.43314 0.94308 3.16391 0.920491C3.16391 0.920491 3.1639 0.920491 3.15882 0.920491C3.15375 0.920491 3.15375 0.920491 3.15375 0.920491C1.88959 0.94308 0.848825 2.09511 0.833594 3.5069V3.57467V8.56678C0.833594 8.8209 0.645744 9.02985 0.417282 9.02985C0.18882 9.02985 0.000976562 8.8209 0.000976562 8.56678V3.52384C0.000976562 3.51255 0.000976562 3.50125 0.000976562 3.48996L0.0314369 3.06642C0.0314369 3.05513 0.0314357 3.03819 0.0365126 3.02689C0.264974 1.33274 1.5799 0.0225887 3.15375 0H3.15882C3.15882 0 3.15883 0 3.16391 0C4.74283 0.0225887 6.06283 1.34403 6.28622 3.04383L6.32175 3.5069V7.48817C6.31668 7.74229 6.12883 7.94559 5.90037 7.94559Z" fill="black"/>
<path d="M2.0522 10.3512C2.0522 10.3568 2.0522 10.3625 2.0522 10.3681C2.0522 10.5545 1.9202 10.7013 1.75266 10.7013C1.58513 10.7013 1.45312 10.5545 1.45312 10.3681C1.45312 10.3568 1.45312 10.3512 1.45312 10.3455V4.95245C1.45312 4.9468 1.45312 4.93551 1.45312 4.92986C1.45312 4.74351 1.58513 4.59668 1.75266 4.59668C1.9202 4.59668 2.0522 4.74351 2.0522 4.92986V10.3512Z" fill="black"/>
<path d="M3.24507 11.5145C3.24507 11.5202 3.24507 11.5258 3.24507 11.5315C3.24507 11.7178 3.11307 11.8646 2.94553 11.8646C2.778 11.8646 2.646 11.7178 2.646 11.5315C2.646 11.5258 2.646 11.5145 2.646 11.5089V10.114C2.646 10.1084 2.646 10.0971 2.646 10.0914C2.646 10.0858 2.646 10.0745 2.646 10.0688V9.91636V8.74174V8.46503V4.94684C2.646 4.93554 2.646 4.9299 2.646 4.92425C2.646 4.73789 2.778 4.59106 2.94553 4.59106C3.11307 4.59106 3.24507 4.73789 3.24507 4.92425V8.47068V8.74739V9.91071V10.0745V11.5145Z" fill="black"/>
<path d="M10.0837 7.94559C10.3122 7.94559 10.5 7.73664 10.5 7.48252V3.57467V3.5069C10.5153 2.09511 11.551 0.94308 12.8202 0.920491C12.8202 0.920491 12.8202 0.920491 12.8253 0.920491C12.8304 0.920491 12.8303 0.920491 12.8303 0.920491C14.0945 0.94308 15.1353 2.09511 15.1505 3.5069V3.57467V8.56678C15.1505 8.8209 15.3384 9.02985 15.5668 9.02985C15.7953 9.02985 15.9831 8.8209 15.9831 8.56678V3.52384C15.9831 3.51255 15.9831 3.50125 15.9831 3.48996L15.9527 3.06642C15.9527 3.05513 15.9527 3.03819 15.9476 3.02689C15.7191 1.33274 14.4042 0.0225887 12.8303 0H12.8253C12.8253 0 12.8253 0 12.8202 0C11.2413 0.0225887 9.92127 1.34403 9.69789 3.04383L9.66235 3.5069V7.48817C9.66743 7.74229 9.85527 7.94559 10.0837 7.94559Z" fill="black"/>
<path d="M13.9321 10.3512C13.9321 10.3568 13.9321 10.3625 13.9321 10.3681C13.9321 10.5545 14.0641 10.7013 14.2317 10.7013C14.3992 10.7013 14.5312 10.5545 14.5312 10.3681C14.5312 10.3568 14.5312 10.3512 14.5261 10.3455V4.95245C14.5261 4.9468 14.5312 4.93551 14.5312 4.92986C14.5312 4.74351 14.3992 4.59668 14.2317 4.59668C14.0641 4.59668 13.9321 4.74351 13.9321 4.92986V10.3512Z" fill="black"/>
<path d="M12.739 11.5145C12.739 11.5202 12.739 11.5258 12.739 11.5315C12.739 11.7178 12.871 11.8646 13.0386 11.8646C13.2061 11.8646 13.3381 11.7178 13.3381 11.5315C13.3381 11.5258 13.3381 11.5145 13.3381 11.5089V10.114C13.3381 10.1084 13.3381 10.0971 13.3381 10.0914C13.3381 10.0858 13.3381 10.0745 13.3381 10.0688V9.91636V8.74174V8.46503V4.94684C13.3381 4.93554 13.3381 4.9299 13.3381 4.92425C13.3381 4.73789 13.2061 4.59106 13.0386 4.59106C12.871 4.59106 12.739 4.73789 12.739 4.92425V8.47068V8.74739V9.91071V10.0745V11.5145Z" fill="black"/>
<path d="M12.1398 9.69066C12.1398 9.89396 11.9926 10.0577 11.8098 10.0577H8.00214H7.99199H4.18429C4.00152 10.0577 3.85429 9.89396 3.85429 9.69066L3.83398 4.93009C3.83398 4.72679 3.98122 4.55737 4.16398 4.55737C4.34675 4.55737 4.49399 4.72114 4.49399 4.92444L4.52952 8.93394C4.52952 9.13724 4.68183 9.30101 4.85952 9.30101H7.98692H7.99707H11.1245C11.3072 9.30101 11.4545 9.13724 11.4545 8.93394L11.49 4.92444C11.49 4.72114 11.6372 4.55737 11.82 4.55737C12.0028 4.55737 12.1551 4.72114 12.15 4.93009L12.1398 9.69066Z" fill="black"/>
</svg>
