<svg width="43" height="43" viewBox="0 0 43 43" fill="none" xmlns="http://www.w3.org/2000/svg">
<g clip-path="url(#clip0_1338_3337)">
<path d="M16.2234 36.5884C18.9834 36.5884 21.2234 34.3484 21.2234 31.5884V26.5884H16.2234C13.4634 26.5884 11.2234 28.8284 11.2234 31.5884C11.2234 34.3484 13.4634 36.5884 16.2234 36.5884Z" fill="#0ACF83"/>
<path d="M11.2234 21.5889C11.2234 18.8289 13.4634 16.5889 16.2234 16.5889H21.2234V26.5889H16.2234C13.4634 26.5889 11.2234 24.3489 11.2234 21.5889Z" fill="#A259FF"/>
<path d="M11.2234 11.5886C11.2234 8.82862 13.4634 6.58862 16.2234 6.58862H21.2234V16.5886H16.2234C13.4634 16.5886 11.2234 14.3486 11.2234 11.5886Z" fill="#F24E1E"/>
<path d="M21.2234 6.58862H26.2234C28.9834 6.58862 31.2234 8.82862 31.2234 11.5886C31.2234 14.3486 28.9834 16.5886 26.2234 16.5886H21.2234V6.58862Z" fill="#FF7262"/>
<path d="M31.2234 21.5889C31.2234 24.3489 28.9834 26.5889 26.2234 26.5889C23.4634 26.5889 21.2234 24.3489 21.2234 21.5889C21.2234 18.8289 23.4634 16.5889 26.2234 16.5889C28.9834 16.5889 31.2234 18.8289 31.2234 21.5889Z" fill="#1ABCFE"/>
</g>
<defs>
<clipPath id="clip0_1338_3337">
<rect width="30" height="30" fill="white" transform="translate(6.18433 6.58862)"/>
</clipPath>
</defs>
</svg>
