<svg width="56" height="56" viewBox="0 0 56 56" fill="none" xmlns="http://www.w3.org/2000/svg">
<path d="M49.5366 13.4633C44.0299 7.95659 35.0699 7.95659 29.5633 13.4633C29.0733 13.9533 28.6533 14.4899 28.2566 15.0266L49.3266 33.2499C49.3966 33.3199 49.4899 33.3899 49.5366 33.4366C55.0433 27.9299 55.0433 18.9699 49.5366 13.4633Z" fill="#A2E053"/>
<path opacity="0.35" d="M49.609 33.5182L49.6183 33.5089L49.546 33.4459C49.5413 33.4412 49.5367 33.4342 49.532 33.4296C49.49 33.3876 49.3967 33.3129 49.322 33.2522L26.432 13.4656C20.9183 7.95191 11.9817 7.95191 6.46801 13.4656C0.954347 18.9792 0.954347 27.9159 6.46801 33.4296C8.86435 35.8259 23.3637 47.8869 24.3693 48.8926C24.633 49.1562 24.9177 49.3802 25.2187 49.5739C25.774 50.0662 26.1963 50.4302 26.3713 50.5516C27.6243 51.4289 29.302 51.6506 30.674 50.7616C31.4557 50.2529 31.7683 49.2846 31.8943 48.6522C32.011 48.5472 32.1743 48.4049 32.361 48.2416C33.159 48.6032 35.0863 49.2822 36.6707 48.2812C38.675 47.0166 38.815 45.1592 38.815 45.1592C38.815 45.1592 41.1227 45.7052 43.057 44.0696C44.947 42.4736 44.9167 40.2079 44.9167 40.2079C44.9167 40.2079 47.8894 41.1482 49.9543 38.6236C51.506 36.7336 51.0277 35.0209 49.609 33.5182Z" fill="#A2E053"/>
<path d="M25.977 49.7374C26.6396 49.0747 26.4413 49.273 27.1016 48.6127C28.5226 47.1917 28.5226 44.8887 27.1016 43.47C25.6806 42.049 23.3776 42.049 21.959 43.47C21.2963 44.1327 21.4946 43.9344 20.8343 44.5947C19.4133 46.0157 19.4133 48.3187 20.8343 49.7374C22.253 51.1584 24.556 51.1584 25.977 49.7374Z" fill="#A2E053"/>
<path d="M16.2494 42.5903C16.9121 41.9276 16.7138 42.1259 17.3741 41.4656C18.7951 40.0446 18.7951 37.7416 17.3741 36.3229C15.9531 34.9043 13.6501 34.9019 12.2314 36.3229C11.5688 36.9856 11.7671 36.7873 11.1068 37.4476C9.68577 38.8686 9.68577 41.1716 11.1068 42.5903C12.5254 44.0113 14.8284 44.0113 16.2494 42.5903Z" fill="#A2E053"/>
<path d="M11.1369 38.6588C11.7996 37.9961 11.6012 38.1944 12.2616 37.5341C13.6826 36.1131 13.6826 33.8101 12.2616 32.3914C10.8406 30.9704 8.53755 30.9704 7.11888 32.3914C6.45622 33.0541 6.65455 32.8558 5.99422 33.5161C4.57322 34.9371 4.57322 37.2401 5.99422 38.6588C7.41288 40.0798 9.71588 40.0798 11.1369 38.6588Z" fill="#A2E053"/>
<path d="M20.9183 46.7786C21.5809 46.116 22.0359 45.661 22.6986 44.9983C24.1196 43.5773 24.1196 41.2743 22.6986 39.8556C21.2776 38.437 18.9746 38.4346 17.5559 39.8556C16.8933 40.5183 16.4359 40.9733 15.7733 41.636C14.3523 43.057 14.3523 45.36 15.7733 46.7786C17.1943 48.1996 19.4973 48.1996 20.9183 46.7786Z" fill="#A2E053"/>
<path d="M49.644 17.7334C48.8203 17.3414 41.1296 13.2907 38.542 12.8964C37.695 12.768 36.239 12.845 33.873 13.223C32.3586 13.4657 29.6333 13.776 28.567 14.7024C27.5753 15.5634 24.4486 20.2767 22.561 23.1817C21.6486 24.5864 22.1946 26.5207 23.6856 27.0947C25.529 27.8017 27.8086 27.881 30.1396 26.327C31.2876 25.5617 32.5453 24.7544 33.6396 24.0614C35.3756 22.9624 37.618 23.1397 39.172 24.4837L42.6066 27.454C44.6506 25.6037 52.766 19.2174 49.644 17.7334Z" fill="#A2E053"/>
</svg>
