<svg width="56" height="56" viewBox="0 0 56 56" fill="none" xmlns="http://www.w3.org/2000/svg">
<path opacity="0.35" d="M9.3335 44.3334V11.6667C9.3335 7.80042 12.4672 4.66675 16.3335 4.66675H39.6668C43.5332 4.66675 46.6668 7.80042 46.6668 11.6667V44.3334C46.6668 48.1997 43.5332 51.3334 39.6668 51.3334H16.3335C12.4672 51.3334 9.3335 48.1997 9.3335 44.3334Z" fill="#53E0CF"/>
<path d="M33.8332 9.33325H22.1665C20.2322 9.33325 18.6665 7.76525 18.6665 5.83325C18.6665 3.90125 20.2322 2.33325 22.1665 2.33325H33.8332C35.7675 2.33325 37.3332 3.90125 37.3332 5.83325C37.3332 7.76525 35.7675 9.33325 33.8332 9.33325Z" fill="#53E0CF"/>
<path d="M27.9998 42.0001C26.7118 42.0001 25.6665 40.9548 25.6665 39.6667V21.0001C25.6665 19.7121 26.7118 18.6667 27.9998 18.6667C29.2878 18.6667 30.3332 19.7121 30.3332 21.0001V39.6667C30.3332 40.9548 29.2878 42.0001 27.9998 42.0001Z" fill="#53E0CF"/>
<path d="M16.3335 30.3333C16.3335 29.0453 17.3788 28 18.6668 28H37.3335C38.6215 28 39.6668 29.0453 39.6668 30.3333C39.6668 31.6213 38.6215 32.6667 37.3335 32.6667H18.6668C17.3788 32.6667 16.3335 31.6213 16.3335 30.3333Z" fill="#53E0CF"/>
</svg>
