<svg width="24" height="24" viewBox="0 0 24 24" fill="none" xmlns="http://www.w3.org/2000/svg">
<path d="M0.583252 7.04762H4.94833V23.4167H0.583252V7.04762ZM2.7527 4.86508H2.72869C1.42571 4.86508 0.583252 3.89385 0.583252 2.68145C0.583252 1.44286 1.4519 0.5 2.7778 0.5C4.10587 0.5 4.92323 1.44286 4.94833 2.68145C4.94833 3.89385 4.10587 4.86508 2.7527 4.86508ZM23.4999 13.0496C23.4999 9.73433 20.8132 7.04762 17.4979 7.04762C15.466 7.04762 13.673 8.06032 12.5872 9.60556V7.04762H8.22214V23.4167H12.5872V14.6865C12.5872 12.8783 14.0528 11.4127 15.861 11.4127C17.6693 11.4127 19.1348 12.8783 19.1348 14.6865V23.4167H23.4999C23.4999 23.4167 23.4999 13.509 23.4999 13.0496Z" fill="white"/>
</svg>
