<svg width="40" height="41" viewBox="0 0 40 41" fill="none" xmlns="http://www.w3.org/2000/svg">
<g clip-path="url(#clip0_1338_3309)">
<path d="M2.66271 28.7412H5.55702V16.4201H2.66271V28.7412ZM4.10406 14.8043C5.01072 14.8043 5.71976 14.1069 5.71976 13.2351C5.71976 12.3517 5.01072 11.6543 4.10406 11.6543C3.20904 11.6543 2.5 12.3517 2.5 13.2351C2.5 14.1069 3.20904 14.8043 4.10406 14.8043ZM15.1935 11.6891C10.3 11.6891 7.23119 15.0251 7.23119 20.3605C7.23119 25.6959 10.2997 29.0203 15.1935 29.0203C20.0754 29.0203 23.1442 25.6959 23.1442 20.3605C23.1442 15.0251 20.0757 11.6891 15.1935 11.6891ZM15.1935 14.2463C18.1808 14.2463 20.087 16.6176 20.087 20.3604C20.087 24.0916 18.1807 26.4629 15.1935 26.4629C12.1946 26.4629 10.3 24.0917 10.3 20.3604C10.3 16.6176 12.1947 14.2463 15.1935 14.2463ZM24.3651 24.022C24.493 27.114 27.0269 29.0202 30.886 29.0202C34.9427 29.0202 37.5 27.0209 37.5 23.836C37.5 21.3369 36.0586 19.9304 32.6529 19.1517L30.7234 18.71C28.666 18.2218 27.8175 17.5709 27.8175 16.455C27.8175 15.0602 29.0961 14.1303 30.9907 14.1303C32.9086 14.1303 34.222 15.0718 34.3616 16.641H37.221C37.1513 13.6886 34.7103 11.6892 31.0141 11.6892C27.3641 11.6892 24.772 13.7001 24.772 16.6758C24.772 19.0703 26.2366 20.5582 29.3283 21.2673L31.502 21.7787C33.6175 22.2785 34.4776 22.9759 34.4776 24.1848C34.4776 25.5797 33.0712 26.5793 31.0488 26.5793C29.003 26.5793 27.4571 25.5681 27.2712 24.0221H24.3652L24.3651 24.022Z" fill="white"/>
</g>
<defs>
<clipPath id="clip0_1338_3309">
<rect width="35" height="35" fill="white" transform="translate(2.5 2.9043)"/>
</clipPath>
</defs>
</svg>
