<svg width="56" height="57" viewBox="0 0 56 57" fill="none" xmlns="http://www.w3.org/2000/svg">
<path opacity="0.35" d="M41.2463 31.6407L37.3333 29.7063V17.377C37.3333 14.3927 36.1479 11.5297 34.0363 9.42033L31.1616 6.54333C29.4163 4.798 26.5859 4.798 24.8406 6.54333L21.9636 9.42033C19.8519 11.532 18.6666 14.3927 18.6666 17.377V29.7063L14.7536 31.6407C12.8076 32.602 11.4169 34.415 10.9899 36.543L10.3133 39.9357C9.80692 42.4697 11.7436 44.8333 14.3266 44.8333H41.6733C44.2563 44.8333 46.1952 42.4697 45.6889 39.9357L45.0099 36.543C44.5829 34.415 43.1922 32.602 41.2463 31.6407Z" fill="#F7AA4F"/>
<path d="M27.9999 23.8333C30.5772 23.8333 32.6666 21.744 32.6666 19.1667C32.6666 16.5893 30.5772 14.5 27.9999 14.5C25.4226 14.5 23.3333 16.5893 23.3333 19.1667C23.3333 21.744 25.4226 23.8333 27.9999 23.8333Z" fill="#F7AA4F"/>
<path d="M21 44.8333C21 47.127 22.6893 49.9807 24.409 52.293C26.208 54.715 29.792 54.715 31.5933 52.293C33.3107 49.9807 35 47.127 35 44.8333H21Z" fill="#F7AA4F"/>
</svg>
