<svg width="50" height="50" viewBox="0 0 50 50" fill="none" xmlns="http://www.w3.org/2000/svg">
<g clip-path="url(#clip0_1517_6266)">
<path opacity="0.35" d="M39.5832 37.4999H10.4165C6.96442 37.4999 4.1665 34.702 4.1665 31.2499V14.5833C4.1665 11.1312 6.96442 8.33325 10.4165 8.33325H39.5832C43.0353 8.33325 45.8332 11.1312 45.8332 14.5833V31.2499C45.8332 34.702 43.0353 37.4999 39.5832 37.4999Z" fill="#F7E64F"/>
<path d="M32.2918 37.5C31.9252 37.5 18.0752 37.5 17.7085 37.5C15.9835 37.5 14.5835 38.9 14.5835 40.625C14.5835 42.35 15.9835 43.75 17.7085 43.75C18.0752 43.75 31.9252 43.75 32.2918 43.75C34.0168 43.75 35.4168 42.35 35.4168 40.625C35.4168 38.9 34.0168 37.5 32.2918 37.5Z" fill="#F7E64F"/>
<path d="M25 8.33325V18.7499C25 19.7333 25.6917 20.5812 26.6521 20.7895C26.6917 20.7978 30.6729 21.6749 34.0833 24.5187C34.4688 24.8395 34.9417 24.9999 35.4167 24.9999C35.8917 24.9999 36.3646 24.8395 36.75 24.5166C40.1604 21.6749 44.1417 20.7958 44.175 20.7895C45.1417 20.5874 45.8333 19.7374 45.8333 18.7499V8.33325H25Z" fill="#F7E64F"/>
<path d="M48.8481 6.46885L36.3481 0.218848C35.7627 -0.0749023 35.071 -0.0749023 34.4835 0.218848L21.9835 6.46885C21.2793 6.82301 20.8335 7.54385 20.8335 8.33343C20.8335 9.12301 21.2793 9.84385 21.9856 10.198L34.4856 16.448C34.7772 16.5938 35.0981 16.6668 35.4168 16.6668C35.7356 16.6668 36.0564 16.5938 36.3481 16.448L48.8481 10.198C49.5543 9.84385 50.0002 9.12301 50.0002 8.33343C50.0002 7.54385 49.5543 6.82301 48.8481 6.46885Z" fill="#F7E64F"/>
</g>
<defs>
<clipPath id="clip0_1517_6266">
<rect width="50" height="50" fill="white"/>
</clipPath>
</defs>
</svg>
