<svg width="24" height="24" viewBox="0 0 24 24" fill="none" xmlns="http://www.w3.org/2000/svg">
<path d="M12 0C8.8174 0 5.76516 1.26428 3.51472 3.51472C1.26428 5.76516 0 8.8174 0 12C0 15.1826 1.26428 18.2348 3.51472 20.4853C5.76516 22.7357 8.8174 24 12 24C15.1826 24 18.2348 22.7357 20.4853 20.4853C22.7357 18.2348 24 15.1826 24 12C24 8.8174 22.7357 5.76516 20.4853 3.51472C18.2348 1.26428 15.1826 0 12 0Z" fill="#0288D1"/>
<path d="M6 8.9999H8.4V17.9999H6V8.9999ZM7.1928 7.7999H7.1796C6.4632 7.7999 6 7.2659 6 6.5993C6 5.9183 6.4776 5.3999 7.2066 5.3999C7.9368 5.3999 8.3862 5.9183 8.4 6.5993C8.4 7.2659 7.9368 7.7999 7.1928 7.7999ZM18.6 12.2999C18.6 10.4771 17.1228 8.9999 15.3 8.9999C14.1828 8.9999 13.197 9.5567 12.6 10.4063V8.9999H10.2V17.9999H12.6V13.1999C12.6 12.2057 13.4058 11.3999 14.4 11.3999C15.3942 11.3999 16.2 12.2057 16.2 13.1999V17.9999H18.6C18.6 17.9999 18.6 12.5525 18.6 12.2999Z" fill="white"/>
</svg>
