<svg width="563" height="287" viewBox="0 0 563 287" fill="none" xmlns="http://www.w3.org/2000/svg">
<path d="M130.703 26.5951C130.501 24.9976 130.092 23.4331 129.487 21.9408C129.41 21.6586 129.275 21.3956 129.091 21.1685C128.906 20.9413 128.677 20.7551 128.416 20.6216C128.068 20.5312 127.704 20.5271 127.354 20.6098L121.897 21.4446C121.441 21.4655 121.003 21.6354 120.652 21.9284C119.942 22.6757 120.642 23.8792 120.62 24.9102C120.595 26.0697 119.565 27.0108 118.448 27.3221C117.308 27.5525 116.132 27.538 114.997 27.2793L107.368 26.0937C109.615 25.3764 111.615 24.0417 113.14 22.2421C114.144 21.0527 114.678 18.8321 113.227 18.2689C112.796 18.1505 112.346 18.1144 111.902 18.1625C108.445 18.1893 105.725 15.3032 102.489 14.0877C100.418 13.36 98.1693 13.3059 96.0655 13.933C93.9618 14.5602 92.1102 15.8365 90.7755 17.5794L94.8399 17.7754C95.2222 17.7543 95.6014 17.8554 95.9225 18.0641C96.8132 18.7959 95.7058 20.2016 95.8313 21.3476C95.9943 22.8364 97.9711 23.1543 99.4613 23.3048C100.951 23.4554 102.842 24.6661 102.125 25.9812C94.6354 28.561 87.0137 20.9382 79.1479 21.8766C77.1572 22.1141 75.2773 22.8961 73.3336 23.3879C61.4603 26.392 49.1855 18.3767 37.0562 20.0742C34.3597 20.5339 31.7096 21.2329 29.1371 22.1628C27.4863 22.7048 25.7644 23.2906 24.565 24.5477C23.3655 25.8047 22.909 27.9545 24.0453 29.269C20.9133 29.5269 17.7604 29.2272 14.7332 28.3838C15.5518 28.8389 16.2328 29.5059 16.7048 30.3149C17.1767 31.1239 17.4222 32.0451 17.4153 32.9817C12.5252 33.7791 7.76447 35.2307 3.26131 37.2974C4.10177 38.695 5.08343 40.0027 6.19086 41.1999L0 45.1772C2.09157 45.7042 3.17296 48.5562 1.95664 50.3375C4.12535 49.3727 5.46942 46.8768 7.78851 46.3708C9.30781 46.0393 10.8537 46.6608 12.295 47.2447C13.7363 47.8285 15.3205 48.3947 16.8125 47.9565C18.3046 47.5183 19.4051 45.5836 18.457 44.351C24.8344 42.4903 31.4253 41.4606 38.0663 41.2873C38.5787 41.223 39.0982 41.3216 39.5514 41.5692C40.4159 42.169 40.1885 43.4644 40.1419 44.5156C40.0953 45.5667 40.9146 46.9482 41.8541 46.4744C40.7488 47.4328 41.6936 49.2372 42.7541 50.245C43.8145 51.2529 45.0926 52.6436 44.4434 53.9546C44.2739 54.2968 43.9865 54.5706 43.8235 54.9158C43.3423 55.935 44.1063 57.1231 45.0075 57.8C45.9088 58.4768 47.0126 58.9498 47.6387 59.887C48.2647 60.8242 47.9804 62.4646 46.861 62.5955L43.6792 58.5557C42.5921 59.6829 41.8468 61.0952 41.5298 62.6288C44.9038 65.387 45.4113 71.0011 42.5866 74.3196C41.1431 76.0155 39.0903 77.046 37.2987 78.3688C35.5071 79.6915 33.8493 81.5751 33.8538 83.8022C33.8616 87.6497 33.5472 91.2242 34.9889 94.7914C37.6476 101.369 40.717 107.773 44.1792 113.965C45.0884 115.591 46.2634 117.373 48.1052 117.653C45.7775 111.987 43.6821 106.232 41.8191 100.389C43.0325 100.394 44.4348 100.49 45.1462 101.473C45.7352 102.287 45.6087 103.394 45.7917 104.382C46.0245 105.339 46.4127 106.252 46.9409 107.084L58.0562 126.883C58.9777 128.525 60.0346 130.287 61.7957 130.951C62.9216 131.376 64.2243 131.296 65.2606 131.908C66.0729 132.388 66.62 133.239 67.4482 133.691C69.7896 134.968 73.0458 132.518 75.234 134.043C75.8596 134.479 76.2577 135.172 76.8342 135.671C78.8552 137.422 82.1704 136.251 84.5034 137.556C86.007 138.398 86.7863 140.081 87.5883 141.606C89.5972 145.426 92.8476 149.168 97.1529 149.472C98.5052 149.568 99.8866 149.311 101.209 149.612C102.53 149.913 103.832 151.067 103.62 152.406C103.256 154.701 104.39 157.215 104.085 159.519C103.531 163.716 97.5771 165.561 97.0658 169.763C96.9538 170.683 97.129 171.633 96.9099 172.534C96.6414 173.638 95.8124 174.537 95.5178 175.634C94.9595 177.713 96.4492 179.783 98.0858 181.182C99.7224 182.581 101.675 183.787 102.569 185.745C103.515 187.815 103.05 190.228 103.358 192.483C104.029 197.406 108.281 201.055 112.657 203.408C113.99 204.125 115.421 204.819 116.284 206.062C117.41 207.685 117.298 209.825 117.674 211.765C118.595 216.515 122.594 220.429 122.707 225.266C122.788 228.704 120.877 231.823 119.735 235.067C118.665 238.175 118.278 241.477 118.6 244.749C118.922 248.02 119.946 251.184 121.602 254.023C122.456 255.465 123.477 256.825 124.081 258.388C125.159 261.178 124.81 264.349 125.804 267.17C127.118 270.899 130.729 273.98 130.383 277.919C132.023 281.323 135.643 282.996 139.283 284.009L145.807 285.825C147.057 286.173 148.362 286.524 149.634 286.272C150.906 286.02 152.12 284.964 152.087 283.668C148.888 282.946 145.586 282.179 142.948 280.229C140.311 278.28 138.504 274.808 139.505 271.684C139.969 270.236 140.956 268.564 140.018 267.367C139.48 266.682 138.498 266.503 137.892 265.878C136.946 264.903 137.271 263.265 137.951 262.089C138.63 260.913 139.613 259.862 139.887 258.532C140.025 257.788 139.933 257.019 139.622 256.329C139.311 255.639 138.797 255.06 138.147 254.671C139.357 254.214 140.457 253.508 141.377 252.599C142.226 251.629 142.618 250.134 141.95 249.032C143.934 249.283 146.276 249.406 147.578 247.889C148.618 246.677 148.547 244.865 148.136 243.322C147.725 241.779 147.03 240.281 147.009 238.684C151.585 238.901 156.171 238.745 160.722 238.219C160.064 236.002 158.569 234.13 156.553 232.997C158.614 232.648 160.492 230.181 161.143 228.194C161.794 226.208 161.628 224.044 161.226 221.993C161.071 221.465 161.05 220.906 161.164 220.368C161.396 219.628 162.123 219.177 162.795 218.791L173.026 212.915C173.637 212.609 174.19 212.201 174.662 211.707C175.734 210.448 175.575 208.548 175.026 206.988C174.477 205.428 173.598 203.961 173.387 202.321C172.755 197.417 178.005 193.898 179.777 189.281C180.472 187.469 180.614 185.499 180.749 183.563C180.893 181.484 180.904 179.069 179.307 177.729C177.777 176.444 175.385 176.731 173.784 175.536C172.316 174.44 171.809 172.313 170.205 171.428C168.748 170.625 166.922 171.136 165.302 170.758C162.449 170.092 160.654 166.805 157.741 166.5C156.097 166.329 154.237 167.132 152.89 166.175C151.703 165.331 151.655 163.636 151.429 162.197C151.033 159.962 149.961 157.901 148.358 156.293C146.755 154.685 144.698 153.606 142.464 153.203C140.769 152.931 138.924 153.035 137.482 152.103C136.023 151.16 135.353 149.394 134.206 148.088C132.358 145.984 129.447 145.236 126.72 144.595L115.629 141.987C113.66 141.524 111.122 141.279 110.065 143.004C109.753 143.66 109.531 144.357 109.407 145.073C109.011 146.37 108.215 147.508 107.131 148.323C106.048 149.138 104.735 149.589 103.379 149.611C102.45 148.025 100.944 146.86 99.1755 146.358C98.0508 146.045 96.8469 146.01 95.7742 145.549C95.19 145.263 94.6702 144.862 94.2465 144.369C93.8228 143.876 93.5042 143.302 93.3101 142.681C93.116 142.061 93.0506 141.407 93.1179 140.761C93.1851 140.114 93.3836 139.488 93.7012 138.921C94.3407 137.783 94.5876 136.465 94.4039 135.172C94.2203 133.879 93.6162 132.683 92.6849 131.768C90.7987 130.074 88.0702 129.665 85.541 129.834C84.8786 128.389 85.9861 126.758 87.1797 125.708C88.3732 124.658 89.8225 123.625 90.0825 122.056C90.4913 119.589 87.3431 117.715 84.9528 118.451C82.5625 119.186 81.0369 121.508 80.0284 123.797C79.4497 125.11 78.9578 126.493 78.0451 127.6C77.1323 128.707 75.6625 129.5 74.2722 129.145C72.304 128.642 71.5438 126.303 71.1082 124.319C70.5238 121.657 69.9359 118.957 70.0584 116.235C70.1808 113.512 71.0988 110.716 73.1066 108.873C76.3784 105.869 81.3976 106.163 85.8132 106.643C84.77 105.467 85.0278 103.486 86.144 102.38C86.7332 101.856 87.4412 101.485 88.2067 101.297C88.9721 101.108 89.7719 101.11 90.5366 101.301C91.8671 101.578 93.0658 102.294 93.9395 103.335C95.1943 104.865 95.5512 106.931 96.4996 108.667C97.448 110.404 99.5807 111.885 101.326 110.953C102.834 110.149 103.073 108.058 102.698 106.391C102.323 104.723 101.526 103.102 101.662 101.399C101.921 98.1479 105.291 96.1912 108.264 94.8525C111.238 93.5137 114.643 91.7133 115.114 88.4865C115.13 87.8548 115.249 87.2298 115.467 86.6365C115.796 86.1124 116.255 85.6814 116.798 85.3845C125.476 79.6493 134.299 73.8441 144.218 70.7103C144.734 70.5473 144.794 70.7285 145.32 70.6008C146.056 70.1754 145.568 68.9986 144.863 68.5245C144.157 68.0504 143.214 67.6869 143.035 66.8558C142.903 66.2449 143.263 65.6451 143.357 65.0272C143.586 63.5089 141.77 62.107 140.36 62.714C139.563 61.6589 141.139 60.4328 142.414 60.0818C146.242 59.0283 150.172 58.3864 154.136 58.167C154.593 58.0943 155.062 58.174 155.47 58.3939C156.135 58.8551 156.05 59.9129 155.578 60.5712C155.107 61.2295 154.373 61.6429 153.785 62.1999C153.142 62.8258 152.684 63.6161 152.46 64.4845C152.236 65.353 152.255 66.2664 152.514 67.1249C154.584 68.1776 156.834 69.2612 159.126 68.8904C161.418 68.5195 163.452 65.9442 162.375 63.8874C161.372 61.972 158.358 61.54 157.84 59.4409C157.233 56.9831 160.712 54.7972 159.929 52.39C159.585 51.3356 158.535 50.715 157.728 49.9538C156.776 49.0204 156.128 47.8208 155.87 46.5127C155.612 45.2045 155.755 43.8488 156.282 42.6236C154.968 42.8547 153.618 42.7674 152.346 42.3691C151.073 41.9709 149.914 41.2732 148.967 40.3347C147.217 38.569 145.822 35.7837 143.337 35.8627C141.057 35.9352 139.094 38.595 136.962 37.7836C136.438 37.5839 135.885 37.1776 135.376 37.4157C135.21 37.5238 135.07 37.6684 134.968 37.8384C134.865 38.0085 134.803 38.1997 134.785 38.3974C134.243 40.9875 135.175 43.9386 133.764 46.1767C132.227 48.6122 128.674 48.9499 126.812 51.1461C125.801 52.3383 125.409 53.9448 124.48 55.2017C123.551 56.4586 121.579 57.2577 120.464 56.1624C121.012 55.0357 121.161 53.7565 120.888 52.5337C120.615 51.311 119.935 50.2171 118.96 49.4308C117.925 48.7553 116.809 48.2125 115.638 47.815C114.33 47.2614 113.086 46.5679 111.927 45.7467C111.346 45.3966 110.875 44.8919 110.565 44.289C110.319 43.5342 110.352 42.7165 110.658 41.9839C111.223 40.3627 112.221 38.9268 113.543 37.8311C114.865 36.7355 116.461 36.0217 118.159 35.7669C119.643 35.5649 121.371 35.636 122.354 34.5048C122.874 33.9062 123.147 33.0012 123.901 32.7581C124.384 32.6611 124.885 32.7229 125.33 32.9341L130.872 34.8847C131.49 35.1638 132.17 35.2764 132.846 35.2112C133.181 35.1661 133.486 34.996 133.701 34.7351C133.915 34.4742 134.023 34.1418 134.003 33.8046C133.826 32.8843 132.41 32.4426 132.539 31.5144C132.611 31.2136 132.773 30.9417 133.003 30.7347C135.003 28.6061 137.448 26.9459 140.165 25.8731C142.882 24.8003 145.802 24.3414 148.717 24.5293C149.416 25.6781 148.31 27.0385 147.389 28.0191C146.469 28.9998 145.729 30.7521 146.842 31.5069C147.299 31.7397 147.806 31.854 148.318 31.8392C149.682 32.0239 151.008 32.4261 152.245 33.0305C154.16 33.8639 156.039 34.7757 157.88 35.766C157.717 34.5518 157.562 33.2727 158.022 32.1374C158.483 31.0021 159.791 30.1116 160.933 30.5537C162.034 30.9798 162.599 32.4377 163.772 32.5713C165.337 32.7494 165.954 30.4378 165.3 29.005C164.647 27.5722 163.353 26.3724 163.245 24.8013C163.172 23.7414 163.575 22.4268 162.729 21.7849C162.427 21.5923 162.085 21.4723 161.73 21.4347L140.589 17.5444C139.334 17.3134 137.52 17.4904 137.464 18.7657C137.433 19.4775 138.069 20.1817 137.787 20.8362C137.487 21.5347 136.499 21.4709 135.78 21.7179C134.664 22.1013 134.104 23.4264 134.211 24.6014C134.408 25.769 134.86 26.8787 135.535 27.8509C134.16 27.2758 132.078 27.1701 130.703 26.5951Z" fill="#3B3B3B"/>
<path d="M113.835 8.64987C112.502 8.20869 111.065 8.18815 109.72 8.591C108.375 8.99386 107.186 9.80064 106.315 10.9019C105.967 11.3603 105.675 11.9921 105.966 12.4884C106.384 13.1999 107.448 12.9188 108.233 12.6643C109.387 12.2522 110.643 12.2222 111.814 12.5789C112.551 12.8319 113.211 13.2791 113.951 13.5226C114.311 13.6733 114.706 13.7231 115.092 13.6666C115.479 13.6102 115.843 13.4496 116.145 13.202C116.653 12.6839 116.685 11.8784 116.686 11.1528C116.721 10.91 116.701 10.6624 116.629 10.4281C116.556 10.1937 116.432 9.97857 116.266 9.79829C115.969 9.62668 115.636 9.5282 115.294 9.51103C114.529 9.36926 113.836 8.9647 113.337 8.36709" fill="#3B3B3B"/>
<path d="M121.458 6.52748C121.159 6.51123 120.862 6.57201 120.594 6.70397C120.326 6.83594 120.096 7.03465 119.927 7.28099C119.758 7.52733 119.655 7.81303 119.629 8.11061C119.602 8.40818 119.652 8.70763 119.775 8.98015C120.691 9.23002 121.648 9.29243 122.589 9.16366C123.058 9.0908 123.495 8.88065 123.845 8.5597C124.196 8.23875 124.443 7.82137 124.556 7.36014C123.448 7.56173 122.305 7.34341 121.35 6.74776" fill="#3B3B3B"/>
<path d="M147.034 2.98309C144.54 3.51328 142.118 4.33616 139.817 5.43465C140.901 5.85155 141.823 6.60582 142.447 7.58633C143.07 8.56684 143.363 9.7217 143.28 10.8807C143.183 11.3257 143.194 11.7876 143.313 12.2272C143.578 12.8698 144.346 13.1109 145.021 13.2758C146.234 13.645 147.501 13.8067 148.768 13.7541C149.402 13.7209 150.017 13.5302 150.559 13.1993C151.1 12.8684 151.551 12.4077 151.869 11.8588C152.053 11.3379 152.268 10.8288 152.514 10.3342C154.133 7.8693 158.941 10.8498 160.679 8.46738C161.291 7.62815 161.235 6.36488 162.033 5.69987C162.446 5.41014 162.924 5.22758 163.425 5.16863C166.919 4.47434 170.449 3.9716 173.999 3.66268C175.681 3.51632 177.873 2.91244 177.887 1.22436C171.552 -0.0197433 164.984 0.863865 159.203 3.73781C157.12 4.78098 154.366 6.97531 152.36 5.59232C151.608 5.07451 151.646 3.68016 150.612 3.09789C149.555 2.50259 148.156 2.74471 147.034 2.98309Z" fill="#3B3B3B"/>
<path d="M167.75 6.8565L170.723 7.42787C170.176 7.40363 169.63 7.49639 169.121 7.69997C168.612 7.90356 168.153 8.21328 167.773 8.60847C167.394 9.00366 167.103 9.47524 166.92 9.99174C166.737 10.5082 166.667 11.0578 166.713 11.6037C169.498 12.534 172.534 11.6287 175.467 11.7524C178.4 11.876 181.813 13.9714 181.313 16.8643C181.161 17.739 180.656 18.6131 180.919 19.461C181.103 20.0554 181.627 20.4771 181.923 21.0244C182.539 22.165 182.047 23.6077 181.268 24.6446C180.49 25.6814 179.443 26.5087 178.76 27.6106C177.061 30.3511 178.026 33.8941 179.039 36.9558C179.331 38.1126 179.872 39.1921 180.623 40.1195C182.123 41.7142 184.567 41.8529 186.756 41.8848C188.349 41.9081 190.174 41.8294 191.182 40.595C192.497 38.9834 191.577 36.469 192.443 34.5775C193.23 32.8598 195.234 32.1228 197.049 31.6002C200.375 30.6426 203.765 29.8286 206.909 28.3822C210.814 26.5862 214.463 23.7874 218.755 23.5562C219.959 23.4913 221.193 23.6334 222.352 23.3036C223.512 22.9737 224.614 21.971 224.526 20.7684C224.451 19.7409 223.582 18.9864 222.903 18.2118C222.223 17.4373 221.69 16.2462 222.314 15.4267L233.563 13.3255C232.766 11.1525 232.145 8.29051 233.977 6.87603C234.638 6.36568 235.523 6.16171 236.086 5.54472C237.045 4.49315 236.563 2.68171 235.455 1.7874C234.348 0.893091 232.851 0.685484 231.432 0.567653C226.5 0.158013 221.539 0.428695 216.597 0.699586C206.936 1.22912 197.276 1.75866 187.615 2.28818C185.671 2.39478 183.425 2.23193 181.642 2.8954C180.132 3.45709 179.058 4.48814 177.331 4.85039C174.143 5.51915 170.635 5.06661 167.75 6.8565Z" fill="#3B3B3B"/>
<path d="M221.02 30.3608C220.717 30.3129 220.408 30.3831 220.155 30.5571C219.988 30.7411 219.888 30.9765 219.873 31.2245C219.681 32.3192 219.91 33.446 220.513 34.3793C220.821 34.8371 221.245 35.2043 221.742 35.4427C222.24 35.6811 222.792 35.782 223.341 35.735C224.68 35.5643 225.667 34.422 226.898 33.8646C228.795 33.0063 236.852 31.6683 231.279 28.6572C229.358 27.6195 228.117 28.5355 226.603 29.2189C224.881 30.1 222.951 30.4948 221.02 30.3608Z" fill="#3B3B3B"/>
<path d="M269.837 5.15684C269.186 5.42273 268.642 5.89664 268.289 6.50458C268.126 6.81328 268.088 7.17269 268.183 7.50846C268.278 7.84423 268.499 8.13066 268.799 8.3085C269.042 8.39663 269.3 8.43751 269.558 8.42893L272.204 8.50799C273.328 8.54157 274.733 8.78099 275.035 9.86431C275.259 10.6687 274.757 11.7024 275.363 12.2772C275.623 12.4785 275.935 12.6005 276.263 12.6283C277.135 12.8522 278.045 12.8816 278.929 12.7144C280.855 12.1979 279.843 11.0228 280.449 9.97646C281.377 8.37546 281.216 9.34462 282.851 8.42705C284.059 7.74942 285.619 6.52018 284.611 4.79309C282.859 1.7897 272.423 3.8666 269.837 5.15684Z" fill="#3B3B3B"/>
<path d="M322.067 3.64748L320.53 3.85253C317.065 4.31492 313.581 4.78156 310.243 5.82209C311.688 6.39325 313.204 6.76515 314.749 6.92756C315.599 6.96924 316.444 7.08933 317.272 7.28628C318.746 7.72509 320.231 8.85822 321.655 8.27777C322.538 7.91786 322.827 6.99849 323.558 6.51125C324.063 6.1748 325.979 5.63025 326.193 5.29067C327.924 2.54537 323.398 3.4699 322.067 3.64748Z" fill="#3B3B3B"/>
<path d="M328.814 10.63C326.762 11.7777 324.857 13.1722 323.144 14.7826C322.422 15.4613 321.684 16.3054 321.75 17.2941C321.837 18.6081 323.236 19.3703 324.449 19.8838L329.361 21.9635C329.957 21.1236 329.412 19.9642 328.796 19.1388C328.18 18.3135 327.448 17.3585 327.72 16.3653C328.031 15.2318 329.413 14.8456 330.572 14.6503C332.46 14.3322 337.553 14.3577 336.941 11.3147C336.22 7.7292 330.709 9.57054 328.814 10.63Z" fill="#3B3B3B"/>
<path d="M327.826 213.539C327.359 214.893 327.314 216.488 328.123 217.67C329.031 218.996 330.848 219.491 332.419 219.154C333.984 218.738 335.379 217.841 336.408 216.59C337.348 215.542 338.122 214.355 338.702 213.072C339.511 211.072 340.082 208.984 340.402 206.85L341.927 198.843C342.268 197.053 342.255 191.566 338.966 193.354C338.067 193.842 335.986 197.698 335.045 198.792C333.347 200.762 333.123 202.674 332.229 205.062C331.11 208.052 328.861 210.544 327.826 213.539Z" fill="#3B3B3B"/>
<path d="M501.556 254.517C500.479 254.097 499.435 253.599 498.43 253.029C497.423 255.798 496.887 258.717 496.845 261.664L504.21 257.497C505.318 256.87 506.574 255.999 506.55 254.726C506.56 254.569 506.528 254.412 506.456 254.272C506.384 254.131 506.276 254.013 506.143 253.929C505.979 253.863 505.801 253.842 505.627 253.868C504.535 253.959 503.539 254.497 502.509 254.87C501.478 255.244 500.274 255.442 499.329 254.887" fill="#3B3B3B"/>
<path d="M540.407 256.99C539.599 257.21 538.809 257.494 538.046 257.838C536.355 258.698 535.206 260.331 533.685 261.464C532.229 262.548 530.477 263.143 528.757 263.721C528.251 264.169 528.484 265.069 529.033 265.462C529.624 265.798 530.301 265.95 530.978 265.899C532.765 265.939 534.648 265.956 536.213 265.093C537.095 264.521 537.92 263.866 538.677 263.137C540.507 261.61 542.705 260.603 544.88 259.629C545.672 259.33 546.404 258.893 547.042 258.337C548.409 256.99 548.505 254.912 546.534 254.454C544.941 254.084 541.924 256.5 540.407 256.99Z" fill="#3B3B3B"/>
<path d="M557.574 245.778C557.662 244.851 557.539 243.917 557.213 243.045C556.888 242.172 556.368 241.386 555.694 240.744C555.674 242.598 555.617 244.573 554.575 246.106C553.832 247.199 552.667 247.937 551.853 248.977C551.039 250.018 550.677 251.667 551.632 252.58C552.243 253.044 552.986 253.3 553.753 253.31C555.653 253.534 557.853 253.659 559.186 252.286C559.914 251.536 560.268 250.426 561.155 249.875C561.486 249.736 561.781 249.525 562.019 249.257C562.385 248.675 561.803 247.907 561.148 247.697C560.493 247.487 559.77 247.586 559.112 247.386C558.453 247.187 557.849 246.447 558.187 245.847" fill="#3B3B3B"/>
<path d="M527.064 177.801C526.067 178.043 525.034 178.104 524.015 177.98C522.323 177.669 521.006 176.394 519.64 175.348C516.393 172.876 512.445 171.497 508.365 171.409C504.653 171.339 500.906 172.345 497.26 171.643C497.498 172.968 498.632 173.961 499.842 174.552C501.051 175.142 502.386 175.44 503.602 176.018C505.548 176.954 507.092 178.56 507.95 180.542C508.342 181.456 508.588 182.45 509.181 183.248C510.393 184.879 512.69 185.237 514.717 185.103C517.361 184.93 520.121 184.169 522.58 185.154C524.462 185.908 525.808 187.554 527.379 188.834C528.95 190.115 531.162 191.065 532.966 190.141C531.092 189.535 529.462 188.345 528.312 186.746C527.162 185.148 526.554 183.223 526.575 181.254C528.344 181.417 533.439 181.354 533.165 178.348C532.932 175.801 528.583 177.526 527.064 177.801Z" fill="#3B3B3B"/>
<path d="M503.922 198.527C504.236 196.804 505.954 195.283 505.419 193.615C505.049 192.462 503.712 191.893 502.501 191.865C501.291 191.836 500.101 192.197 498.891 192.231C498.103 192.189 497.313 192.2 496.527 192.264C494.124 192.659 492.642 195.178 490.378 196.074C489.001 196.618 487.454 196.514 486.022 196.891C482.771 197.745 480.714 200.817 478.442 203.294C474.77 207.277 469.987 210.067 464.711 211.301C462.863 211.729 460.876 212.003 459.407 213.203C457.461 214.793 456.983 217.518 456.55 219.993C455.354 226.828 453.526 233.537 451.09 240.034L458.809 241.019C460.277 241.207 461.797 241.39 463.212 240.955C464.239 240.568 465.212 240.049 466.107 239.413C469.545 237.279 473.393 235.89 477.401 235.336C479.422 235.059 481.542 235.008 483.439 235.759C485.336 236.511 486.963 238.215 487.122 240.249C487.942 239.993 488.816 239.966 489.651 240.169C490.486 240.372 491.25 240.798 491.861 241.401C493.07 242.633 493.862 244.213 494.124 245.919C494.328 246.975 494.531 248.24 495.511 248.683C496.31 249.044 497.227 248.655 498.102 248.585C501.07 248.348 503.532 251.808 506.449 251.212C509.578 250.573 510.346 245.888 513.398 244.949C515.15 244.41 517.609 245.066 518.448 243.435C519.188 241.998 517.712 240.34 517.864 238.731C518.052 236.749 520.389 235.908 522.191 235.063C528.403 232.148 531.35 223.788 528.34 217.622C526.557 213.968 523.048 211.092 522.399 207.079C521.901 203.991 523.118 200.39 521.149 197.959C520.148 196.723 518.452 196.04 517.856 194.565C517.481 193.636 517.632 192.583 517.43 191.602C517.228 190.621 516.372 189.595 515.403 189.849C512.591 190.587 511.694 199.274 510.188 201.385C507.9 204.593 503.201 202.48 503.922 198.527Z" fill="#3B3B3B"/>
<path d="M451.944 181.084C450.983 180.814 449.933 180.549 449.013 180.934C448.092 181.319 447.554 182.671 448.293 183.342C454.075 183.117 459.892 182.893 465.624 183.678C472.228 184.583 478.765 186.824 485.398 186.164C481.609 185.046 477.757 184.153 473.863 183.488L467.369 182.247C465.627 181.882 463.866 181.61 462.095 181.432C458.391 181.126 455.586 182.105 451.944 181.084Z" fill="#3B3B3B"/>
<path d="M457.732 160.948C457.252 160.908 456.657 160.874 456.409 161.286C456.172 161.681 456.443 162.202 456.316 162.644C456.141 163.248 455.35 163.402 454.727 163.32C454.104 163.238 453.43 163.041 452.878 163.341C452.598 163.532 452.387 163.809 452.278 164.13C452.169 164.451 452.166 164.799 452.272 165.122C452.497 165.762 452.863 166.344 453.341 166.826C454.157 167.855 455.088 168.788 456.114 169.608C458.101 171.075 460.793 171.781 462.045 173.911C462.221 174.323 462.493 174.688 462.837 174.977C463.438 175.357 464.221 175.068 464.868 174.772L467.136 173.736C467.544 173.589 467.909 173.341 468.196 173.015C468.714 172.312 468.395 171.313 467.961 170.556C467.526 169.798 466.969 169.015 467.063 168.147C467.229 166.599 469.219 166.007 470.038 164.682C470.862 163.347 470.325 161.627 470.42 160.061C470.532 158.229 471.683 155.846 469.831 154.477C468.257 153.314 466.752 154.389 465.622 155.673C463.239 158.381 462.113 161.314 457.732 160.948Z" fill="#3B3B3B"/>
<path d="M471.495 133.576C472.27 135.058 473.883 135.943 474.728 137.386C475.643 138.951 475.538 140.972 476.531 142.489C477.549 144.045 479.599 144.871 480.17 146.641C480.794 148.573 479.379 150.921 480.507 152.609C480.717 152.885 480.982 153.114 481.286 153.282C481.589 153.451 481.924 153.554 482.27 153.585C482.615 153.617 482.964 153.577 483.293 153.467C483.622 153.357 483.925 153.18 484.182 152.947C484.657 152.429 484.912 151.746 484.891 151.044C484.87 150.341 484.576 149.674 484.07 149.186C483.403 148.577 482.444 148.314 481.886 147.603C481.596 147.192 481.403 146.721 481.321 146.225C481.017 144.795 481.066 143.312 481.463 141.904C481.612 141.547 481.65 141.153 481.571 140.774C481.32 140.044 480.332 139.992 479.639 139.654C478.064 138.885 478.103 136.663 478.378 134.932C478.195 136.085 474.091 134.125 473.661 133.472C472.807 132.176 473.272 129.675 473.103 128.242C471.26 129.131 470.549 131.764 471.495 133.576Z" fill="#3B3B3B"/>
<path d="M430.15 156.383C429.393 155.535 428.252 154.648 427.236 155.159C426.462 155.549 426.248 156.621 426.552 157.434C426.922 158.223 427.492 158.902 428.205 159.404C430.321 161.149 432.6 162.725 434.446 164.753C437.75 168.384 439.5 173.284 443.094 176.629C443.816 177.404 444.772 177.922 445.817 178.102C446.863 178.2 448.039 177.53 448.159 176.485C448.259 175.625 447.659 174.855 447.073 174.217C445.677 172.699 444.149 171.301 442.831 169.715C442.222 169.105 441.84 168.307 441.747 167.45C441.74 166.596 442.519 165.702 443.346 165.914C442.34 165.657 441.593 163.98 440.116 163.664C438.882 163.401 438.583 164.165 437.114 163.535C434.311 162.333 432.113 158.58 430.15 156.383Z" fill="#3B3B3B"/>
<path d="M495.996 73.8137C495.192 73.5748 494.402 73.2925 493.628 72.968C491.548 72.3435 488.795 73.8728 489.072 76.0274C489.256 77.4589 490.589 78.4241 491.324 79.6658C492.416 81.5073 492.125 83.8429 491.551 85.9051C491.411 86.5437 491.143 87.1474 490.764 87.6804C490.235 88.2431 489.602 88.6985 488.9 89.0216C486.09 90.5972 483.612 92.7023 481.603 95.2206C481.384 95.4531 481.232 95.74 481.162 96.0512C481.063 96.7787 481.794 97.3086 482.208 97.9153C483.126 99.2631 482.462 101.077 482.553 102.705C482.539 102.935 482.584 103.165 482.684 103.373C482.784 103.581 482.935 103.76 483.124 103.893C483.677 104.174 484.333 103.697 484.633 103.153C485.629 101.35 484.879 98.4542 486.746 97.5845C487.1 97.42 487.528 97.3507 487.764 97.0403C488.138 96.548 487.777 95.819 487.966 95.2305C488.251 94.3469 489.459 94.3073 490.387 94.3465C491.984 94.4133 493.581 94.2007 495.106 93.7182C495.704 93.576 496.247 93.2615 496.668 92.8136C497.226 92.1168 497.177 91.1261 497.065 90.2402C496.506 85.8237 495.107 81.5549 492.944 77.6643C494.584 77.8739 496.369 78.0554 497.785 77.2004C498.578 76.7216 499.528 75.2898 499.135 74.3153C498.513 72.7742 497.39 74.0713 495.996 73.8137Z" fill="#3B3B3B"/>
<path d="M285.665 98.1048C285.861 99.1579 286.054 100.267 285.709 101.281C285.364 102.295 284.278 103.142 283.253 102.831C282.458 102.59 281.998 101.79 281.433 101.18C278.292 97.7888 271.203 99.7524 269.263 95.5564C268.471 93.8439 269.009 91.7922 268.469 89.9845C268.128 88.9397 267.45 88.0377 266.541 87.4201C265.631 86.8025 264.543 86.5044 263.446 86.5725C262.446 86.717 261.472 87.0077 260.556 87.4353C254.42 89.8928 247.978 91.504 241.407 92.2246C240.159 92.3007 238.923 92.5255 237.728 92.8941C235.03 93.8722 233.187 96.3734 231.875 98.9258C230.563 101.478 229.594 104.241 227.835 106.509C225.987 108.892 223.397 110.561 220.981 112.366C220.05 112.966 219.275 113.778 218.719 114.736C218.195 115.812 218.225 117.062 218.266 118.258L218.759 132.778C218.823 134.645 218.903 136.58 219.739 138.251C220.782 140.338 222.844 141.705 224.275 143.549C225.735 145.443 226.495 147.784 226.427 150.175C226.397 151.136 226.301 152.273 227.05 152.877C227.505 153.172 228.038 153.326 228.581 153.317L248.222 154.925C251.677 155.208 255.506 155.673 257.762 158.305C258.827 159.547 259.682 161.334 261.312 161.467C262.012 161.524 262.692 161.237 263.392 161.182C265.157 161.042 266.708 162.381 267.686 163.857C269.167 166.106 269.839 168.792 269.593 171.473C269.432 173.156 268.91 174.793 268.798 176.48C268.37 182.899 273.811 188.476 273.917 194.909C273.979 198.693 272.183 202.228 270.432 205.583C273.258 209.865 270.944 215.566 272.069 220.572C273.136 225.321 277.096 229.039 278.083 233.805C278.534 235.987 278.56 238.672 280.485 239.796C281.329 240.208 282.265 240.395 283.203 240.341C288.858 240.408 294.45 239.135 299.519 236.626C301.898 235.445 304.364 233.683 304.78 231.059C305.115 228.944 304.042 226.577 305.134 224.735C306.42 222.563 309.717 222.735 311.61 221.065C314.682 218.356 312.287 213.19 313.531 209.288C314.65 205.78 318.501 203.917 320.41 200.769C321.161 199.415 321.7 197.954 322.008 196.437C322.882 192.811 323.427 189.113 323.634 185.388C323.685 183.126 323.852 180.867 324.134 178.621C326.192 165.835 338.832 157.274 342.936 144.991C343.328 143.818 343.512 142.255 342.469 141.591C341.85 141.296 341.148 141.223 340.481 141.383L331.427 142.525C330.302 142.667 329.11 142.799 328.078 142.332C327.045 141.865 326.305 140.558 326.852 139.566C328.39 136.781 325.227 133.261 323.822 130.406C320.037 122.719 315.53 115.41 310.361 108.577C310.031 108.225 309.823 107.775 309.771 107.296L312.341 107.381C311.473 104.269 310.042 100.862 307.018 99.7239C305.314 99.0823 303.427 99.3041 301.609 99.4035C296.402 99.6879 290.819 98.9017 285.665 98.1048Z" fill="#3B3B3B"/>
<path d="M301.613 27.9626C302.976 29.4097 304.503 30.9439 306.474 31.1961C309.957 31.6417 312.46 28.0406 314.055 24.9126C314.114 25.7101 314.481 26.453 315.08 26.9835C315.678 27.5139 316.46 27.79 317.258 27.753C318.118 27.6084 318.938 27.2877 319.668 26.811C326.568 23.0404 334.296 21.0426 342.159 20.997C342.083 20.4014 342.231 19.799 342.573 19.3059C342.916 18.8128 343.429 18.464 344.013 18.3269C345.612 18.01 347.052 19.3921 347.823 20.8278C348.594 22.2635 349.075 23.9276 350.3 25.0023C351.525 26.0769 353.898 26.0301 354.381 24.4739C354.846 22.9799 353.29 21.7058 351.997 20.825C350.703 19.9441 349.34 18.3138 350.211 17.014C356.818 15.5516 363.465 14.0837 370.225 13.7931C371.376 13.8331 372.522 13.6356 373.594 13.2127C374.624 12.7068 375.444 11.5585 375.167 10.4441C373.691 10.7909 372.146 10.6905 370.729 10.1556C369.311 9.62083 368.084 8.67586 367.205 7.44122C376.585 6.66719 386.562 6.00743 394.874 10.421C395.872 12.5625 390.788 14.3442 392.148 16.2756C392.582 16.8916 393.451 16.9639 394.205 16.9779C399.981 17.0851 405.791 17.1903 411.503 16.3182C413.59 15.9995 415.698 15.5495 417.794 15.808C421.284 16.2385 424.269 18.5673 427.703 19.3266C429.1 19.6356 430.668 19.6461 431.846 18.8332C433.024 18.0203 433.53 16.1694 432.565 15.1126C435.798 11.9439 441.164 12.7293 445.429 14.2463C449.694 15.7633 453.735 18.2097 458.249 18.5479C461.486 18.7904 464.769 17.9196 467.967 18.4731C469.977 18.8209 471.848 19.7151 473.813 20.2645C477.528 21.3036 481.459 21.0842 485.317 21.1342C495.16 21.2669 504.896 23.2014 514.042 26.8422C515.232 27.2296 516.322 27.8736 517.236 28.7289C518.087 29.6402 518.521 31.0564 517.949 32.1644L508.497 30.7834C509.388 32.5364 511.692 32.8352 513.562 33.4399C515.433 34.0446 517.373 36.1107 516.249 37.7237C514.222 37.0782 512.385 39.1049 511.361 40.9696C510.337 42.8343 509.089 45.0675 506.965 45.1811C505.062 45.2828 502.762 43.6631 501.522 45.1093C503.235 47.2703 504.702 49.6155 505.895 52.1014C507.12 54.6534 507.993 57.8691 506.337 60.1653C506.077 60.5752 505.682 60.8815 505.22 61.0318C503.867 61.3741 502.989 59.7199 502.019 58.7173C500.797 57.4538 498.949 57.0959 497.294 56.5034C495.64 55.9108 493.896 54.7452 493.767 52.9922C493.686 51.9016 494.262 50.8878 494.686 49.8798C495.399 48.1807 495.711 46.3403 495.597 44.5012C495.505 43.0217 495.09 41.4827 494.027 40.449C492.965 39.4152 491.13 39.0873 489.989 40.0341C489.457 40.4759 489.031 41.1825 488.339 41.2089C487.118 41.2556 486.18 39.1264 485.198 39.8533C485.313 40.6277 485.153 41.418 484.744 42.0861C481.812 44.6361 477.308 43.5573 473.528 44.4581C471.73 44.9725 470.01 45.724 468.411 46.6929C467.812 46.9487 467.303 47.3759 466.948 47.9207C466.476 48.8376 466.996 50.0119 467.828 50.6216C468.71 51.1625 469.701 51.5008 470.73 51.612C475.338 52.4848 480.013 53.8359 483.652 56.7958C487.29 59.7557 489.676 64.6486 488.524 69.1953L479.437 60.5118C479.782 64.1578 479.978 67.8138 480.024 71.4799C480.083 72.1958 479.985 72.9158 479.736 73.5896C479.088 75.0206 477.333 75.5021 475.794 75.818C475.366 75.8993 474.96 76.0702 474.603 76.3196C474.246 76.5689 473.945 76.891 473.721 77.2646C473.497 77.6383 473.355 78.0552 473.304 78.4877C473.252 78.9203 473.293 79.3589 473.423 79.7746C473.97 81.5565 475.333 82.9458 476.581 84.3301C477.829 85.7144 479.057 87.2877 479.221 89.1444C479.384 91.0011 477.983 93.0939 476.124 92.9648C474.714 92.8669 473.669 91.6051 473.067 90.3264C472.466 89.0478 472.108 87.6234 471.205 86.5369C468.471 83.2484 462.329 84.6573 459.88 81.1516C459.256 81.8598 458.823 82.7159 458.622 83.6385C458.422 84.5612 458.46 85.5197 458.734 86.4232C459.874 85.7099 461.434 86.3727 462.29 87.4092C463.146 88.4458 463.55 89.7747 464.222 90.9389C465.13 92.5098 466.574 93.9025 466.7 95.7122C466.667 96.3965 466.678 97.0823 466.735 97.7651C466.96 98.8617 467.887 99.649 468.529 100.566C470.024 102.698 469.951 105.628 468.987 108.048C468.023 110.467 466.292 112.489 464.577 114.45C461.581 117.874 458.525 121.277 454.974 124.121C453.96 124.932 452.879 125.73 452.248 126.864C451.617 127.999 451.584 129.591 452.554 130.454C451.86 130.488 450.616 130.83 449.922 130.864C449.678 128.081 449.625 125.284 449.763 122.493C447.025 121.178 444.076 124.699 444.43 127.716C444.783 130.733 446.965 133.155 448.519 135.765C449.655 137.674 450.499 139.9 450.12 142.088C449.741 144.277 447.787 146.296 445.574 146.103C442.054 145.796 440.582 140.743 437.096 140.165C436.788 140.092 436.466 140.124 436.178 140.256C435.661 140.54 435.571 141.232 435.542 141.821C435.399 144.715 435.276 147.723 436.405 150.391C438.058 154.293 442.326 157.571 441.431 161.714C436.607 159.471 434.099 154.062 432.961 148.866C431.822 143.67 431.632 138.215 429.591 133.303C428.041 135.289 424.783 133.647 423.367 131.563C422.024 129.587 421.198 127.301 419.895 125.299C418.592 123.296 416.597 121.503 414.211 121.393C411.709 121.278 409.539 122.995 407.631 124.617C406.061 125.951 404.45 127.337 403.533 129.181C402.199 131.865 402.548 135.028 402.483 138.024C402.414 141.264 400.413 143.501 399.123 146.08C398.156 148.014 397.31 155.955 394.874 153.817C390.97 150.391 388.915 145.33 388.366 143.73C385.723 136.016 383.522 128.159 381.774 120.195C381.365 122.012 381.304 128.787 379.78 127.716C379.438 127.428 377.624 122.639 377.43 122.237C374.586 117.416 369.319 114.524 363.997 112.791C358.675 111.057 353.076 110.248 347.813 108.343C344.864 107.275 342.047 105.871 339.417 104.161C338.747 105.146 338.356 106.293 338.285 107.482C338.214 108.671 338.466 109.858 339.014 110.915C340.181 112.982 342.823 114.178 345.085 113.456C346.253 113.082 347.24 112.271 348.399 111.87C349.559 111.47 351.115 111.666 351.622 112.784C352.108 113.853 351.374 115.146 351.738 116.263C352.292 117.963 354.857 118.094 355.754 119.642C356.421 120.793 355.872 122.322 354.919 123.251C353.967 124.18 352.695 124.689 351.532 125.336C347.759 127.434 345.076 131.016 341.778 133.803C338.48 136.59 333.827 138.625 329.897 136.837C330.834 132.093 325.183 128.611 324.143 123.888C323.801 122.334 323.979 120.683 323.49 119.168C322.783 116.975 320.837 115.467 319.241 113.805C317.305 111.768 315.797 109.363 314.805 106.733C313.814 104.103 313.359 101.301 313.468 98.492C313.554 96.5403 313.913 94.5568 313.468 92.6545C313.023 90.7522 311.448 88.9109 309.497 88.9972C305.039 89.194 299.423 89.5256 297.085 85.7256C296.25 84.3694 295.887 82.3831 297.094 81.344C297.945 80.6111 299.202 80.6801 300.32 80.7901L310.363 81.7781C312.712 82.0092 315.252 82.1999 317.268 80.9718C319.283 79.7438 320.157 76.4839 318.29 75.0391C316.926 73.9834 314.483 74.0406 314.087 72.3622C313.756 70.9642 315.304 69.3781 314.468 68.2099C313.869 67.3722 312.522 67.6046 311.705 68.2325C310.889 68.8605 310.297 69.7789 309.383 70.2543C307.78 71.0884 305.865 70.2946 304.141 69.7551C302.417 69.2156 300.105 69.1698 299.269 70.7712C298.334 72.5623 300.099 74.9092 299.17 76.7039C297.943 79.0767 293.787 77.7259 292.063 79.7669C290.086 82.109 293.409 85.6013 292.742 88.5932C291.891 89.015 290.944 89.2086 289.996 89.1553C289.047 89.102 288.128 88.8036 287.329 88.2891C286.543 87.7546 285.917 87.0172 285.517 86.1552C285.117 85.2931 284.958 84.3388 285.057 83.3936C285.222 82.0477 285.924 80.6738 285.454 79.4019C285.073 78.3735 284.041 77.7613 283.081 77.231L273.321 71.8376C272.415 73.5186 273.561 75.6025 274.993 76.8651C276.426 78.1277 278.221 79.0787 279.162 80.7403C279.757 81.8915 279.891 83.2266 279.535 84.473C279.179 85.7193 278.361 86.7828 277.248 87.4463C277.108 87.5426 276.95 87.6076 276.783 87.6367C276.616 87.6658 276.444 87.6585 276.28 87.6151C276.125 87.5236 275.989 87.4018 275.881 87.2568C275.773 87.1119 275.696 86.9468 275.653 86.7713C273.931 82.3644 271.345 78.0193 267.212 75.7172C263.078 73.415 257.138 73.8884 254.428 77.7664C253.784 78.6875 253.352 79.7375 252.791 80.7113C249.811 85.8853 243.423 88.3353 237.454 88.1753C236.87 88.2076 236.289 88.0711 235.781 87.7821C234.816 87.1159 234.86 85.7023 235.007 84.5393L235.634 79.6039C235.76 78.6128 235.942 77.5174 236.726 76.8987C237.832 76.0267 239.427 76.577 240.835 76.5567C241.902 76.5068 242.928 76.13 243.773 75.4775C244.619 74.8251 245.243 73.9284 245.562 72.9091C245.846 71.8797 245.844 70.7923 245.556 69.7639C245.269 68.7355 244.705 67.8051 243.928 67.0731C243.283 66.4669 242.416 65.7055 242.757 64.8883C242.893 64.6623 243.077 64.4688 243.296 64.3214C243.515 64.1741 243.763 64.0765 244.024 64.0354C246.553 63.3009 249.226 63.1084 251.713 62.2417C254.2 61.3751 256.612 59.6019 257.201 57.0348C257.381 56.2481 257.464 55.2951 258.17 54.9051C258.525 54.7554 258.906 54.6776 259.291 54.6762C260.639 54.4844 261.867 53.7947 262.732 52.743C263.597 51.6912 264.038 50.3537 263.966 48.9935C265.158 48.1607 266.828 48.7733 267.981 49.6592C269.134 50.5451 270.153 51.7155 271.556 52.0973C274.17 52.809 276.697 50.4938 279.407 50.4831C280.547 50.4786 281.727 50.8815 282.799 50.4952C283.886 50.1035 284.535 49.0216 285.369 48.2223C286.203 47.423 287.667 46.9355 288.437 47.7965L287.781 42.9381C289.102 43.2718 290.479 43.319 291.82 43.0766C293.16 42.8343 294.434 42.3078 295.554 41.5328L287.077 38.6685C286.782 38.5948 286.509 38.4492 286.284 38.2447C285.668 37.581 286.28 36.5469 286.781 35.7925C287.98 33.9878 288.181 31.015 286.21 30.1165C284.864 29.5033 283.319 30.2394 282.028 30.9596L275.841 34.4095C275.644 35.5856 277.082 36.2521 277.973 37.0443C278.513 37.5236 278.894 38.1548 279.068 38.8549C279.242 39.5551 279.2 40.2915 278.948 40.9673C278.696 41.6432 278.245 42.227 277.655 42.642C277.065 43.057 276.363 43.2839 275.641 43.2927C276.049 43.8224 276.332 44.437 276.47 45.0909C276.607 45.7448 276.596 46.4213 276.437 47.0704L272.274 47.3698C271.807 47.4638 271.322 47.369 270.924 47.1063C270.479 46.7108 270.539 46.0179 270.436 45.4314C270.187 44.0159 268.801 43.0238 267.386 42.7694C265.972 42.515 264.525 42.8411 263.124 43.1631C262.529 43.3771 261.876 43.362 261.292 43.1208C260.957 42.9031 260.702 42.5818 260.567 42.2059C259.953 40.7169 260.527 38.9667 261.513 37.6934C262.499 36.4201 263.85 35.4892 265.062 34.4291C267.962 31.8848 270.093 28.5803 271.213 24.8888C273.505 23.9287 275.877 22.6241 278.169 21.6639C281.702 19.875 285.664 19.1074 289.61 19.4472L297.371 19.5954C299.669 19.6393 302.028 19.6955 304.153 20.5715C306.278 21.4475 308.145 23.3422 308.291 25.6357C308.336 25.8953 308.313 26.162 308.226 26.4106C308.139 26.6591 307.99 26.8816 307.794 27.0569C307.494 27.2206 307.154 27.2972 306.813 27.2781C304.67 27.3534 303.756 27.8873 301.613 27.9626Z" fill="#3B3B3B"/>
<path d="M239.754 52.2857C240.057 51.9987 240.275 51.6336 240.384 51.2307C240.494 50.8278 240.49 50.4025 240.373 50.0016C239.635 49.7169 238.832 49.6438 238.055 49.7906C237.278 49.9373 236.557 50.2981 235.974 50.8322C235.514 51.2973 235.118 51.8211 234.796 52.3901C233.776 54.0539 232.874 56.0413 233.465 57.9012C233.513 58.104 233.601 58.2952 233.724 58.4635C233.847 58.6317 234.003 58.7738 234.182 58.8812C234.446 58.9875 234.732 59.0322 235.017 59.012C236.14 59.0105 237.263 58.9415 238.378 58.8051C239.063 58.7214 239.858 58.528 240.123 57.8909C240.47 57.0533 239.628 56.1055 239.874 55.2324C240.035 54.842 240.28 54.4915 240.591 54.2054C240.745 54.0613 240.864 53.8833 240.937 53.6854C241.011 53.4876 241.037 53.2753 241.014 53.0655C240.915 52.6559 240.288 52.4235 240.062 52.7794" fill="#3B3B3B"/>
<path d="M245.579 44.7329C244.581 44.5037 243.552 44.4391 242.534 44.5416C242.308 44.5349 242.085 44.5857 241.885 44.6891C241.691 44.8322 241.55 45.036 241.485 45.2682C241.27 45.9589 241.322 46.7053 241.633 47.3587C241.943 48.0122 242.488 48.5247 243.16 48.7942C243.526 48.8783 243.876 49.0192 244.199 49.2116C245.06 49.88 244.511 51.2461 244.674 52.3241C244.857 53.5346 246.029 54.5507 245.814 55.7559C245.645 56.7055 244.631 57.4574 244.794 58.408C244.965 59.4036 246.228 59.7028 247.235 59.7825C247.819 59.8847 248.42 59.8159 248.965 59.5843C249.512 59.2105 249.901 58.6475 250.056 58.0038C250.469 56.7766 250.642 55.4818 250.567 54.1894C250.562 53.6015 250.415 53.0237 250.137 52.5057C249.833 52.0954 249.497 51.7105 249.132 51.3548C247.202 49.1104 249.234 45.7627 245.579 44.7329Z" fill="#3B3B3B"/>
<path d="M388.32 134.66C392.502 134.66 395.892 138.05 395.892 142.232C395.892 146.415 392.502 149.805 388.32 149.805C384.137 149.805 380.747 146.415 380.747 142.232C380.747 138.05 384.137 134.66 388.32 134.66Z" fill="#A2E053"/>
</svg>
