<svg width="56" height="56" viewBox="0 0 56 56" fill="none" xmlns="http://www.w3.org/2000/svg">
<path opacity="0.35" d="M44.6667 48.6667H12C8.13367 48.6667 5 45.1693 5 40.8542V14.8125C5 10.4974 8.13367 7 12 7H44.6667C48.533 7 51.6667 10.4974 51.6667 14.8125V40.8542C51.6667 45.1693 48.533 48.6667 44.6667 48.6667Z" fill="#F7E64F"/>
<path d="M21.6336 34.1368C20.8948 34.1368 20.3011 33.5345 20.3098 32.7957L20.4029 25.2123H20.3293L18.3901 33.1337C18.2471 33.723 17.7184 34.1368 17.1118 34.1368C16.5008 34.1368 15.9721 33.7165 15.8313 33.1228L13.9593 25.2123H13.9029L13.9831 32.7978C13.9896 33.5345 13.3938 34.1368 12.6571 34.1368C11.9248 34.1368 11.3333 33.5432 11.3333 32.813V23.219C11.3333 22.0685 12.2649 21.1368 13.4154 21.1368C14.3709 21.1368 15.2029 21.7868 15.4348 22.7142L17.1356 29.511H17.2093L18.8603 22.7272C19.0856 21.7933 19.9219 21.1368 20.8818 21.1368H21.0941C22.2446 21.1368 23.1763 22.0685 23.1763 23.219V32.813C23.1763 33.5432 22.5826 34.1368 21.8524 34.1368H21.6336Z" fill="#F7E64F"/>
<path d="M29.9417 34.1368C28.8457 34.1368 27.8927 33.3867 27.6353 32.3219L25.3861 23.0077C25.1559 22.0547 25.8775 21.1368 26.8591 21.1368H26.9969C27.7276 21.1368 28.3543 21.6582 28.4869 22.3759L30.0197 30.6473H30.0574L31.5747 22.3785C31.706 21.6595 32.334 21.1368 33.0646 21.1368C34.0475 21.1368 34.7704 22.0586 34.5364 23.0142L32.2468 32.331C31.9842 33.3919 31.0338 34.1368 29.9417 34.1368Z" fill="#F7E64F"/>
<path d="M44.7705 25.2127C44.7705 28.761 41.901 29.3995 40.895 29.3995H39.6296V32.6956C39.6296 33.4912 38.9839 34.1368 38.1883 34.1368C37.3927 34.1368 36.7471 33.4912 36.7471 32.6956V22.8519C36.7471 21.905 37.5153 21.1368 38.4621 21.1368H40.7869C41.7583 21.1368 44.7705 21.5058 44.7705 25.2127ZM42.0162 25.2674C42.0162 23.7974 40.9685 23.6143 40.5649 23.6143H39.6296V27.0128H40.5649C40.9685 27.0128 42.0162 26.7389 42.0162 25.2674Z" fill="#F7E64F"/>
</svg>
