<svg width="50" height="50" viewBox="0 0 50 50" fill="none" xmlns="http://www.w3.org/2000/svg">
<path opacity="0.35" d="M37.5 6.25H12.5C9.04792 6.25 6.25 9.04792 6.25 12.5V39.5833C6.25 41.8854 8.11458 43.75 10.4167 43.75H39.5833C41.8854 43.75 43.75 41.8854 43.75 39.5833V12.5C43.75 9.04792 40.9521 6.25 37.5 6.25Z" fill="#A2E053"/>
<path d="M24.9999 14.5833C27.3011 14.5833 29.1666 12.7179 29.1666 10.4167C29.1666 8.11548 27.3011 6.25 24.9999 6.25C22.6987 6.25 20.8333 8.11548 20.8333 10.4167C20.8333 12.7179 22.6987 14.5833 24.9999 14.5833Z" fill="#A2E053"/>
<path d="M30.2084 22.9166H19.7917C18.0667 22.9166 16.6667 21.5166 16.6667 19.7916C16.6667 18.0666 18.0667 16.6666 19.7917 16.6666H30.2084C31.9334 16.6666 33.3334 18.0666 33.3334 19.7916C33.3334 21.5166 31.9334 22.9166 30.2084 22.9166Z" fill="#A2E053"/>
<path d="M12.4999 35.4167C14.8011 35.4167 16.6666 33.5512 16.6666 31.25C16.6666 28.9489 14.8011 27.0834 12.4999 27.0834C10.1987 27.0834 8.33325 28.9489 8.33325 31.25C8.33325 33.5512 10.1987 35.4167 12.4999 35.4167Z" fill="#A2E053"/>
<path d="M24.9999 35.4167C27.3011 35.4167 29.1666 33.5512 29.1666 31.25C29.1666 28.9489 27.3011 27.0834 24.9999 27.0834C22.6987 27.0834 20.8333 28.9489 20.8333 31.25C20.8333 33.5512 22.6987 35.4167 24.9999 35.4167Z" fill="#A2E053"/>
<path d="M37.4999 35.4167C39.8011 35.4167 41.6666 33.5512 41.6666 31.25C41.6666 28.9489 39.8011 27.0834 37.4999 27.0834C35.1987 27.0834 33.3333 28.9489 33.3333 31.25C33.3333 33.5512 35.1987 35.4167 37.4999 35.4167Z" fill="#A2E053"/>
<path d="M40.7583 37.5H9.375C7.65 37.5 6.25 38.9 6.25 40.625C6.25 42.35 7.65 43.75 9.375 43.75H40.7583C42.4833 43.75 43.8833 42.35 43.8833 40.625C43.8833 38.9 42.4833 37.5 40.7583 37.5Z" fill="#A2E053"/>
</svg>
