<svg width="40" height="40" viewBox="0 0 40 40" fill="none" xmlns="http://www.w3.org/2000/svg">
<path d="M20 30.8775C31.0457 30.8775 40 26.2039 40 20.4388C40 14.6736 31.0457 10 20 10C8.9543 10 0 14.6736 0 20.4388C0 26.2039 8.9543 30.8775 20 30.8775Z" fill="white"/>
<path fill-rule="evenodd" clip-rule="evenodd" d="M5.61646 26.6197L7.80833 15.4941H12.8766C15.0683 15.6315 16.1643 16.7302 16.1643 18.6533C16.1643 21.9498 13.5616 23.8727 11.2327 23.7353H8.76724L8.21927 26.6197H5.61646ZM9.31505 21.6751L10 17.5545H11.7808C12.7397 17.5545 13.4246 17.9665 13.4246 18.7906C13.2877 21.1257 12.1918 21.5377 10.959 21.6751H9.31521H9.31505ZM15.6551 23.7353L17.8468 12.6099H20.4496L19.9016 15.4941H22.3672C24.5591 15.6315 25.381 16.7302 25.1071 18.1039L24.1482 23.7353H21.4085L22.3674 18.6533C22.5043 17.9665 22.5043 17.5545 21.5455 17.5545H19.4907L18.2579 23.7353H15.6551ZM23.9727 26.6197L26.1644 15.4941H31.2329C33.4247 15.6315 34.5207 16.7302 34.5207 18.6533C34.5207 21.9498 31.9179 23.8727 29.5891 23.7353H27.1233L26.5754 26.6197H23.9727ZM27.6711 21.6751L28.3561 17.5545H30.1371C31.096 17.5545 31.7808 17.9665 31.7808 18.7906C31.644 21.1257 30.548 21.5377 29.3152 21.6751H27.6713H27.6711Z" fill="#232531"/>
</svg>
