<svg width="28" height="28" viewBox="0 0 28 28" fill="none" xmlns="http://www.w3.org/2000/svg">
<path d="M9.52886 13.9589C9.52886 11.466 11.5493 9.44452 14.0422 9.44452C16.5352 9.44452 18.5566 11.466 18.5566 13.9589C18.5566 16.4519 16.5352 18.4734 14.0422 18.4734C11.5493 18.4734 9.52886 16.4519 9.52886 13.9589ZM7.08845 13.9589C7.08845 17.7995 10.2016 20.9127 14.0422 20.9127C17.8828 20.9127 20.996 17.7995 20.996 13.9589C20.996 10.1184 17.8828 7.00519 14.0422 7.00519C10.2016 7.00519 7.08856 10.1182 7.08856 13.9589H7.08845ZM19.6463 6.72947C19.6462 7.05088 19.7414 7.36511 19.9198 7.63242C20.0983 7.89973 20.352 8.10812 20.6489 8.23124C20.9458 8.35435 21.2725 8.38666 21.5878 8.32409C21.903 8.26151 22.1926 8.10685 22.42 7.87967C22.6474 7.6525 22.8022 7.363 22.8651 7.04779C22.9279 6.73259 22.8959 6.40583 22.773 6.10884C22.6501 5.81185 22.4419 5.55796 22.1747 5.37929C21.9076 5.20062 21.5934 5.10519 21.272 5.10506H21.2714C20.8405 5.10526 20.4274 5.27645 20.1227 5.58102C19.818 5.88559 19.6467 6.29865 19.6463 6.72947ZM8.57116 24.9821C7.25085 24.922 6.53322 24.702 6.05631 24.5162C5.42406 24.2701 4.97294 23.9769 4.49864 23.5033C4.02433 23.0296 3.73074 22.5789 3.48568 21.9467C3.29977 21.47 3.07984 20.7521 3.01983 19.4318C2.95417 18.0044 2.94106 17.5756 2.94106 13.9592C2.94106 10.3427 2.95526 9.91514 3.01983 8.48649C3.07995 7.16618 3.3015 6.44974 3.48568 5.97165C3.73182 5.33939 4.02498 4.88827 4.49864 4.41397C4.97229 3.93967 5.42297 3.64608 6.05631 3.40102C6.533 3.21511 7.25085 2.99518 8.57116 2.93516C9.99861 2.86951 10.4274 2.8564 14.0422 2.8564C17.657 2.8564 18.0862 2.87038 19.5149 2.93538C20.8352 2.99551 21.5516 3.21706 22.0297 3.40123C22.662 3.64629 23.1131 3.94054 23.5874 4.41419C24.0617 4.88784 24.3542 5.33961 24.6004 5.97187C24.7863 6.44855 25.0062 7.1664 25.0662 8.48671C25.1319 9.91536 25.145 10.343 25.145 13.9594C25.145 17.5758 25.1319 18.0034 25.0662 19.4321C25.0061 20.7524 24.7851 21.47 24.6004 21.9469C24.3542 22.5792 24.0611 23.0303 23.5874 23.5035C23.1138 23.9767 22.662 24.2703 22.0297 24.5164C21.553 24.7024 20.8352 24.9223 19.5149 24.9823C18.0874 25.048 17.6586 25.0611 14.0422 25.0611C10.4258 25.0611 9.99818 25.048 8.57116 24.9823V24.9821ZM8.45903 0.49876C7.01738 0.564412 6.03226 0.793005 5.17195 1.12777C4.28153 1.47347 3.52674 1.93727 2.77303 2.68978C2.01933 3.44229 1.55673 4.19719 1.21102 5.0887C0.876257 5.94955 0.647664 6.93412 0.582012 8.37577C0.515276 9.81969 0.5 10.2813 0.5 13.9589C0.5 17.6366 0.515276 18.0982 0.582012 19.5421C0.647664 20.9839 0.876257 21.9683 1.21102 22.8292C1.55673 23.7196 2.01944 24.4759 2.77303 25.2281C3.52663 25.9803 4.28044 26.4434 5.17195 26.7901C6.03389 27.1249 7.01738 27.3535 8.45903 27.4191C9.90371 27.4848 10.3646 27.5011 14.0422 27.5011C17.7198 27.5011 18.1815 27.4859 19.6254 27.4191C21.0671 27.3535 22.0516 27.1249 22.9125 26.7901C23.8029 26.4434 24.5577 25.9806 25.3114 25.2281C26.0651 24.4756 26.5267 23.7196 26.8734 22.8292C27.2082 21.9683 27.4378 20.9838 27.5024 19.5421C27.5681 18.0971 27.5833 17.6366 27.5833 13.9589C27.5833 10.2813 27.5681 9.81969 27.5024 8.37577C27.4368 6.93401 27.2082 5.94901 26.8734 5.0887C26.5267 4.19827 26.0639 3.44348 25.3114 2.68978C24.5589 1.93607 23.8029 1.47347 22.9135 1.12777C22.0516 0.793005 21.067 0.563329 19.6265 0.49876C18.1823 0.432782 17.7209 0.416748 14.0438 0.416748C10.3667 0.416748 9.90425 0.432024 8.45957 0.49876" fill="white"/>
</svg>
