<svg width="56" height="57" viewBox="0 0 56 57" fill="none" xmlns="http://www.w3.org/2000/svg">
<path opacity="0.35" d="M28 5.16666C15.113 5.16666 4.66671 15.613 4.66671 28.5C4.66671 32.2147 5.55804 35.7123 7.10038 38.8297L4.75538 48.2073C4.22104 50.3423 6.15538 52.279 8.29271 51.7447L17.6704 49.3997C20.7877 50.942 24.2854 51.8333 28 51.8333C40.887 51.8333 51.3334 41.387 51.3334 28.5C51.3334 15.613 40.887 5.16666 28 5.16666Z" fill="#53E0CF"/>
<path fill-rule="evenodd" clip-rule="evenodd" d="M26.5603 18.2683C26.8427 17.7363 27.3957 17.4027 28 17.4027C28.6043 17.4027 29.1573 17.7363 29.4397 18.2683L32.172 23.4227C32.2023 23.4833 32.249 23.5347 32.3027 23.5743C32.3563 23.614 32.4193 23.6397 32.487 23.6513L38.234 24.657C38.829 24.762 39.3167 25.1843 39.5033 25.7583C39.69 26.3323 39.543 26.9623 39.1253 27.3963L35.0677 31.5893C35.021 31.6383 34.986 31.6967 34.965 31.7597C34.944 31.825 34.937 31.8927 34.9487 31.958L35.7677 37.7353C35.8517 38.3327 35.5997 38.9277 35.112 39.2823C34.6243 39.637 33.9803 39.693 33.4367 39.427L28.196 36.8627C28.1353 36.8323 28.0677 36.8183 28 36.8183C27.9323 36.8183 27.867 36.8347 27.804 36.8627L22.5633 39.427C22.022 39.693 21.378 39.637 20.888 39.2823C20.4003 38.9277 20.1483 38.3327 20.2323 37.7353L21.0513 31.958C21.0607 31.8903 21.056 31.8227 21.035 31.7597C21.014 31.6943 20.979 31.636 20.9323 31.5893L16.8747 27.3963C16.4547 26.9623 16.31 26.3323 16.4967 25.7583C16.6833 25.1843 17.171 24.7597 17.766 24.657L23.513 23.6513C23.5807 23.6397 23.6437 23.614 23.6973 23.5743C23.751 23.5347 23.7977 23.4833 23.828 23.4227L26.5603 18.2683Z" fill="#53E0CF"/>
</svg>
