<svg width="74" height="74" viewBox="0 0 74 74" fill="none" xmlns="http://www.w3.org/2000/svg">
<path opacity="0.35" d="M55.5 6.16675H42.6363C39.3433 6.16675 36.2477 7.44941 33.9167 9.77733L9.32709 34.3669C7.289 36.4081 6.16667 39.1183 6.16667 41.9982C6.16667 44.8811 7.289 47.5913 9.32709 49.6294L24.3707 64.673C26.4088 66.7111 29.119 67.8334 32.0019 67.8334C34.8848 67.8334 37.5951 66.7111 39.6332 64.673L64.2197 40.0834C66.5507 37.7555 67.8333 34.6567 67.8333 31.3637V18.5001C67.8333 11.6982 62.3018 6.16675 55.5 6.16675ZM53.9583 24.6667C51.4023 24.6667 49.3333 22.5947 49.3333 20.0417C49.3333 17.4857 51.4023 15.4167 53.9583 15.4167C56.5144 15.4167 58.5833 17.4857 58.5833 20.0417C58.5833 22.5947 56.5144 24.6667 53.9583 24.6667Z" fill="#53E0CF"/>
<path d="M36.0442 48.7352C41.8717 42.9077 34.6443 37.2714 37.6814 34.2343C39.4697 32.446 41.0638 33.6639 41.551 34.151C42.032 34.632 42.3403 35.1685 42.5377 35.6896C43.0002 36.9168 44.3599 37.5643 45.6518 37.3423C47.3107 37.0555 48.3189 35.335 47.7238 33.7625C47.397 32.8992 46.8697 31.9434 46.0557 30.9598L46.9037 30.1119C47.6807 29.3349 47.6837 28.0707 46.9037 27.2906C46.1236 26.5105 44.8625 26.5105 44.0824 27.2906L42.9385 28.4345C39.7904 26.862 36.0966 27.488 33.3339 30.2537C27.2197 36.368 34.6752 41.6158 31.4962 44.7947C30.8827 45.4083 29.2639 46.4505 27.6852 44.8718C26.9822 44.1688 26.5752 43.3702 26.344 42.6179C25.9462 41.3445 24.5865 40.6322 23.2761 40.8758L23.1373 40.9035C21.6234 41.1903 20.609 42.698 21.0222 44.1811C21.3675 45.4299 21.9903 46.7526 23.0417 48.0538L22.0458 49.0528C21.2688 49.8298 21.2657 51.094 22.0458 51.874C22.8228 52.651 24.087 52.6541 24.8671 51.874L26.1097 50.6315C29.5198 52.4414 33.3092 51.467 36.0442 48.7352Z" fill="#53E0CF"/>
</svg>
