<svg width="57" height="57" viewBox="0 0 57 57" fill="none" xmlns="http://www.w3.org/2000/svg">
<path opacity="0.35" d="M21.5 49.5H14.5C10.6337 49.5 7.5 46.3664 7.5 42.5V26.1667C7.5 22.3004 10.6337 19.1667 14.5 19.1667H21.5C25.3663 19.1667 28.5 22.3004 28.5 26.1667V42.5C28.5 46.3664 25.3663 49.5 21.5 49.5Z" fill="#F7E64F"/>
<path d="M46 7.5H11C9.068 7.5 7.5 9.068 7.5 11C7.5 12.932 9.068 14.5 11 14.5H46C47.932 14.5 49.5 12.932 49.5 11C49.5 9.068 47.932 7.5 46 7.5Z" fill="#F7E64F"/>
<path d="M46.0001 49.5H36.6667C34.7347 49.5 33.1667 47.932 33.1667 46C33.1667 44.068 34.7347 42.5 36.6667 42.5H46.0001C47.9321 42.5 49.5001 44.068 49.5001 46C49.5001 47.932 47.9321 49.5 46.0001 49.5Z" fill="#F7E64F"/>
<path opacity="0.35" d="M46.0001 37.8333H36.6667C34.7347 37.8333 33.1667 36.2653 33.1667 34.3333C33.1667 32.4013 34.7347 30.8333 36.6667 30.8333H46.0001C47.9321 30.8333 49.5001 32.4013 49.5001 34.3333C49.5001 36.2653 47.9321 37.8333 46.0001 37.8333Z" fill="#F7E64F"/>
<path d="M46.0001 26.1667H36.6667C34.7347 26.1667 33.1667 24.5987 33.1667 22.6667C33.1667 20.7347 34.7347 19.1667 36.6667 19.1667H46.0001C47.9321 19.1667 49.5001 20.7347 49.5001 22.6667C49.5001 24.5987 47.9321 26.1667 46.0001 26.1667Z" fill="#F7E64F"/>
</svg>
