<svg width="56" height="56" viewBox="0 0 56 56" fill="none" xmlns="http://www.w3.org/2000/svg">
<g clip-path="url(#clip0_1530_3798)">
<path d="M39.6667 16.3333C42.244 16.3333 44.3333 14.244 44.3333 11.6667C44.3333 9.08934 42.244 7 39.6667 7C37.0893 7 35 9.08934 35 11.6667C35 14.244 37.0893 16.3333 39.6667 16.3333Z" fill="#53E0CF"/>
<path d="M45.4999 25.6666H33.8333C31.9013 25.6666 30.3333 24.0986 30.3333 22.1666C30.3333 20.2346 31.9013 18.6666 33.8333 18.6666H45.4999C47.4319 18.6666 48.9999 20.2346 48.9999 22.1666C48.9999 24.0986 47.4319 25.6666 45.4999 25.6666Z" fill="#53E0CF"/>
<path opacity="0.35" d="M54.9407 32.0367C53.4777 30.2283 50.8177 29.918 48.7994 31.073L38.3741 37.03C39.4964 34.825 38.7171 32.109 36.5471 30.87L28.8774 26.488C24.3717 23.912 19.1357 22.9133 13.9977 23.646L4.19773 25.046C1.9904 25.3633 2.06973 34.3443 4.66673 34.342V39.277L3.0614 39.9467C0.963728 40.8193 2.56206 46.6667 4.66906 46.6667C5.2664 46.6667 5.8754 46.55 6.46106 46.3073L10.6051 44.7907C12.8987 43.953 15.3954 43.8527 17.7474 44.5107L32.6341 48.664C34.4354 49.1657 36.3651 48.9277 37.9891 47.999L53.6481 39.0507C56.1097 37.646 56.8051 34.3397 54.9407 32.0367Z" fill="#53E0CF"/>
<path d="M3.5 49C1.56567 49 0 47.4343 0 45.5V24.5C0 22.5657 1.56567 21 3.5 21C5.43433 21 7 22.5657 7 24.5V45.5C7 47.4343 5.43433 49 3.5 49Z" fill="#53E0CF"/>
</g>
<defs>
<clipPath id="clip0_1530_3798">
<rect width="56" height="56" fill="white"/>
</clipPath>
</defs>
</svg>
