<svg width="56" height="56" viewBox="0 0 56 56" fill="none" xmlns="http://www.w3.org/2000/svg">
<g clip-path="url(#clip0_1401_1265)">
<path opacity="0.35" d="M30.3333 33.7493C30.3333 40.838 36.078 46.5826 43.1667 46.5826C50.2553 46.5826 56 40.838 56 33.7493C56 26.6606 50.2553 20.916 43.1667 20.916C42.7723 20.916 42.385 20.9393 42 20.9743L42 13.2183C42 10.3623 38.1827 9.44531 36.8597 11.977C33.915 17.605 30.7697 25.2233 30.4057 32.4006C30.359 32.8463 30.3333 33.2943 30.3333 33.7493Z" fill="#F7E64F"/>
<path d="M8.08941e-05 33.7493C8.15138e-05 40.838 5.74475 46.5826 12.8334 46.5826C19.9221 46.5826 25.6667 40.838 25.6667 33.7493C25.6667 26.6606 19.9221 20.916 12.8334 20.916C12.4391 20.916 12.0517 20.9393 11.6667 20.9743L11.6667 13.2183C11.6667 10.3623 7.84941 9.44531 6.52641 11.977C3.58175 17.605 0.436415 25.2233 0.0724151 32.4006C0.025748 32.8463 8.08543e-05 33.2943 8.08941e-05 33.7493Z" fill="#F7E64F"/>
</g>
<defs>
<clipPath id="clip0_1401_1265">
<rect width="56" height="56" fill="white" transform="translate(56 56) rotate(180)"/>
</clipPath>
</defs>
</svg>
