<svg width="56" height="56" viewBox="0 0 56 56" fill="none" xmlns="http://www.w3.org/2000/svg">
<path opacity="0.35" d="M25.6667 22.2507C25.6667 15.162 19.922 9.41736 12.8333 9.41736C5.74467 9.41736 0 15.162 0 22.2507C0 29.3394 5.74467 35.084 12.8333 35.084C13.2277 35.084 13.615 35.0607 14 35.0257V42.7817C14 45.6377 17.8173 46.5547 19.1403 44.023C22.085 38.395 25.2303 30.7767 25.5943 23.5994C25.641 23.1537 25.6667 22.7057 25.6667 22.2507Z" fill="#ADA1FF"/>
<path d="M55.9999 22.2507C55.9999 15.162 50.2553 9.41736 43.1666 9.41736C36.0779 9.41736 30.3333 15.162 30.3333 22.2507C30.3333 29.3394 36.0779 35.084 43.1666 35.084C43.5609 35.084 43.9483 35.0607 44.3333 35.0257V42.7817C44.3333 45.6377 48.1506 46.5547 49.4736 44.023C52.4182 38.395 55.5636 30.7767 55.9276 23.5994C55.9743 23.1537 55.9999 22.7057 55.9999 22.2507Z" fill="#ADA1FF"/>
</svg>
