<svg width="76" height="76" viewBox="0 0 76 76" fill="none" xmlns="http://www.w3.org/2000/svg">
<g clip-path="url(#clip0_1530_2223)">
<path d="M62.3186 25.7618C61.5396 25.4936 60.7324 25.2399 59.9013 25C60.0379 24.4425 60.1633 23.8922 60.2748 23.3512C62.1046 14.4687 60.9082 7.31292 56.8227 4.95692C52.9052 2.69783 46.4985 5.05329 40.028 10.6844C39.4057 11.2259 38.7818 11.7992 38.1581 12.4C37.7425 12.0025 37.3276 11.6183 36.9138 11.2509C30.1325 5.22973 23.3353 2.69235 19.2538 5.05516C15.3401 7.3208 14.1811 14.048 15.8282 22.466C15.9873 23.2791 16.1732 24.1094 16.3835 24.9536C15.4215 25.2267 14.4928 25.5178 13.6042 25.8275C5.65385 28.5994 0.576416 32.9435 0.576416 37.4495C0.576416 42.1034 6.02705 46.7713 14.3079 49.6017C14.9614 49.825 15.6395 50.0362 16.3383 50.2367C16.1115 51.1498 15.9142 52.0445 15.7486 52.9172C14.178 61.1892 15.4045 67.7574 19.3078 70.0087C23.3396 72.3337 30.1061 69.9439 36.6949 64.1845C37.2156 63.7292 37.7383 63.2464 38.2618 62.7404C38.9404 63.3939 39.618 64.0123 40.2919 64.5924C46.674 70.0844 52.9773 72.302 56.877 70.0444C60.9047 67.7127 62.2137 60.6569 60.5143 52.0723C60.3845 51.4167 60.2335 50.7469 60.0638 50.0652C60.539 49.9247 61.0055 49.7797 61.4604 49.6289C70.0691 46.7766 75.6703 42.1655 75.6703 37.4495C75.6703 32.9272 70.4291 28.5538 62.3186 25.7618ZM60.4515 46.5839C60.0408 46.7198 59.6195 46.8512 59.1902 46.9786C58.2398 43.9699 56.9572 40.7706 55.3875 37.4652C56.8854 34.2385 58.1185 31.0801 59.0422 28.0909C59.8104 28.3132 60.556 28.5476 61.2744 28.7951C68.2235 31.1873 72.4623 34.7242 72.4623 37.4495C72.4623 40.3525 67.8845 44.1209 60.4515 46.5839ZM57.3673 52.6954C58.1187 56.4913 58.2261 59.9233 57.7283 62.6063C57.281 65.0171 56.3816 66.6244 55.2695 67.2682C52.9029 68.638 47.8421 66.8574 42.3841 62.1607C41.7584 61.6222 41.1282 61.0473 40.4959 60.4389C42.6119 58.1247 44.7266 55.4344 46.7905 52.4466C50.4208 52.1245 53.8505 51.5978 56.9608 50.8788C57.114 51.4968 57.25 52.1028 57.3673 52.6954ZM26.1776 67.0314C23.8655 67.848 22.0239 67.8714 20.9108 67.2295C18.5421 65.8633 17.5574 60.5897 18.9006 53.5155C19.0544 52.7054 19.2375 51.8732 19.4486 51.0225C22.5248 51.7027 25.9294 52.1922 29.5683 52.4872C31.6462 55.4109 33.822 58.0983 36.0146 60.4513C35.5356 60.9138 35.0584 61.3541 34.5839 61.769C31.6704 64.3157 28.7507 66.1226 26.1776 67.0314ZM15.3454 46.5661C11.6838 45.3146 8.65987 43.688 6.58711 41.913C4.72461 40.318 3.78427 38.7345 3.78427 37.4495C3.78427 34.7151 7.86095 31.2274 14.6601 28.8568C15.4851 28.5692 16.3487 28.2981 17.245 28.0435C18.1846 31.1001 19.4173 34.296 20.9049 37.5276C19.3981 40.8072 18.1479 44.054 17.199 47.1465C16.5601 46.9628 15.9411 46.7695 15.3454 46.5661ZM18.9765 21.8499C17.5652 14.6376 18.5025 9.19681 20.861 7.83154C23.3733 6.37712 28.9286 8.45082 34.7837 13.6498C35.158 13.9821 35.5337 14.3299 35.9105 14.6897C33.7287 17.0324 31.5728 19.6996 29.5134 22.6061C25.9817 22.9334 22.601 23.4592 19.4927 24.1634C19.2973 23.3773 19.1242 22.605 18.9765 21.8499ZM51.3686 29.8483C50.6255 28.5649 49.8627 27.3118 49.085 26.0929C51.481 26.3958 53.7766 26.7978 55.9323 27.2898C55.2851 29.3641 54.4785 31.5328 53.5289 33.7561C52.8477 32.4629 52.1273 31.1589 51.3686 29.8483ZM38.1592 16.9823C39.6389 18.5854 41.1207 20.3752 42.5782 22.3171C41.1094 22.2477 39.6225 22.2116 38.1233 22.2116C36.6383 22.2116 35.1624 22.2469 33.7027 22.3151C35.1617 20.3912 36.6564 18.6038 38.1592 16.9823ZM24.8651 29.8705C24.1229 31.1576 23.4158 32.4544 22.7453 33.7537C21.8111 31.5382 21.012 29.3595 20.3591 27.2559C22.5017 26.7764 24.7864 26.3844 27.1671 26.0873C26.3785 27.3174 25.6094 28.5797 24.8651 29.8703V29.8705ZM27.2357 49.0407C24.776 48.7662 22.4569 48.3944 20.3149 47.9282C20.9781 45.787 21.795 43.5618 22.7489 41.2986C23.4211 42.5969 24.1311 43.8942 24.8778 45.1841H24.878C25.6387 46.4982 26.4268 47.7854 27.2357 49.0407ZM38.2479 58.1429C36.7275 56.5024 35.2109 54.6878 33.7297 52.7359C35.1676 52.7923 36.6335 52.8211 38.1233 52.8211C39.654 52.8211 41.1671 52.7866 42.6564 52.7204C41.1941 54.7074 39.7176 56.5249 38.2479 58.1429ZM53.5595 41.1832C54.5632 43.4709 55.4093 45.6844 56.0811 47.7891C53.9038 48.2858 51.553 48.6859 49.0762 48.9832C49.8558 47.7478 50.6253 46.4732 51.3814 45.1621C52.1464 43.8356 52.8727 42.5071 53.5595 41.1832ZM48.6026 43.5594C47.4288 45.5947 46.2236 47.5377 45.0002 49.3717C42.7719 49.5311 40.4697 49.6132 38.1233 49.6132C35.7865 49.6132 33.5133 49.5406 31.3244 49.3985C30.0517 47.5404 28.8203 45.5917 27.654 43.5769H27.6542C26.4909 41.5677 25.4203 39.5414 24.4501 37.5265C25.42 35.507 26.4879 33.4785 27.6445 31.4728L27.6442 31.4732C28.8039 29.4622 30.0244 27.523 31.2854 25.6765C33.5187 25.5077 35.8088 25.4196 38.1232 25.4196H38.1233C40.4482 25.4196 42.7412 25.5083 44.9739 25.6786C46.2156 27.5116 47.4278 29.4445 48.5921 31.4558C49.7695 33.4897 50.8512 35.5047 51.8293 37.4809C50.8541 39.4912 49.7749 41.5265 48.6026 43.5594ZM55.2203 7.7361C57.735 9.18625 58.7129 15.0347 57.1329 22.7038C57.0322 23.1931 56.9187 23.6916 56.7954 24.1967C53.6799 23.4778 50.2968 22.9429 46.7548 22.6106C44.6914 19.6722 42.5532 17.0009 40.4069 14.6882C40.9839 14.1331 41.5602 13.6038 42.134 13.1043C47.6779 8.27959 52.8595 6.37472 55.2203 7.7361ZM38.1233 30.7439C41.8267 30.7439 44.829 33.746 44.829 37.4495C44.829 41.1529 41.8267 44.1552 38.1233 44.1552C34.42 44.1552 31.4177 41.1529 31.4177 37.4495C31.4177 33.746 34.42 30.7439 38.1233 30.7439Z" fill="#00D8FF"/>
</g>
<defs>
<clipPath id="clip0_1530_2223">
<rect width="75.0939" height="75.0939" fill="white" transform="translate(0.576416)"/>
</clipPath>
</defs>
</svg>
