<svg width="40" height="40" viewBox="0 0 40 40" fill="none" xmlns="http://www.w3.org/2000/svg">
<g clip-path="url(#clip0_1338_3276)">
<path d="M31.277 14.5071C30.9139 14.3822 30.5377 14.2639 30.1503 14.1521C30.214 13.8922 30.2724 13.6358 30.3244 13.3836C31.1773 9.24364 30.6196 5.90843 28.7155 4.81034C26.8896 3.75742 23.9035 4.85526 20.8877 7.47981C20.5977 7.73219 20.3069 7.99939 20.0162 8.27943C19.8225 8.09415 19.6291 7.9151 19.4363 7.74384C16.2756 4.93749 13.1076 3.75486 11.2052 4.85613C9.38111 5.91211 8.84091 9.04752 9.60863 12.971C9.68276 13.35 9.76942 13.737 9.86742 14.1305C9.41905 14.2578 8.98619 14.3934 8.57202 14.5378C4.86651 15.8297 2.5 17.8544 2.5 19.9546C2.5 22.1237 5.04045 24.2993 8.90003 25.6185C9.20461 25.7226 9.52066 25.821 9.84636 25.9145C9.74064 26.3401 9.64868 26.7571 9.5715 27.1638C8.83948 31.0193 9.41114 34.0806 11.2304 35.1299C13.1095 36.2135 16.2633 35.0997 19.3342 32.4153C19.5769 32.2031 19.8205 31.9781 20.0645 31.7422C20.3808 32.0468 20.6966 32.3351 21.0107 32.6055C23.9853 35.1652 26.9232 36.1988 28.7407 35.1465C30.618 34.0598 31.2281 30.7712 30.436 26.7701C30.3755 26.4645 30.3052 26.1523 30.2261 25.8346C30.4476 25.7691 30.665 25.7015 30.877 25.6312C34.8894 24.3018 37.5 22.1527 37.5 19.9546C37.5 17.8468 35.0572 15.8085 31.277 14.5071ZM30.4068 24.212C30.2154 24.2753 30.019 24.3366 29.8189 24.3959C29.376 22.9936 28.7781 21.5025 28.0465 19.9619C28.7447 18.458 29.3194 16.9859 29.7499 15.5927C30.108 15.6963 30.4555 15.8056 30.7903 15.9209C34.0292 17.0359 36.0048 18.6844 36.0048 19.9546C36.0048 21.3076 33.8712 23.064 30.4068 24.212ZM28.9693 27.0604C29.3195 28.8297 29.3695 30.4293 29.1375 31.6798C28.9291 32.8034 28.5099 33.5525 27.9915 33.8526C26.8885 34.491 24.5297 33.6611 21.9859 31.472C21.6942 31.2211 21.4005 30.9532 21.1058 30.6696C22.092 29.591 23.0777 28.3371 24.0396 26.9445C25.7316 26.7943 27.3302 26.5489 28.7798 26.2138C28.8512 26.5018 28.9146 26.7843 28.9693 27.0604ZM14.4323 33.7422C13.3546 34.1228 12.4963 34.1337 11.9775 33.8346C10.8735 33.1978 10.4145 30.7398 11.0406 27.4427C11.1123 27.0651 11.1976 26.6772 11.296 26.2808C12.7298 26.5978 14.3166 26.8259 16.0126 26.9634C16.9811 28.3261 17.9952 29.5786 19.0172 30.6754C18.7939 30.8909 18.5715 31.0961 18.3503 31.2895C16.9924 32.4765 15.6316 33.3187 14.4323 33.7422ZM9.3836 24.2037C7.67697 23.6204 6.26756 22.8623 5.30149 22.035C4.4334 21.2916 3.99513 20.5535 3.99513 19.9546C3.99513 18.6801 5.8952 17.0546 9.06419 15.9497C9.4487 15.8156 9.85122 15.6893 10.2689 15.5706C10.7069 16.9953 11.2814 18.4848 11.9748 19.991C11.2725 21.5196 10.6898 23.0328 10.2475 24.4742C9.94972 24.3886 9.66121 24.2985 9.3836 24.2037ZM11.076 12.6839C10.4182 9.32232 10.8551 6.78648 11.9543 6.15015C13.1252 5.47227 15.7145 6.43879 18.4434 8.86193C18.6179 9.01681 18.793 9.17891 18.9686 9.34662C17.9517 10.4385 16.9469 11.6817 15.987 13.0363C14.341 13.1889 12.7653 13.434 11.3166 13.7622C11.2255 13.3958 11.1448 13.0358 11.076 12.6839ZM26.1734 16.4118C25.8271 15.8136 25.4715 15.2296 25.1091 14.6615C26.2258 14.8026 27.2957 14.99 28.3005 15.2193C27.9988 16.1861 27.6228 17.1969 27.1803 18.2331C26.8628 17.6304 26.527 17.0227 26.1734 16.4118ZM20.0167 10.4152C20.7064 11.1623 21.397 11.9965 22.0763 12.9016C21.3918 12.8693 20.6988 12.8525 20 12.8525C19.3079 12.8525 18.6199 12.8689 17.9396 12.9007C18.6196 12.004 19.3163 11.1709 20.0167 10.4152ZM13.8206 16.4222C13.4746 17.022 13.1451 17.6265 12.8326 18.232C12.3972 17.1994 12.0247 16.184 11.7204 15.2035C12.719 14.9801 13.7839 14.7973 14.8935 14.6588C14.5259 15.2322 14.1675 15.8205 13.8206 16.422V16.4222ZM14.9255 25.357C13.779 25.2291 12.6981 25.0558 11.6998 24.8385C12.0089 23.8405 12.3896 22.8034 12.8342 21.7486C13.1475 22.3537 13.4784 22.9584 13.8265 23.5596H13.8266C14.1811 24.172 14.5484 24.772 14.9255 25.357ZM20.0581 29.5994C19.3494 28.8348 18.6426 27.9891 17.9522 27.0793C18.6224 27.1056 19.3056 27.1191 20 27.1191C20.7134 27.1191 21.4186 27.103 22.1128 27.0721C21.4312 27.9982 20.743 28.8453 20.0581 29.5994ZM27.1945 21.6948C27.6623 22.7611 28.0567 23.7928 28.3698 24.7737C27.355 25.0052 26.2594 25.1917 25.1049 25.3302C25.4683 24.7545 25.8269 24.1604 26.1794 23.5493C26.5359 22.931 26.8744 22.3118 27.1945 21.6948ZM24.8842 22.8023C24.3371 23.751 23.7754 24.6565 23.2052 25.5114C22.1666 25.5856 21.0936 25.6239 20 25.6239C18.9108 25.6239 17.8514 25.59 16.8311 25.5238C16.2379 24.6578 15.664 23.7495 15.1204 22.8105H15.1205C14.5783 21.874 14.0793 20.9296 13.6271 19.9905C14.0792 19.0492 14.5769 18.1038 15.116 17.1689L15.1158 17.1691C15.6564 16.2318 16.2252 15.328 16.8129 14.4674C17.8538 14.3887 18.9212 14.3477 19.9999 14.3477H20C21.0836 14.3477 22.1523 14.389 23.1929 14.4684C23.7717 15.3227 24.3367 16.2236 24.8793 17.161C25.4281 18.109 25.9322 19.0482 26.3881 19.9692C25.9336 20.9062 25.4306 21.8548 24.8842 22.8023ZM27.9686 6.10567C29.1406 6.78156 29.5964 9.50741 28.8601 13.0818C28.8131 13.3099 28.7602 13.5422 28.7027 13.7777C27.2507 13.4426 25.6739 13.1933 24.023 13.0384C23.0613 11.6689 22.0647 10.4238 21.0643 9.34593C21.3333 9.0872 21.6018 8.8405 21.8693 8.60768C24.4532 6.35898 26.8683 5.47115 27.9686 6.10567ZM20 16.8292C21.7261 16.8292 23.1254 18.2285 23.1254 19.9546C23.1254 21.6807 21.7261 23.08 20 23.08C18.2739 23.08 16.8746 21.6807 16.8746 19.9546C16.8746 18.2285 18.2739 16.8292 20 16.8292Z" fill="#00D8FF"/>
</g>
<defs>
<clipPath id="clip0_1338_3276">
<rect width="35" height="35" fill="white" transform="translate(2.5 2.5)"/>
</clipPath>
</defs>
</svg>
