<svg width="56" height="56" viewBox="0 0 56 56" fill="none" xmlns="http://www.w3.org/2000/svg">
<path opacity="0.35" d="M7 14V42C7 45.8663 10.1337 49 14 49H37.3333C41.1997 49 44.3333 45.8663 44.3333 42V14C44.3333 10.1337 41.1997 7 37.3333 7H14C10.1337 7 7 10.1337 7 14Z" fill="#ADA1FF"/>
<path d="M53.0787 43.5587L48.412 36.5587C48.4073 36.554 48.4027 36.5493 48.4003 36.5447C50.232 34.1763 51.3333 31.2177 51.3333 28C51.3333 20.279 45.0543 14 37.3333 14H16.3333C15.043 14 14 15.0453 14 16.3333C14 17.6213 15.043 18.6667 16.3333 18.6667H26.9267C25.7157 20.0153 24.766 21.5927 24.15 23.3333H16.3333C15.043 23.3333 14 24.3787 14 25.6667C14 26.9547 15.043 28 16.3333 28H23.3333C23.3333 29.638 23.632 31.2037 24.15 32.6667H16.3333C15.043 32.6667 14 33.712 14 35C14 36.288 15.043 37.3333 16.3333 37.3333H26.9267C29.491 40.1893 33.1987 42 37.3333 42C39.298 42 41.167 41.5893 42.8633 40.8567L47.2523 47.4413C47.929 48.454 49.0397 49 50.169 49C50.8363 49 51.5107 48.8087 52.108 48.412C53.7157 47.341 54.152 45.1663 53.0787 43.5587ZM30.3333 28C30.3333 24.1407 33.474 21 37.3333 21C41.1927 21 44.3333 24.1407 44.3333 28C44.3333 31.8593 41.1927 35 37.3333 35C33.474 35 30.3333 31.8593 30.3333 28Z" fill="#ADA1FF"/>
</svg>
