<?xml version="1.0" standalone="no"?>
<!DOCTYPE svg PUBLIC "-//W3C//DTD SVG 20010904//EN"
 "http://www.w3.org/TR/2001/REC-SVG-20010904/DTD/svg10.dtd">
<svg version="1.0" xmlns="http://www.w3.org/2000/svg"
 width="261.000000pt" height="261.000000pt" viewBox="0 0 261.000000 261.000000"
 preserveAspectRatio="xMidYMid meet">
<metadata>
Created by potrace 1.14, written by Peter Selinger 2001-2017
</metadata>
<g transform="translate(0.000000,261.000000) scale(0.100000,-0.100000)"
fill="#000000" stroke="none">
<path d="M205 2592 c-64 -22 -109 -54 -145 -104 -64 -87 -61 -28 -58 -1204 l3
-1069 30 -54 c37 -67 92 -115 163 -141 53 -20 70 -20 1125 -18 l1072 3 54 30
c67 37 115 92 141 163 20 53 20 70 18 1125 l-3 1072 -30 54 c-37 66 -92 115
-162 141 -53 20 -76 20 -1106 20 -972 -1 -1056 -2 -1102 -18z m795 -343 c55
-25 114 -80 143 -134 21 -37 22 -54 22 -249 0 -188 -2 -210 -17 -220 -13 -8
-23 -8 -35 0 -16 10 -19 35 -23 212 l-5 200 -30 43 c-65 92 -188 116 -277 53
-77 -54 -83 -76 -86 -347 l-3 -238 -24 -11 c-19 -8 -28 -8 -40 2 -14 12 -16
45 -13 264 3 279 3 277 76 358 76 84 210 113 312 67z m855 -3 c29 -13 69 -44
92 -70 67 -76 73 -106 73 -373 l0 -233 -25 -12 c-51 -23 -54 -9 -57 250 -3
271 -9 291 -87 347 -37 26 -51 30 -111 30 -60 0 -74 -4 -111 -30 -23 -16 -53
-50 -66 -74 -22 -42 -23 -55 -23 -231 0 -204 -4 -219 -55 -206 l-25 6 0 203
c0 192 1 205 24 252 67 142 234 205 371 141z m-1067 -348 c9 -9 12 -75 12
-234 0 -184 -3 -224 -15 -234 -8 -7 -22 -10 -30 -6 -13 5 -15 40 -15 239 0
129 3 237 7 240 10 11 28 8 41 -5z m107 -278 l0 -285 -25 0 -25 0 -3 275 c-1
151 0 281 3 288 3 7 15 12 27 10 l23 -3 0 -285z m116 105 c3 -99 6 -181 7
-182 1 -2 132 -3 291 -3 213 0 292 3 297 12 4 6 10 89 13 182 l6 171 25 0 25
0 0 -215 0 -215 -360 0 -360 0 -3 205 c-1 112 0 211 3 218 3 7 15 12 27 10 23
-3 23 -6 29 -183z m774 163 c3 -13 4 -142 3 -288 l-3 -265 -25 0 -25 0 -3 275
c-1 151 0 280 3 287 8 22 44 15 50 -9z m103 -221 c2 -206 0 -238 -13 -243 -8
-4 -22 -1 -30 6 -12 10 -15 50 -15 230 0 120 3 226 6 235 4 9 15 15 28 13 21
-3 21 -7 24 -241z m-990 -675 c2 -246 0 -283 -13 -288 -8 -4 -22 -1 -30 6 -13
10 -15 56 -15 285 0 149 3 275 7 279 4 4 16 6 28 4 20 -3 20 -10 23 -286z
m890 7 c2 -236 0 -278 -13 -289 -8 -7 -22 -10 -30 -6 -13 5 -15 45 -15 284 0
153 3 282 7 286 4 4 16 6 28 4 19 -3 20 -10 23 -279z m-994 175 c3 -9 6 -114
6 -234 0 -180 -3 -220 -15 -230 -8 -7 -22 -10 -30 -6 -13 5 -15 40 -15 239 0
129 3 237 7 240 12 13 41 7 47 -9z m1094 -227 c2 -206 0 -238 -13 -243 -8 -4
-22 -1 -30 6 -12 10 -15 50 -15 230 0 120 3 226 6 235 4 9 15 15 28 13 21 -3
21 -7 24 -241z m-213 -27 l0 -215 -25 0 -25 0 -6 160 c-4 88 -7 170 -8 183
l-1 22 -295 0 c-162 0 -296 -1 -297 -2 -1 -2 -4 -84 -7 -183 l-6 -180 -25 0
-25 0 -3 205 c-1 112 0 210 3 217 3 11 77 13 362 11 l358 -3 0 -215z m-997
127 c7 -8 12 -100 14 -248 l3 -236 30 -48 c40 -64 90 -90 172 -90 53 0 68 5
104 31 76 55 84 81 87 299 2 119 7 194 14 203 6 7 23 12 37 10 l26 -3 0 -215
c0 -239 -1 -242 -73 -322 -110 -122 -300 -118 -411 8 -65 74 -71 105 -71 369
0 166 3 234 12 243 16 16 43 15 56 -1z m1330 1 c9 -9 12 -77 12 -243 0 -264
-6 -295 -71 -369 -113 -128 -300 -130 -415 -4 -69 75 -75 103 -72 333 l3 200
26 3 c14 2 31 -3 37 -10 6 -8 12 -88 14 -210 l3 -196 30 -43 c87 -123 268
-113 337 20 l28 53 0 227 c0 233 3 251 40 251 9 0 21 -5 28 -12z"/>
</g>
</svg>
