<svg width="46" height="35" viewBox="0 0 46 35" fill="none" xmlns="http://www.w3.org/2000/svg">
<path fill-rule="evenodd" clip-rule="evenodd" d="M41.6875 0H4.3125C1.93059 0 0 1.93059 0 4.3125V30.1875C0 32.5691 1.93059 34.5 4.3125 34.5H41.6875C44.0694 34.5 46 32.5691 46 30.1875V4.3125C46 1.93059 44.0691 0 41.6875 0ZM4.3125 2.875H41.6875C42.4814 2.875 43.125 3.51865 43.125 4.3125V23.8423L29.7664 10.4836C29.2048 9.92247 28.2952 9.92247 27.7336 10.4836L17.9688 20.2485L13.9539 16.2336C13.3923 15.6725 12.4827 15.6725 11.9211 16.2336L2.875 25.2798V4.3125C2.875 3.51865 3.51865 2.875 4.3125 2.875ZM20.0015 22.2812L28.75 13.5327L43.125 27.9077V30.1875C43.125 30.9814 42.4814 31.625 41.6875 31.625H28.9179C26.9746 29.1928 20.0015 22.2812 20.0015 22.2812Z" fill="#C9C9C9"/>
</svg>
