<svg width="50" height="50" viewBox="0 0 50 50" fill="none" xmlns="http://www.w3.org/2000/svg">
<path opacity="0.35" d="M37.5 43.75H12.5C9.04792 43.75 6.25 40.9521 6.25 37.5V12.5H43.75V37.5C43.75 40.9521 40.9521 43.75 37.5 43.75Z" fill="#ADA1FF"/>
<path d="M37.5 6.25H12.5C9.04792 6.25 6.25 9.04792 6.25 12.5V14.5833H43.75V12.5C43.75 9.04792 40.9521 6.25 37.5 6.25Z" fill="#ADA1FF"/>
<path d="M22.9165 37.5C22.9165 38.65 21.9832 39.5833 20.8332 39.5833C19.6832 39.5833 18.7498 38.65 18.7498 37.5C18.7498 36.35 19.6832 35.4167 20.8332 35.4167C21.9832 35.4167 22.9165 36.35 22.9165 37.5ZM12.4998 35.4167C11.3498 35.4167 10.4165 36.35 10.4165 37.5C10.4165 38.65 11.3498 39.5833 12.4998 39.5833C13.6498 39.5833 14.5832 38.65 14.5832 37.5C14.5832 36.35 13.6498 35.4167 12.4998 35.4167ZM20.8332 18.75C19.6832 18.75 18.7498 19.6833 18.7498 20.8333C18.7498 21.9833 19.6832 22.9167 20.8332 22.9167C21.9832 22.9167 22.9165 21.9833 22.9165 20.8333C22.9165 19.6833 21.9832 18.75 20.8332 18.75ZM20.8332 27.0833C19.6832 27.0833 18.7498 28.0167 18.7498 29.1667C18.7498 30.3167 19.6832 31.25 20.8332 31.25C21.9832 31.25 22.9165 30.3167 22.9165 29.1667C22.9165 28.0167 21.9832 27.0833 20.8332 27.0833ZM12.4998 18.75C11.3498 18.75 10.4165 19.6833 10.4165 20.8333C10.4165 21.9833 11.3498 22.9167 12.4998 22.9167C13.6498 22.9167 14.5832 21.9833 14.5832 20.8333C14.5832 19.6833 13.6498 18.75 12.4998 18.75ZM37.4998 18.75C36.7248 18.75 29.9478 18.75 29.1665 18.75C28.0165 18.75 27.0832 19.6833 27.0832 20.8333C27.0832 21.9833 28.0165 22.9167 29.1665 22.9167C29.9478 22.9167 36.7248 22.9167 37.4998 22.9167C38.6498 22.9167 39.5832 21.9833 39.5832 20.8333C39.5832 19.6833 38.6498 18.75 37.4998 18.75ZM31.2498 35.4167C30.4748 35.4167 29.9478 35.4167 29.1665 35.4167C28.0165 35.4167 27.0832 36.35 27.0832 37.5C27.0832 38.65 28.0165 39.5833 29.1665 39.5833C29.9478 39.5833 30.4748 39.5833 31.2498 39.5833C32.3998 39.5833 33.3332 38.65 33.3332 37.5C33.3332 36.35 32.3998 35.4167 31.2498 35.4167ZM37.4998 27.0833C36.7248 27.0833 29.9478 27.0833 29.1665 27.0833C28.0165 27.0833 27.0832 28.0167 27.0832 29.1667C27.0832 30.3167 28.0165 31.25 29.1665 31.25C29.9478 31.25 36.7248 31.25 37.4998 31.25C38.6498 31.25 39.5832 30.3167 39.5832 29.1667C39.5832 28.0167 38.6498 27.0833 37.4998 27.0833ZM12.4998 27.0833C11.3498 27.0833 10.4165 28.0167 10.4165 29.1667C10.4165 30.3167 11.3498 31.25 12.4998 31.25C13.6498 31.25 14.5832 30.3167 14.5832 29.1667C14.5832 28.0167 13.6498 27.0833 12.4998 27.0833Z" fill="#ADA1FF"/>
</svg>
