<svg width="75" height="74" viewBox="0 0 75 74" fill="none" xmlns="http://www.w3.org/2000/svg">
<path d="M57.5417 15.4167H17.4583C14.9053 15.4167 12.8333 13.3447 12.8333 10.7917C12.8333 8.23875 14.9053 6.16675 17.4583 6.16675H57.5417C60.0947 6.16675 62.1667 8.23875 62.1667 10.7917C62.1667 13.3447 60.0947 15.4167 57.5417 15.4167Z" fill="#F7AA4F"/>
<path d="M57.5417 67.8332H17.4583C14.9053 67.8332 12.8333 65.7612 12.8333 63.2083C12.8333 60.6553 14.9053 58.5833 17.4583 58.5833H57.5417C60.0947 58.5833 62.1667 60.6553 62.1667 63.2083C62.1667 65.7612 60.0947 67.8332 57.5417 67.8332Z" fill="#F7AA4F"/>
<path opacity="0.35" d="M59.0833 20.6675V18.4999C59.0833 15.0928 56.3237 12.3333 52.9167 12.3333H22.0833C18.6762 12.3333 15.9167 15.0928 15.9167 18.4999V20.6675C15.9167 26.8342 19.592 32.4088 25.2622 34.8385L30.3066 36.9999L25.2592 39.1613C19.592 41.591 15.9167 47.1657 15.9167 53.3323V55.4999C15.9167 58.9039 18.6762 61.6666 22.0833 61.6666H52.9167C56.3237 61.6666 59.0833 58.9039 59.0833 55.4999V53.3323C59.0833 47.1657 55.408 41.591 49.7377 39.1613L44.6934 36.9999L49.7408 34.8354C55.408 32.4088 59.0833 26.8342 59.0833 20.6675Z" fill="#F7AA4F"/>
<path d="M26.5418 27.75C27.4761 29.2238 28.8358 30.4232 30.507 31.1386L37.5031 34.1356L44.4961 31.1386C46.1673 30.4232 47.527 29.2238 48.4582 27.75H26.5418Z" fill="#F7AA4F"/>
<path d="M25.1667 58.8022H49.8333V57.1248C49.8333 53.6006 47.7336 50.4155 44.493 49.028L37.4969 46.031L30.5039 49.028C27.2664 50.4155 25.1667 53.6006 25.1667 57.1248V58.8022Z" fill="#F7AA4F"/>
</svg>
