<svg width="56" height="56" viewBox="0 0 56 56" fill="none" xmlns="http://www.w3.org/2000/svg">
<path opacity="0.35" d="M42 37.3333H14C10.1337 37.3333 7 34.1997 7 30.3333V14C7 10.1337 10.1337 7 14 7H42C45.8663 7 49 10.1337 49 14V30.3333C49 34.1997 45.8663 37.3333 42 37.3333Z" fill="#ADA1FF"/>
<path d="M15.1666 16.3333C18.3882 16.3333 20.9999 13.7217 20.9999 10.5C20.9999 7.27834 18.3882 4.66667 15.1666 4.66667C11.9449 4.66667 9.33325 7.27834 9.33325 10.5C9.33325 13.7217 11.9449 16.3333 15.1666 16.3333Z" fill="#ADA1FF"/>
<path d="M32.501 18.6667H11.6667C9.08833 18.6667 7 20.755 7 23.3333V48.7433C7 50.022 7.91933 51.1817 9.19333 51.317C10.563 51.464 11.7623 50.477 11.9117 49.14L13.139 38.1033C13.1857 37.667 13.5567 37.3333 14 37.3333C14.4433 37.3333 14.8143 37.667 14.8633 38.1057L16.0767 49.0303C16.212 50.2437 17.1687 51.2563 18.3867 51.3287C19.817 51.4127 21 50.281 21 48.8717V26.3877C21 25.7833 21.4457 25.27 22.043 25.1837L32.739 23.6553C33.9477 23.4827 34.937 22.5073 34.9953 21.2893C35.0653 19.852 33.922 18.6667 32.501 18.6667Z" fill="#ADA1FF"/>
<path d="M31.8569 37.3333L35.7979 49.1587C36.2319 50.4583 37.4476 51.3333 38.8173 51.3333C40.9873 51.3333 42.5226 49.2053 41.8343 47.1473L38.5629 37.3333H31.8569Z" fill="#ADA1FF"/>
</svg>
