<svg width="74" height="72" viewBox="0 0 74 72" fill="none" xmlns="http://www.w3.org/2000/svg">
<path opacity="0.35" d="M32.375 6.63501C17.9019 6.63501 6.16669 17.8114 6.16669 31.5953C6.16669 35.5684 7.16569 39.3095 8.9016 42.6454L6.26844 52.6765C5.66719 54.9611 7.84094 57.0314 10.2398 56.4587L20.7724 53.951C24.2751 55.6042 28.2033 56.5556 32.375 56.5556C46.8482 56.5556 58.5834 45.3793 58.5834 31.5953C58.5834 17.8114 46.8482 6.63501 32.375 6.63501Z" fill="#A2E053"/>
<path d="M63.8157 46.5627L67.7346 61.4861C68.3359 63.7707 66.1621 65.8409 63.7633 65.2683L48.0938 61.536L63.8157 46.5627Z" fill="#A2E053"/>
<path d="M54.9265 18.9272C57.2359 22.6419 58.5833 26.9645 58.5833 31.5953C58.5833 45.3793 46.8482 56.5557 32.375 56.5557C27.5126 56.5557 22.9739 55.2724 19.0735 53.073C23.6337 60.423 32.0142 65.3652 41.625 65.3652C56.0982 65.3652 67.8333 54.1888 67.8333 40.4049C67.8333 31.2518 62.6441 23.2703 54.9265 18.9272Z" fill="#A2E053"/>
</svg>
