<svg width="56" height="56" viewBox="0 0 56 56" fill="none" xmlns="http://www.w3.org/2000/svg">
<path opacity="0.35" d="M9.33325 44.3334V11.6667C9.33325 7.80042 12.4669 4.66675 16.3333 4.66675H39.6666C43.5329 4.66675 46.6666 7.80042 46.6666 11.6667V44.3334C46.6666 48.1997 43.5329 51.3334 39.6666 51.3334H16.3333C12.4669 51.3334 9.33325 48.1997 9.33325 44.3334Z" fill="#53E0CF"/>
<path d="M33.8334 9.33325H22.1667C20.2324 9.33325 18.6667 7.76525 18.6667 5.83325C18.6667 3.90125 20.2324 2.33325 22.1667 2.33325H33.8334C35.7677 2.33325 37.3334 3.90125 37.3334 5.83325C37.3334 7.76525 35.7677 9.33325 33.8334 9.33325Z" fill="#53E0CF"/>
<path d="M28.0001 42.0001C26.7121 42.0001 25.6667 40.9548 25.6667 39.6667V21.0001C25.6667 19.7121 26.7121 18.6667 28.0001 18.6667C29.2881 18.6667 30.3334 19.7121 30.3334 21.0001V39.6667C30.3334 40.9548 29.2881 42.0001 28.0001 42.0001Z" fill="#53E0CF"/>
<path d="M16.3333 30.3333C16.3333 29.0453 17.3786 28 18.6666 28H37.3333C38.6213 28 39.6666 29.0453 39.6666 30.3333C39.6666 31.6213 38.6213 32.6667 37.3333 32.6667H18.6666C17.3786 32.6667 16.3333 31.6213 16.3333 30.3333Z" fill="#53E0CF"/>
</svg>
