<svg width="56" height="57" viewBox="0 0 56 57" fill="none" xmlns="http://www.w3.org/2000/svg">
<path opacity="0.35" d="M9.3335 44.8388V12.1721C9.3335 8.30579 12.4672 5.17212 16.3335 5.17212H39.6668C43.5332 5.17212 46.6668 8.30579 46.6668 12.1721V44.8388C46.6668 48.7051 43.5332 51.8388 39.6668 51.8388H16.3335C12.4672 51.8388 9.3335 48.7051 9.3335 44.8388Z" fill="#53E0CF"/>
<path d="M33.8332 9.83862H22.1665C20.2322 9.83862 18.6665 8.27062 18.6665 6.33862C18.6665 4.40662 20.2322 2.83862 22.1665 2.83862H33.8332C35.7675 2.83862 37.3332 4.40662 37.3332 6.33862C37.3332 8.27062 35.7675 9.83862 33.8332 9.83862Z" fill="#53E0CF"/>
<path d="M27.9998 42.5055C26.7118 42.5055 25.6665 41.4601 25.6665 40.1721V21.5055C25.6665 20.2175 26.7118 19.1721 27.9998 19.1721C29.2878 19.1721 30.3332 20.2175 30.3332 21.5055V40.1721C30.3332 41.4601 29.2878 42.5055 27.9998 42.5055Z" fill="#53E0CF"/>
<path d="M16.3335 30.8387C16.3335 29.5507 17.3788 28.5054 18.6668 28.5054H37.3335C38.6215 28.5054 39.6668 29.5507 39.6668 30.8387C39.6668 32.1267 38.6215 33.172 37.3335 33.172H18.6668C17.3788 33.172 16.3335 32.1267 16.3335 30.8387Z" fill="#53E0CF"/>
</svg>
