<svg width="456" height="501" viewBox="0 0 456 501" fill="none" xmlns="http://www.w3.org/2000/svg">
<path d="M183.431 340.996C176.85 334.242 166.27 332.57 158.629 338.096L109.696 373.486C101.924 379.107 100.132 390.012 106.308 397.35C122.531 416.628 141.755 433.22 163.272 446.47C189.727 462.76 219.131 473.681 249.806 478.607C280.481 483.534 311.826 482.371 342.052 475.183C372.277 467.996 400.791 454.926 425.965 436.719C451.139 418.512 472.481 395.525 488.771 369.07C505.062 342.616 515.982 313.211 520.909 282.536C525.835 251.861 524.672 220.516 517.484 190.291C511.639 165.706 501.901 142.254 488.673 120.811C483.637 112.647 472.72 110.934 464.948 116.555L410.591 155.868C402.95 161.394 401.226 171.966 405.579 180.331C410.827 190.416 414.826 201.131 417.468 212.241C421.677 229.944 422.359 248.302 419.473 266.267C416.588 284.233 410.192 301.455 400.651 316.949C391.11 332.442 378.611 345.905 363.867 356.569C349.123 367.232 332.423 374.887 314.721 379.096C297.019 383.306 278.66 383.987 260.695 381.102C242.729 378.216 225.508 371.821 210.014 362.28C200.29 356.292 191.365 349.138 183.431 340.996Z" fill="#F7AA4F"/>
<circle r="79" transform="matrix(-1 0 0 1 79 275)" fill="#F7E64F"/>
<rect x="333.302" width="114.754" height="114.754" rx="7.59957" transform="rotate(16.8702 333.302 0)" fill="#A2E053"/>
</svg>
