<svg width="408" height="491" viewBox="0 0 408 491" fill="none" xmlns="http://www.w3.org/2000/svg">
<path d="M258.419 187.53C261.188 184.972 265.457 184.972 268.226 187.53L323.216 238.33C323.63 238.712 324.088 239.045 324.58 239.322L389.839 275.993C393.119 277.836 394.436 281.888 392.865 285.308L361.595 353.387C361.36 353.898 361.186 354.436 361.075 354.988L346.408 428.459C345.671 432.153 342.219 434.661 338.478 434.221L264.166 425.485C263.606 425.419 263.039 425.419 262.479 425.485L188.167 434.221C184.426 434.661 180.974 432.153 180.237 428.459L165.57 354.988C165.46 354.436 165.285 353.898 165.05 353.387L133.78 285.308C132.209 281.888 133.526 277.836 136.807 275.993L202.066 239.322C202.557 239.045 203.015 238.712 203.429 238.33L258.419 187.53Z" fill="#F7AA4F"/>
<circle r="65.5" transform="matrix(-1 0 0 1 65.5 425.5)" fill="#F7E64F"/>
<rect x="262.821" width="151" height="151" transform="rotate(16.8702 262.821 0)" fill="#A2E053"/>
</svg>
